SplineFontDB: 3.0
FontName: Untitled1
FullName: Untitled1
FamilyName: Untitled1
Weight: Regular
Copyright: Copyright (c) 2017, Takahiro
UComments: "2017-1-15: Created with FontForge (http://fontforge.org)"
Version: 001.000
ItalicAngle: 0
UnderlinePosition: -100
UnderlineWidth: 50
Ascent: 800
Descent: 200
InvalidEm: 0
LayerCount: 2
Layer: 0 0 "Back" 1
Layer: 1 0 "Fore" 0
XUID: [1021 877 71554418 16478097]
StyleMap: 0x0000
FSType: 0
OS2Version: 0
OS2_WeightWidthSlopeOnly: 0
OS2_UseTypoMetrics: 1
CreationTime: 1484416890
ModificationTime: 1484469948
OS2TypoAscent: 0
OS2TypoAOffset: 1
OS2TypoDescent: 0
OS2TypoDOffset: 1
OS2TypoLinegap: 90
OS2WinAscent: 0
OS2WinAOffset: 1
OS2WinDescent: 0
OS2WinDOffset: 1
HheadAscent: 0
HheadAOffset: 1
HheadDescent: 0
HheadDOffset: 1
OS2Vendor: 'PfEd'
DEI: 91125
Encoding: jis208
UnicodeInterp: none
NameList: AGL For New Fonts
DisplaySize: -48
AntiAlias: 1
FitToEm: 0
WinInfo: 9462 19 10
BeginChars: 65536 176

StartChar: uni3041
Encoding: 9249 12353 0
Width: 1000
VWidth: 0
Flags: H
HStem: 311.073 69.9121<470.046 588.73> 323.232 58.7676<308.446 395.101> 323.232 35.4629<254.775 343.077>
VStem: 395.437 57.2471<227.484 323.119> 421.273 66.873<389.267 495.975>
LayerCount: 2
Fore
SplineSet
464.34765625 482.440429688 m 4x48
 470.93359375 490.0390625 481.572265625 495.611328125 490.69140625 496.119140625 c 4
 504.370117188 497.131835938 505.889648438 495.611328125 507.41015625 480.920898438 c 4
 508.422851562 471.801757812 503.357421875 444.950195312 496.771484375 420.126953125 c 4
 489.171875 392.770507812 486.131835938 374.025390625 489.171875 371.493164062 c 4
 491.705078125 368.959960938 520.07421875 365.920898438 551.991210938 364.90625 c 6
 610.250976562 363.38671875 l 5
 611.771484375 344.642578125 l 6
 613.796875 317.791992188 601.131835938 294.994140625 583.401367188 294.994140625 c 4x88
 575.801757812 294.994140625 564.65625 298.034179688 559.083984375 302.087890625 c 4
 553.510742188 306.140625 534.766601562 310.69921875 518.5546875 312.219726562 c 6
 488.159179688 315.258789062 l 5
 479.545898438 295.500976562 l 6
 471.439453125 277.263671875 465.8671875 217.484375 471.947265625 211.405273438 c 4
 473.466796875 209.884765625 482.5859375 211.911132812 491.705078125 215.96484375 c 4
 501.330078125 220.016601562 513.489257812 225.083007812 519.061523438 227.109375 c 4
 531.727539062 231.668945312 583.401367188 229.642578125 603.665039062 223.563476562 c 4
 613.796875 221.030273438 625.955078125 222.043945312 641.153320312 227.109375 c 4
 666.484375 235.721679688 683.203125 232.682617188 684.72265625 220.016601562 c 4
 684.72265625 215.45703125 685.735351562 208.87109375 685.735351562 205.833007812 c 4
 686.2421875 202.791992188 698.907226562 186.581054688 714.612304688 169.356445312 c 4
 753.62109375 126.294921875 758.180664062 110.083007812 747.03515625 56.3828125 c 4
 742.4765625 33.0791015625 735.3828125 10.28125 731.330078125 5.7216796875 c 4
 727.278320312 1.6689453125 724.23828125 -3.9033203125 724.23828125 -5.9306640625 c 4
 724.23828125 -14.54296875 680.668945312 -69.2568359375 672.564453125 -71.2822265625 c 4
 668.004882812 -72.8017578125 656.3515625 -72.2958984375 647.233398438 -70.26953125 c 4
 632.541992188 -67.2294921875 630.514648438 -64.697265625 628.995117188 -48.484375 c 4
 627.4765625 -32.7802734375 629.501953125 -29.2333984375 644.193359375 -20.6220703125 c 4
 669.017578125 -5.9306640625 693.841796875 43.7177734375 694.854492188 81.7138671875 c 4
 695.361328125 109.069335938 694.34765625 113.123046875 678.643554688 129.840820312 c 4
 658.885742188 150.611328125 654.326171875 152.131835938 649.766601562 139.465820312 c 4
 644.700195312 123.76171875 597.5859375 43.7177734375 587.9609375 33.0791015625 c 4
 582.89453125 28.0126953125 576.307617188 18.8935546875 573.268554688 12.814453125 c 4
 555.030273438 -20.6220703125 495.756835938 -76.3486328125 457.255859375 -95.599609375 c 4
 427.366210938 -110.291992188 423.3125 -111.3046875 389.875976562 -107.7578125 c 4
 366.065429688 -105.225585938 352.89453125 -101.678710938 350.8671875 -97.119140625 c 4
 349.34765625 -93.06640625 345.294921875 -90.02734375 341.2421875 -90.02734375 c 4
 337.189453125 -90.02734375 328.577148438 -80.4013671875 320.977539062 -69.2568359375 c 4
 309.83203125 -51.5244140625 308.3125 -43.9248046875 310.338867188 -22.1416015625 c 4
 313.885742188 11.294921875 326.043945312 58.916015625 333.13671875 67.5283203125 c 4
 336.682617188 71.5810546875 347.322265625 87.2861328125 357.454101562 102.484375 c 4
 367.5859375 117.682617188 384.303710938 139.465820312 394.435546875 150.611328125 c 6
 413.180664062 170.876953125 l 5
 414.700195312 237.2421875 l 6
 415.712890625 278.27734375 414.193359375 305.126953125 411.153320312 307.153320312 c 4x50
 408.114257812 308.672851562 388.357421875 307.66015625 366.065429688 304.11328125 c 4
 298.6875 293.981445312 273.357421875 298.541015625 273.357421875 320.325195312 c 4
 273.357421875 334.509765625 287.03515625 342.109375 312.872070312 342.616210938 c 4x30
 329.083984375 343.123046875 341.749023438 347.17578125 352.89453125 354.774414062 c 4
 361.505859375 360.854492188 374.171875 365.920898438 381.263671875 365.920898438 c 4
 415.712890625 365.920898438 423.819335938 370.986328125 432.431640625 397.330078125 c 4
 436.991210938 411.515625 440.537109375 428.232421875 440.537109375 434.818359375 c 4
 440.537109375 449.00390625 448.13671875 464.202148438 464.34765625 482.440429688 c 4x48
598.599609375 170.369140625 m 4
 579.34765625 182.021484375 527.673828125 173.915039062 495.250976562 153.651367188 c 6
 476 142 l 5
 476 106.537109375 l 6
 476 76.140625 477.520507812 70.5673828125 485.625 68.541015625 c 4
 498.291015625 65.5009765625 507.41015625 44.2236328125 503.357421875 28.0126953125 c 6
 499.810546875 14.8408203125 l 5
 516.021484375 29.025390625 l 6
 524.633789062 37.1318359375 537.806640625 53.849609375 545.405273438 66.515625 c 4
 552.498046875 79.1796875 560.096679688 90.8330078125 561.616210938 92.3515625 c 4
 566.682617188 96.4052734375 581.881835938 124.267578125 598.092773438 159.223632812 c 4
 600.625 163.783203125 600.625 168.849609375 598.599609375 170.369140625 c 4
426.859375 61.9560546875 m 4
 425.338867188 78.6728515625 422.299804688 93.87109375 419.766601562 94.884765625 c 4
 413.180664062 99.4443359375 400.008789062 76.140625 387.850585938 36.625 c 4
 369.612304688 -22.1416015625 376.705078125 -52.5380859375 409.633789062 -57.603515625 c 4
 424.326171875 -60.1376953125 476 -23.154296875 476 -10.490234375 c 4
 476 -7.4501953125 469.920898438 -3.9033203125 462.322265625 -2.890625 c 4
 443.577148438 -0.8642578125 429.8984375 23.9599609375 426.859375 61.9560546875 c 4
EndSplineSet
EndChar

StartChar: uni3042
Encoding: 9250 12354 1
Width: 1000
VWidth: 0
Flags: H
HStem: 564.537 58.3613<486.813 670.103> 568.186 67.4795<166.854 401.006>
VStem: 405.4 71.1279<144.22 229.502> 795.083 60.793<-39.3965 55.9695>
LayerCount: 2
Fore
SplineSet
454.390625 720.547851562 m 4x70
 466.631835938 729.913085938 492.2265625 729.328125 500.015625 719.377929688 c 4
 505.022460938 712.939453125 503.91015625 704.16015625 495.565429688 681.333007812 c 4
 483.323242188 647.385742188 486.10546875 626.31640625 503.353515625 623.389648438 c 4x70
 509.474609375 622.21875 525.609375 619.291992188 539.520507812 616.366210938 c 4
 553.4296875 613.439453125 582.362304688 611.098632812 604.061523438 611.098632812 c 4
 648.016601562 610.513671875 658.032226562 604.075195312 664.151367188 571.883789062 c 4
 667.491210938 556.666015625 665.822265625 551.984375 653.580078125 543.7890625 c 4
 639.670898438 533.83984375 637.444335938 533.83984375 617.415039062 544.375976562 c 4
 601.279296875 551.984375 582.362304688 554.91015625 542.857421875 554.91015625 c 4xb0
 513.92578125 554.91015625 488.331054688 552.569335938 485.549804688 550.228515625 c 4
 478.873046875 542.619140625 479.428710938 365.861328125 486.662109375 367.6171875 c 4
 523.94140625 379.908203125 601.8359375 393.955078125 631.32421875 393.955078125 c 4
 666.93359375 393.955078125 700.874023438 381.663085938 700.874023438 369.372070312 c 4
 700.874023438 367.032226562 704.76953125 364.690429688 709.219726562 364.690429688 c 4
 722.573242188 364.690429688 743.161132812 350.643554688 783.220703125 314.940429688 c 4
 832.18359375 271.04296875 860.559570312 190.272460938 854.438476562 113.014648438 c 4
 851.100585938 67.361328125 843.311523438 32.244140625 834.96484375 23.46484375 c 4
 831.626953125 19.9541015625 828.844726562 12.34375 828.844726562 6.4912109375 c 4
 828.844726562 -6.384765625 798.80078125 -70.181640625 781.551757812 -94.763671875 c 4
 774.318359375 -104.12890625 767.0859375 -118.17578125 765.416015625 -125.198242188 c 4
 759.852539062 -143.9296875 730.362304688 -140.416992188 715.897460938 -119.345703125 c 4
 706.994140625 -107.0546875 705.881835938 -101.787109375 710.888671875 -96.51953125 c 4
 714.784179688 -92.423828125 717.565429688 -84.8134765625 717.565429688 -78.9609375 c 4
 717.565429688 -72.5234375 721.4609375 -68.4267578125 728.694335938 -68.4267578125 c 4
 734.813476562 -68.4267578125 739.821289062 -64.3291015625 739.821289062 -59.646484375 c 4
 739.821289062 -54.9638671875 747.611328125 -37.990234375 756.513671875 -21.6015625 c 4
 765.97265625 -5.21484375 773.205078125 11.7587890625 773.205078125 15.8564453125 c 4
 773.205078125 20.5390625 777.100585938 33.4150390625 782.108398438 45.7060546875 c 4
 792.6796875 72.044921875 794.348632812 175.641601562 785.4453125 210.173828125 c 4
 780.4375 227.147460938 769.868164062 242.36328125 749.836914062 261.678710938 c 4
 720.905273438 289.1875 720.348632812 289.1875 714.784179688 275.725585938 c 4
 708.6640625 259.922851562 590.15234375 138.181640625 556.768554688 112.4296875 c 4
 543.970703125 103.064453125 533.956054688 92.5283203125 533.956054688 89.0185546875 c 4
 533.956054688 79.65234375 507.249023438 53.900390625 483.87890625 40.4384765625 c 4
 473.309570312 34.5849609375 463.293945312 28.146484375 461.624023438 25.806640625 c 4
 457.729492188 21.123046875 443.819335938 12.34375 403.758789062 -10.482421875 c 4
 329.758789062 -52.0380859375 259.09765625 -64.3291015625 230.1640625 -41.501953125 c 4
 204.5703125 -21.6015625 195.110351562 0.638671875 198.44921875 34 c 4
 201.231445312 66.1923828125 224.599609375 123.55078125 236.840820312 128.817382812 c 4
 241.291015625 130.57421875 244.630859375 134.670898438 244.630859375 138.766601562 c 4
 244.630859375 154.5703125 354.796875 275.140625 396.526367188 304.405273438 c 6
 417.112304688 319.623046875 l 5
 417.668945312 367.032226562 l 6
 418.224609375 476.481445312 416 549.057617188 412.661132812 553.155273438 c 4
 410.435546875 555.495117188 377.608398438 557.836914062 339.217773438 558.422851562 c 4
 274.674804688 559.0078125 269.666992188 558.422851562 260.208984375 546.715820312 c 4
 251.307617188 534.424804688 250.194335938 534.424804688 232.390625 543.7890625 c 4
 210.134765625 555.495117188 188.991210938 575.396484375 188.991210938 583.588867188 c 4
 188.991210938 587.1015625 193.442382812 595.879882812 199.005859375 603.490234375 c 4
 210.134765625 618.706054688 244.07421875 623.389648438 349.232421875 623.389648438 c 4
 418.782226562 623.389648438 423.232421875 625.14453125 426.571289062 647.970703125 c 4
 430.466796875 673.140625 446.045898438 713.524414062 454.390625 720.547851562 c 4x70
649.685546875 316.111328125 m 4
 640.784179688 323.719726562 590.15234375 329.572265625 586.8125 323.719726562 c 4
 585.700195312 321.37890625 578.467773438 320.793945312 571.790039062 321.963867188 c 4
 563.444335938 323.133789062 545.083984375 314.940429688 520.045898438 298.552734375 c 6
 481.098632812 272.798828125 l 5
 481.654296875 211.9296875 l 6
 482.767578125 129.403320312 486.662109375 128.817382812 562.888671875 203.735351562 c 4
 594.603515625 234.755859375 620.751953125 264.020507812 621.8671875 268.702148438 c 4
 622.978515625 273.385742188 631.32421875 280.993164062 640.2265625 285.676757812 c 4
 657.475585938 295.040039062 660.814453125 306.745117188 649.685546875 316.111328125 c 4
416.556640625 200.22265625 m 4
 415.443359375 217.197265625 413.774414062 231.243164062 412.104492188 232.415039062 c 4
 404.315429688 237.096679688 389.291992188 225.390625 350.344726562 183.834960938 c 4
 299.712890625 130.57421875 276.901367188 87.2607421875 275.7890625 45.7060546875 c 4
 275.231445312 16.44140625 275.231445312 16.44140625 291.922851562 17.0263671875 c 4
 301.938476562 17.6123046875 325.864257812 29.3173828125 350.344726562 46.291015625 c 4
 373.157226562 62.0947265625 394.857421875 76.140625 397.639648438 77.8974609375 c 4
 400.9765625 79.65234375 409.879882812 85.505859375 418.224609375 91.9443359375 c 4
 432.135742188 101.309570312 433.247070312 104.8203125 430.466796875 127.061523438 c 4
 428.240234375 139.9375 424.90234375 155.155273438 422.120117188 160.423828125 c 4
 419.895507812 165.10546875 417.112304688 183.25 416.556640625 200.22265625 c 4
EndSplineSet
EndChar

StartChar: uni3043
Encoding: 9251 12355 2
Width: 1000
VWidth: 0
VStem: 670.185 77.7969<-42.1109 145.285>
LayerCount: 2
Fore
SplineSet
601.388671875 362.974609375 m 4
 615.534179688 372.619140625 615.534179688 372.619140625 642.537109375 367.474609375 c 4
 657.96875 364.258789062 662.469726562 359.759765625 662.469726562 348.185546875 c 4
 662.469726562 339.828125 666.326171875 330.826171875 670.828125 328.255859375 c 4
 679.185546875 323.111328125 693.973632812 292.891601562 706.833984375 255.600585938 c 4
 718.405273438 222.810546875 720.334960938 211.879882812 726.764648438 165.587890625 c 4
 729.3359375 142.44140625 735.123046875 116.081054688 738.338867188 106.436523438 c 4
 742.1953125 97.4345703125 745.411132812 68.5029296875 746.053710938 42.1416015625 c 4
 746.696289062 16.423828125 747.338867188 -13.15234375 747.981445312 -24.0830078125 c 4
 748.624023438 -36.2998046875 746.696289062 -42.728515625 741.551757812 -42.0859375 c 4
 737.05078125 -40.798828125 730.62109375 -45.9423828125 726.764648438 -53.015625 c 4
 722.90625 -60.7314453125 713.262695312 -65.8740234375 704.260742188 -65.8740234375 c 4
 681.758789062 -65.8740234375 666.969726562 -34.3701171875 670.184570312 4.20703125 c 4
 673.3984375 38.92578125 665.041015625 113.508789062 656.041015625 123.796875 c 4
 652.825195312 127.653320312 648.323242188 141.155273438 647.038085938 153.372070312 c 4
 643.181640625 179.732421875 629.677734375 228.596679688 614.890625 268.459960938 c 4
 590.458007812 334.041992188 587.88671875 352.6875 601.388671875 362.974609375 c 4
276.055664062 335.970703125 m 4
 295.34375 346.2578125 302.416015625 347.54296875 313.990234375 340.470703125 c 4
 322.991210938 334.041992188 323.633789062 331.46875 333.921875 252.38671875 c 4
 350.637695312 123.15234375 382.141601562 27.3525390625 413.00390625 13.2080078125 c 4
 421.362304688 9.3515625 435.5078125 2.921875 445.150390625 -1.5791015625 c 4
 472.799804688 -15.0810546875 477.298828125 -54.9453125 451.581054688 -58.8017578125 c 4
 400.787109375 -67.1611328125 347.422851562 -52.373046875 347.422851562 -30.5126953125 c 4
 347.422851562 -26.6552734375 341.63671875 -17.654296875 334.564453125 -11.2236328125 c 4
 313.990234375 7.421875 296.629882812 39.5693359375 289.557617188 69.7880859375 c 4
 286.342773438 85.21875 279.270507812 117.3671875 274.125976562 141.798828125 c 4
 268.33984375 165.587890625 264.482421875 191.305664062 264.482421875 199.665039062 c 4
 265.125 207.380859375 263.197265625 220.881835938 260.624023438 229.8828125 c 4
 254.836914062 250.458007812 251.624023438 307.680664062 256.124023438 318.609375 c 4
 257.41015625 323.111328125 266.411132812 330.826171875 276.055664062 335.970703125 c 4
EndSplineSet
Validated: 33
EndChar

StartChar: uni3044
Encoding: 9252 12356 3
Width: 1000
VWidth: 0
Flags: H
VStem: 97.792 76.6221<290.255 550.35>
LayerCount: 2
Fore
SplineSet
153.259765625 526.884765625 m 4
 161.1640625 539.05859375 166.849609375 541.750976562 182.197265625 541.03515625 c 4
 217.244140625 539.048828125 227.020507812 522.856445312 216.224609375 481.594726562 c 4
 213.08984375 470.145507812 210.158203125 445.317382812 209.299804688 426.900390625 c 4
 208.44140625 408.481445312 207.260742188 388.185546875 206.97265625 382.047851562 c 4
 205.624023438 370.87109375 231.444335938 257.1484375 240.518554688 233.536132812 c 4
 275.084960938 142.478515625 300.82421875 85.435546875 316.234375 68.2705078125 c 4
 321.400390625 62.3505859375 326.423828125 53.3623046875 327.23828125 48 c 4
 328.0546875 42.6376953125 334.775390625 34.5146484375 342.919921875 29.0478515625 c 4
 355.780273438 20.640625 357.567382812 20.912109375 362.2578125 30.1591796875 c 4
 369.889648438 44.119140625 399.09765625 56.4833984375 401.232421875 46.4462890625 c 4
 401.866210938 42.275390625 404.6875 31.7314453125 406.643554688 22.8857421875 c 4
 408.6875 13.443359375 407.986328125 6.021484375 405.603515625 5.6591796875 c 4
 402.624023438 5.20703125 396.7421875 -4.220703125 392.323242188 -15.2548828125 c 4
 381.557617188 -40.6640625 357.423828125 -58.353515625 335.341796875 -57.443359375 c 4
 308.3125 -56.0654296875 282.516601562 -30.7275390625 254.938476562 22.3798828125 c 4
 241.834960938 48.427734375 236.176757812 61.587890625 211.826171875 125.549804688 c 4
 207.450195312 138.294921875 196.043945312 165.2109375 187.421875 185.84375 c 4
 165.296875 239.170898438 136.140625 382.862304688 138.012695312 430.693359375 c 4
 140.224609375 488.329101562 144.4375 512.743164062 153.259765625 526.884765625 c 4
696.87890625 543.681640625 m 4
 695.791992188 550.830078125 719.532226562 555.048828125 730.657226562 550.03515625 c 4
 735.190429688 548.286132812 750.223632812 525.577148438 764.518554688 499.7109375 c 4
 778.216796875 473.752929688 795.438476562 444.673828125 801.744140625 435.26953125 c 4
 808.646484375 425.955078125 817.720703125 402.342773438 822.497070312 382.954101562 c 4
 827.272460938 363.564453125 833.331054688 343.758789062 835.84375 339.264648438 c 4
 850.590820312 310.41796875 875.9375 163.708007812 867.671875 153.918945312 c 4
 864.55078125 150.395507812 852.907226562 146.796875 842.000976562 146.359375 c 4
 824.451171875 145.51953125 821.110351562 147.451171875 814.041015625 165.8828125 c 4
 809.936523438 176.83984375 801.795898438 210.34765625 795.572265625 239.271484375 c 4
 789.345703125 268.193359375 775.91015625 312.4765625 764.775390625 337.60546875 c 4
 753.641601562 362.733398438 743.013671875 388.548828125 742.016601562 395.102539062 c 4
 738.921875 407.43359375 706.201171875 454.272460938 697.640625 458.458984375 c 4
 694.986328125 459.8828125 688.046875 473.45703125 681.935546875 489.596679688 c 4
 670.671875 519.581054688 672.76171875 533.919921875 689.443359375 536.456054688 c 4
 694.208007812 537.1796875 697.331054688 540.701171875 696.87890625 543.681640625 c 4
EndSplineSet
EndChar

StartChar: uni3045
Encoding: 9253 12357 4
Width: 1000
VWidth: 0
HStem: 224.949 64.5068<383.482 529.213>
VStem: 570.36 55.6523<20.6038 183.844>
LayerCount: 2
Fore
SplineSet
368.728515625 493.512695312 m 4
 376.422851562 499.099609375 433.33984375 479.495117188 456 464 c 4
 494.049804688 437.754882812 517.028320312 418.362304688 520.190429688 409.5078125 c 4
 521.455078125 404.870117188 525.565429688 400.759765625 529.254882812 400.021484375 c 4
 532.838867188 398.7578125 540.322265625 392.328125 546.013671875 385.159179688 c 4
 558.345703125 370.087890625 557.186523438 336.885742188 544.116210938 334.567382812 c 4
 533.891601562 332.775390625 515.341796875 344.159179688 508.595703125 357.018554688 c 4
 505.85546875 362.499023438 499.21484375 367.6640625 494.47265625 368.61328125 c 4
 489.73046875 369.561523438 482.03515625 374.935546875 477.607421875 380.206054688 c 4
 472.653320312 385.58203125 462.325195312 391.484375 454.418945312 393.065429688 c 4
 447.041992188 394.541015625 432.49609375 401.286132812 422.798828125 407.610351562 c 4
 413.20703125 414.461914062 402.561523438 418.783203125 399.611328125 417.728515625 c 4
 396.66015625 416.67578125 386.540039062 426.372070312 376.52734375 439.3359375 c 4
 364.40625 455.462890625 360.084960938 466.740234375 362.087890625 476.754882812 c 4
 363.668945312 484.659179688 366.830078125 492.249023438 368.728515625 493.512695312 c 4
465.486328125 289.456054688 m 4
 479.926757812 290.404296875 498.58203125 290.508789062 505.961914062 289.033203125 c 4
 525.038085938 285.765625 566.145507812 261.1015625 567.620117188 252.0390625 c 4
 568.359375 247.504882812 572.99609375 243.2890625 578.266601562 242.234375 c 4
 589.333984375 240.022460938 612.416992188 199.231445312 622.008789062 164.9765625 c 4
 625.380859375 151.694335938 627.594726562 129.876953125 626.012695312 116.491210938 c 4
 624.958984375 103 625.486328125 86.4521484375 627.068359375 80.654296875 c 4
 630.545898438 67.900390625 614.5234375 4.2392578125 606.302734375 -1.2421875 c 4
 602.508789062 -3.771484375 599.2421875 -9.1474609375 598.29296875 -13.890625 c 4
 597.34375 -18.6337890625 587.857421875 -30.439453125 576.580078125 -40.2412109375 c 4
 565.934570312 -49.6220703125 556.02734375 -60.794921875 555.39453125 -63.9560546875 c 4
 554.657226562 -67.6455078125 550.862304688 -70.1748046875 547.173828125 -69.4365234375 c 4
 542.95703125 -68.59375 534.62890625 -71.8603515625 528.200195312 -76.6044921875 c 4
 514.076171875 -86.9345703125 494.893554688 -84.193359375 487.727539062 -70.703125 c 4
 484.986328125 -65.220703125 477.185546875 -57.6318359375 470.86328125 -53.6259765625 c 4
 462.11328125 -48.041015625 460.849609375 -43.40234375 464.1171875 -32.546875 c 4
 473.286132812 -5.8798828125 482.772460938 0.4443359375 503.115234375 -7.4619140625 c 4
 525.56640625 -15.787109375 536.000976562 -7.4599609375 556.658203125 35.5419921875 c 4
 570.362304688 62.947265625 571.415039062 70.9580078125 570.360351562 134.19921875 c 4
 570.151367188 171.51171875 527.146484375 216.833984375 486.77734375 223.262695312 c 4
 472.444335938 225.581054688 453.892578125 226.00390625 445.4609375 224.94921875 c 4
 424.485351562 221.471679688 379.267578125 203.659179688 377.686523438 198.494140625 c 4
 377.264648438 196.385742188 366.092773438 184.370117188 353.12890625 171.616210938 c 4
 340.1640625 158.862304688 328.147460938 142.631835938 326.8828125 136.306640625 c 4
 323.510742188 119.442382812 307.385742188 110.0625 288.938476562 113.750976562 c 4
 268.385742188 117.861328125 266.3828125 132.51171875 279.875 169.82421875 c 4
 291.78515625 201.971679688 308.016601562 220.100585938 353.971679688 252.565429688 c 4
 386.435546875 275.12109375 419.84765625 285.9765625 465.486328125 289.456054688 c 4
EndSplineSet
Validated: 33
EndChar

StartChar: uni3046
Encoding: 9254 12358 5
Width: 1000
VWidth: 0
Flags: H
HStem: 365.7 70.9424<460.806 596.388>
VStem: 467.374 37.7979<-44.7018 18.7508> 666.247 64.5459<97.8018 299.213>
LayerCount: 2
Fore
SplineSet
414.907226562 689.995117188 m 4
 424.967773438 692.942382812 452.2890625 692.037109375 476 689 c 4
 499.681640625 685.381835938 524.553710938 682.28125 530.909179688 681.353515625 c 4
 541.329101562 680.204101562 552.139648438 675.5390625 603.650390625 648.276367188 c 4
 659.130859375 619.05078125 678.379882812 598.203125 671.24609375 574.1328125 c 4
 665.65234375 556.965820312 655.201171875 557.53515625 621.859375 576.237304688 c 4
 564.278320312 609.654296875 500.817382812 620.678710938 422.25390625 610.977539062 c 4
 412.869140625 609.740234375 392.420898438 608.524414062 377.260742188 608.184570312 c 4
 352.19921875 607.80078125 348.778320312 609.153320312 335.853515625 628.491210938 c 4
 322.897460938 647.25 322.506835938 650.765625 330.232421875 664.321289062 c 4
 337.346679688 677.328125 343.923828125 680.46484375 367.919921875 682.653320312 c 4
 384.303710938 684.08984375 405.458984375 687.59765625 414.907226562 689.995117188 c 4
475.357421875 431.05078125 m 4
 477.805664062 433.247070312 499.353515625 433.23828125 523.159179688 431.942382812 c 4
 557.96484375 429.466796875 569.419921875 425.931640625 582.787109375 414.721679688 c 4
 592.278320312 407.217773438 602.4140625 400.841796875 605.317382812 400.68359375 c 4
 616.930664062 400.051757812 686.40625 317.65234375 692.84765625 296.918945312 c 4
 696.3125 285.666992188 702.943359375 268.416992188 707.6328125 258.260742188 c 4
 714.421875 243.915039062 715.829101562 226.951171875 711.981445312 177.659179688 c 4
 707.849609375 123.141601562 704.1875 109.365234375 687.005859375 71.8642578125 c 4
 675.838867188 48.5947265625 654.750976562 14.2197265625 639.223632812 -3.5703125 c 4
 623.665039062 -21.9423828125 611.072265625 -39.310546875 610.915039062 -42.2138671875 c 4
 610.724609375 -45.697265625 608.275390625 -47.892578125 605.953125 -47.7666015625 c 4
 603.05078125 -47.6083984375 597.477539062 -53.7109375 593.58203125 -61.0712890625 c 4
 585.76171875 -76.3681640625 516.946289062 -120.959960938 493.984375 -125.533203125 c 4
 478.69921875 -128.194335938 476.98828125 -127.51953125 440.954101562 -94.111328125 c 4
 425.454101562 -79.291015625 424.458984375 -54.77734375 437.922851562 -10.6689453125 c 4
 447.791015625 20.8232421875 450.8203125 22.9892578125 468.83203125 11.525390625 c 4
 476.159179688 7.05078125 478.776367188 1.666015625 476.043945312 -5.7548828125 c 4
 473.986328125 -11.4677734375 474.80078125 -17.9169921875 478.158203125 -20.4296875 c 4
 481.514648438 -22.94140625 486.846679688 -31.9677734375 489.889648438 -40.2861328125 c 6
 494.841796875 -56.279296875 l 5
 545.815429688 -7.8056640625 l 6
 592.53515625 37.4052734375 605.033203125 53.03125 622.828125 91.080078125 c 4
 642.584960938 133.100585938 645.634765625 146.329101562 648.00390625 189.875976562 c 4
 652.270507812 268.26171875 631.900390625 311.30078125 575.93359375 342.299804688 c 4
 560.0859375 350.733398438 544.7265625 357.392578125 541.791015625 356.970703125 c 4
 538.856445312 356.546875 531.951171875 358.087890625 526.8515625 360.694335938 c 4
 515.5234375 366.552734375 475.409179688 357.087890625 474.935546875 348.377929688 c 4
 474.745117188 344.89453125 471.198242188 343.922851562 467.227539062 345.885742188 c 4
 463.258789062 347.848632812 455.002929688 345.969726562 448.36328125 341.671875 c 4
 442.303710938 337.341796875 432.82421875 334.364257812 427.017578125 334.680664062 c 4
 395.663085938 336.38671875 318.556640625 235.7578125 323.565429688 199.379882812 c 4
 325.192382812 186.479492188 321.974609375 180.831054688 301.411132812 166.80859375 c 4
 275.94921875 148.39453125 260.271484375 149.248046875 261.314453125 168.408203125 c 4
 261.662109375 174.794921875 259.6875 181.30859375 256.87890625 183.208984375 c 4
 254.103515625 185.688476562 252.505859375 199.169921875 253.359375 214.84765625 c 4
 253.979492188 236.943359375 259.963867188 250.59375 282.827148438 285.45703125 c 4
 298.700195312 309.633789062 310.384765625 331.709960938 308.80078125 334.70703125 c 4
 306.635742188 337.737304688 310.921875 341.581054688 317.435546875 343.555664062 c 4
 323.916015625 344.94921875 332.911132812 349.701171875 336.616210938 353.577148438 c 4
 360.461914062 374.408203125 430.311523438 416.61328125 448.626953125 421.44140625 c 4
 460.4296875 424.291015625 472.908203125 428.854492188 475.357421875 431.05078125 c 4
EndSplineSet
EndChar

StartChar: uni3047
Encoding: 9255 12359 6
Width: 1000
VWidth: 0
HStem: -41.1943 75.9902<514.892 651.076> 382.531 79.0303<363.294 555.938>
LayerCount: 2
Fore
SplineSet
425.984375 463.38671875 m 4
 468.5390625 470.681640625 512.309570312 464.602539062 544.53125 446.971679688 c 4
 595.596679688 419.006835938 616.266601562 380.099609375 594.98828125 351.52734375 c 4
 586.477539062 340.583984375 585.262695312 341.19140625 555.473632812 363.685546875 c 4
 522.037109375 389.21875 498.935546875 394.08203125 464.283203125 383.747070312 c 4
 450.909179688 379.4921875 430.240234375 378.884765625 407.74609375 382.53125 c 4
 375.526367188 386.787109375 371.270507812 389.21875 359.719726562 409.888671875 c 6
 346.345703125 432.990234375 l 5
 361.54296875 448.795898438 l 6
 371.270507812 459.130859375 380.388671875 463.38671875 389.508789062 461.561523438 c 4
 396.803710938 460.346679688 413.217773438 460.954101562 425.984375 463.38671875 c 4
452.125 240.276367188 m 4
 474.618164062 251.826171875 483.129882812 253.04296875 501.368164062 248.1796875 c 4
 526.900390625 241.4921875 546.354492188 215.959960938 537.236328125 201.9765625 c 4
 533.587890625 197.112304688 531.15625 184.346679688 531.15625 174.012695312 c 4
 531.15625 163.677734375 523.252929688 140.576171875 514.134765625 122.337890625 c 4
 492.856445312 80.9990234375 492.856445312 68.232421875 515.958007812 56.0732421875 c 4
 526.29296875 51.2099609375 535.411132812 45.130859375 536.01953125 42.091796875 c 4
 537.236328125 39.6591796875 546.354492188 33.580078125 556.689453125 28.1083984375 c 4
 573.103515625 19.59765625 575.53515625 19.59765625 585.262695312 28.7158203125 c 4
 591.341796875 33.580078125 600.459960938 36.6201171875 605.931640625 34.7958984375 c 4
 615.05078125 31.1484375 664.900390625 62.1533203125 695.905273438 90.7255859375 c 4
 724.477539062 116.866210938 782.83984375 115.04296875 771.2890625 88.9013671875 c 4
 766.424804688 77.3505859375 764.600585938 71.271484375 763.384765625 57.8974609375 c 4
 762.77734375 53.6416015625 759.129882812 49.994140625 756.08984375 49.994140625 c 4
 752.44140625 49.994140625 742.108398438 43.3076171875 732.98828125 35.4033203125 c 4
 723.870117188 26.892578125 702.591796875 11.0859375 685.569335938 -0.46484375 c 4
 668.547851562 -12.623046875 646.663085938 -29.0361328125 637.54296875 -37.5478515625 c 4
 615.05078125 -58.216796875 582.221679688 -64.2958984375 559.728515625 -50.921875 c 4
 550.001953125 -45.4501953125 537.84375 -41.1943359375 531.764648438 -41.1943359375 c 4
 526.29296875 -41.1943359375 516.565429688 -37.5478515625 509.87890625 -32.6845703125 c 4
 503.19140625 -28.4287109375 489.209960938 -22.349609375 478.266601562 -20.525390625 c 4
 460.63671875 -16.26953125 455.772460938 -18.7021484375 424.161132812 -49.70703125 c 4
 385.860351562 -88.005859375 368.23046875 -92.26171875 351.817382812 -67.9443359375 c 4
 340.874023438 -50.921875 343.913085938 -20.525390625 358.504882812 -5.9345703125 c 4
 363.368164062 -1.6796875 367.014648438 5.6142578125 367.014648438 9.87109375 c 4
 367.014648438 14.126953125 374.309570312 23.853515625 382.821289062 32.3642578125 c 4
 391.33203125 40.2666015625 405.315429688 60.9375 413.826171875 77.3505859375 c 4
 422.3359375 94.373046875 435.711914062 116.258789062 443.614257812 127.201171875 c 4
 463.067382812 153.341796875 462.459960938 161.853515625 441.791015625 156.3828125 c 4
 412.001953125 149.0859375 388.900390625 135.104492188 355.463867188 104.708007812 c 4
 326.892578125 77.9599609375 321.420898438 75.52734375 309.870117188 81.6064453125 c 4
 274.001953125 100.452148438 280.08203125 127.809570312 332.971679688 179.482421875 c 4
 351.209960938 197.112304688 402.8828125 226.29296875 416.866210938 226.901367188 c 4
 421.120117188 226.901367188 436.926757812 232.98046875 452.125 240.276367188 c 4
EndSplineSet
Validated: 33
EndChar

StartChar: uni3048
Encoding: 9256 12360 7
Width: 1000
VWidth: 0
HStem: 573.375 52.4395<573.099 654.743>
LayerCount: 2
Fore
SplineSet
342.598632812 694.608398438 m 0
 356.131835938 704.758789062 406.317382812 703.06640625 440.712890625 692.352539062 c 0
 450.299804688 688.969726562 462.140625 687.27734375 466.087890625 687.841796875 c 0
 475.109375 689.533203125 486.951171875 685.022460938 531.497070312 664.158203125 c 0
 550.669921875 655.137695312 569.840820312 647.805664062 573.224609375 647.805664062 c 0
 576.608398438 647.805664062 583.938476562 643.859375 589.577148438 638.78515625 c 0
 599.727539062 629.762695312 610.440429688 626.379882812 632.431640625 625.814453125 c 0
 645.400390625 625.250976562 666.264648438 591.418945312 660.0625 580.705078125 c 0
 654.987304688 572.247070312 623.409179688 567.171875 615.515625 573.375 c 0
 611.568359375 576.758789062 599.163085938 580.705078125 587.885742188 582.9609375 c 0
 576.04296875 585.215820312 566.458007812 589.163085938 566.458007812 591.418945312 c 0
 566.458007812 594.23828125 554.051757812 597.62109375 538.828125 599.876953125 c 0
 523.040039062 602.131835938 507.814453125 607.20703125 503.8671875 611.71875 c 0
 499.357421875 616.793945312 494.845703125 617.920898438 487.515625 613.973632812 c 0
 481.3125 610.590820312 470.598632812 610.590820312 458.756835938 613.973632812 c 0
 448.04296875 617.357421875 422.10546875 619.612304688 400.114257812 619.612304688 c 0
 359.515625 620.17578125 347.673828125 624.6875 336.395507812 646.115234375 c 0
 325.681640625 665.287109375 328.501953125 685.022460938 342.598632812 694.608398438 c 0
627.920898438 431.27734375 m 0
 635.250976562 438.044921875 658.93359375 427.89453125 666.828125 414.92578125 c 0
 674.721679688 402.51953125 674.721679688 397.444335938 669.083007812 389.55078125 c 0
 665.701171875 384.475585938 654.423828125 363.612304688 645.400390625 343.313476562 c 0
 635.814453125 323.013671875 615.515625 294.255859375 600.854492188 278.466796875 c 0
 585.629882812 263.2421875 570.404296875 244.634765625 566.458007812 237.3046875 c 0
 563.07421875 229.973632812 542.2109375 198.9609375 520.784179688 168.510742188 c 0
 495.973632812 132.987304688 483.004882812 109.868164062 485.259765625 104.229492188 c 0
 486.951171875 99.154296875 490.334960938 95.20703125 492.58984375 94.6435546875 c 0
 529.805664062 90.1318359375 569.27734375 72.0888671875 622.282226562 36.564453125 c 0
 638.634765625 25.287109375 658.93359375 16.2646484375 667.392578125 16.2646484375 c 0
 687.126953125 16.2646484375 734.493164062 50.09765625 792.008789062 105.920898438 c 0
 816.255859375 129.603515625 841.629882812 139.75390625 848.959960938 128.475585938 c 0
 855.163085938 117.762695312 849.524414062 95.20703125 836.5546875 80.5458984375 c 0
 830.352539062 74.34375 825.840820312 65.8857421875 825.840820312 62.501953125 c 0
 825.840820312 58.5546875 823.5859375 55.736328125 821.331054688 55.736328125 c 0
 816.819335938 55.736328125 787.497070312 29.2333984375 765.505859375 4.423828125 c 0
 748.025390625 -15.3125 740.131835938 -20.3876953125 709.681640625 -36.1767578125 c 0
 665.135742188 -58.7314453125 650.475585938 -59.859375 618.8984375 -43.5068359375 c 0
 604.23828125 -36.1767578125 585.629882812 -22.0791015625 577.736328125 -12.4931640625 c 0
 569.840820312 -2.908203125 559.126953125 4.9873046875 552.924804688 4.9873046875 c 0
 546.721679688 4.9873046875 537.135742188 9.498046875 531.497070312 14.5732421875 c 0
 519.65625 25.287109375 472.854492188 29.2333984375 463.268554688 19.6474609375 c 0
 459.321289062 16.2646484375 446.916015625 8.9345703125 435.638671875 2.7314453125 c 0
 424.361328125 -2.908203125 403.497070312 -19.2587890625 389.96484375 -33.919921875 c 0
 330.193359375 -96.509765625 320.608398438 -105.533203125 305.947265625 -112.862304688 c 0
 288.466796875 -121.884765625 280.572265625 -117.9375 272.114257812 -97.638671875 c 0
 265.912109375 -81.8505859375 265.912109375 -67.7529296875 272.678710938 -62.677734375 c 0
 274.369140625 -60.986328125 282.828125 -49.708984375 291.286132812 -36.740234375 c 0
 299.180664062 -24.333984375 313.840820312 -5.7265625 323.991210938 3.859375 c 0
 333.577148438 14.0087890625 353.3125 37.6923828125 367.409179688 57.427734375 c 0
 382.071289062 76.599609375 395.603515625 92.9521484375 397.858398438 94.080078125 c 0
 400.678710938 95.20703125 408.008789062 105.357421875 414.774414062 116.634765625 c 0
 422.10546875 127.912109375 437.331054688 149.33984375 449.171875 163.435546875 c 0
 461.013671875 178.09765625 470.598632812 191.629882812 470.598632812 193.322265625 c 0
 470.598632812 195.013671875 484.696289062 218.696289062 501.612304688 244.634765625 c 0
 518.528320312 271.137695312 532.625976562 294.255859375 532.625976562 295.947265625 c 0
 532.625976562 298.203125 538.828125 306.661132812 546.721679688 316.247070312 c 0
 554.6171875 325.268554688 560.819335938 337.674804688 560.819335938 343.876953125 c 0
 560.819335938 352.8984375 556.872070312 354.590820312 536.008789062 354.590820312 c 0
 521.912109375 354.590820312 509.505859375 352.334960938 507.814453125 349.515625 c 0
 505.559570312 346.696289062 493.71875 342.75 480.184570312 340.493164062 c 0
 453.681640625 335.982421875 389.96484375 311.736328125 353.3125 292 c 2
 328.501953125 278.466796875 l 1
 317.224609375 292 l 2
 291.286132812 324.140625 339.215820312 376.58203125 403.497070312 386.166992188 c 0
 417.03125 388.423828125 431.126953125 391.805664062 433.947265625 394.0625 c 0
 439.022460938 397.444335938 459.321289062 401.956054688 558 420 c 0
 567.5859375 421.692382812 586.193359375 424.510742188 600.291015625 426.203125 c 0
 614.38671875 427.331054688 626.79296875 430.149414062 627.920898438 431.27734375 c 0
EndSplineSet
Validated: 33
EndChar

StartChar: uni3049
Encoding: 9257 12361 8
Width: 1000
VWidth: 0
HStem: 337.074 58.7451<305.281 385.669>
VStem: 358.157 95.1104<-72.6559 111.828> 392.285 68.2559<411.564 476.138> 399 78.3252<185.844 336.315>
LayerCount: 2
Fore
SplineSet
401.795898438 487.012695312 m 4xa0
 415.22265625 490.9296875 437.603515625 485.893554688 448.231445312 476.3828125 c 4
 453.826171875 471.34765625 458.302734375 454.563476562 460.541015625 431.625 c 4xa0
 462.778320312 410.923828125 466.135742188 391.90234375 468.932617188 387.986328125 c 4
 475.086914062 380.713867188 475.646484375 374.559570312 477.325195312 306.302734375 c 4x90
 477.884765625 277.2109375 476.20703125 242.524414062 473.967773438 229.095703125 c 4
 467.814453125 200.00390625 473.967773438 191.051757812 504.739257812 183.219726562 c 4
 517.047851562 179.862304688 534.950195312 172.030273438 544.461914062 165.875976562 c 4
 554.532226562 160.28125 566.840820312 153.568359375 572.435546875 151.888671875 c 4
 577.470703125 149.651367188 581.946289062 145.734375 581.946289062 142.938476562 c 4
 581.946289062 140.140625 591.45703125 128.391601562 603.20703125 116.642578125 c 4
 640.690429688 78.5986328125 645.166015625 71.884765625 649.642578125 42.232421875 c 4
 656.35546875 0.2724609375 647.405273438 -33.2958984375 622.228515625 -58.47265625 c 4
 600.408203125 -81.41015625 585.862304688 -84.767578125 566.28125 -70.7802734375 c 4
 549.497070312 -59.5908203125 550.616210938 -48.4013671875 570.756835938 -25.462890625 c 4
 580.267578125 -15.392578125 588.100585938 -2.525390625 588.100585938 3.0693359375 c 4
 588.66015625 8.1044921875 589.778320312 19.2939453125 590.337890625 27.6865234375 c 4
 591.45703125 36.6376953125 589.219726562 43.9111328125 584.18359375 45.58984375 c 4
 579.708007812 47.267578125 576.3515625 53.4228515625 576.3515625 59.5771484375 c 4
 576.3515625 75.2412109375 524.3203125 111.047851562 497.465820312 113.28515625 c 4
 462.778320312 116.642578125 453.267578125 102.655273438 453.267578125 46.7080078125 c 4
 452.708007812 -25.462890625 442.637695312 -74.1376953125 428.091796875 -74.1376953125 c 4
 425.293945312 -74.1376953125 418.021484375 -81.41015625 412.985351562 -90.921875 c 4
 404.033203125 -107.146484375 403.474609375 -107.146484375 386.130859375 -98.75390625 c 4
 374.94140625 -93.1591796875 364.311523438 -80.2919921875 355.360351562 -62.3876953125 c 4
 344.170898438 -38.3310546875 342.4921875 -29.37890625 345.290039062 5.8671875 c 4
 346.967773438 27.6865234375 350.325195312 48.3876953125 353.122070312 51.1845703125 c 4
 355.919921875 54.5419921875 358.157226562 63.4921875 358.157226562 71.884765625 c 4xc0
 358.157226562 79.716796875 363.192382812 93.1455078125 369.346679688 100.977539062 c 4
 375.500976562 108.810546875 380.536132812 118.879882812 380.536132812 123.915039062 c 4
 380.536132812 128.951171875 382.774414062 132.8671875 385.01171875 132.8671875 c 4
 398.439453125 132.8671875 401.795898438 163.078125 399 247 c 4x90
 397.3203125 295.11328125 393.963867188 335.396484375 392.28515625 337.07421875 c 4
 390.047851562 338.193359375 371.024414062 335.956054688 349.765625 331.479492188 c 4
 316.198242188 325.326171875 308.923828125 321.96875 294.9375 304.065429688 c 4
 273.677734375 277.2109375 261.928710938 271.616210938 244.024414062 278.329101562 c 4
 234.514648438 281.686523438 227.801757812 290.637695312 223.325195312 306.302734375 c 4
 217.170898438 325.884765625 217.73046875 329.801757812 226.681640625 339.87109375 c 4
 232.276367188 346.026367188 239.549804688 351.060546875 243.465820312 351.060546875 c 4
 247.381835938 351.060546875 257.453125 357.215820312 266.405273438 365.047851562 c 4
 286.544921875 382.391601562 313.958984375 395.819335938 329.625 395.819335938 c 4
 336.337890625 395.819335938 341.373046875 398.056640625 341.373046875 400.293945312 c 4
 341.373046875 403.091796875 352.002929688 407.008789062 365.4296875 410.365234375 c 4
 387.25 414.840820312 388.928710938 416.518554688 387.25 432.184570312 c 4
 385.01171875 459.598632812 391.166015625 484.215820312 401.795898438 487.012695312 c 4xa0
694.399414062 261.545898438 m 4
 699.435546875 264.90234375 706.708007812 262.6640625 715.100585938 254.272460938 c 4
 727.967773438 242.524414062 728.52734375 239.166992188 725.73046875 192.171875 c 4
 721.814453125 125.594726562 709.505859375 114.405273438 673.139648438 142.938476562 c 4
 655.795898438 156.365234375 649.083007812 227.41796875 663.069335938 248.677734375 c 4
 668.104492188 255.951171875 675.377929688 260.986328125 679.293945312 259.8671875 c 4
 683.209960938 258.189453125 689.923828125 259.307617188 694.399414062 261.545898438 c 4
EndSplineSet
Validated: 33
EndChar

StartChar: uni304A
Encoding: 9258 12362 9
Width: 1000
VWidth: 0
Flags: H
HStem: 405.004 67.4541<123.389 244.105>
VStem: 390.123 63.9648<281.147 458.77> 697.736 76.1758<427.635 499.427> 802.987 3.48926<379.64 400.603>
LayerCount: 2
Fore
SplineSet
390.012695312 701.008789062 m 4
 397.573242188 710.893554688 407.458007812 716.126953125 417.924804688 716.126953125 c 4
 433.625976562 716.126953125 434.20703125 714.963867188 447 651 c 4
 465.026367188 560.286132812 464.444335938 563.194335938 474.330078125 571.333984375 c 4
 484.797851562 580.057617188 528.990234375 574.82421875 535.387695312 563.775390625 c 4
 538.875976562 558.541992188 531.317382812 547.493164062 510.3828125 528.885742188 c 4
 482.470703125 502.717773438 481.307617188 500.392578125 484.797851562 478.294921875 c 4
 486.541992188 465.501953125 485.959960938 453.872070312 483.634765625 452.126953125 c 4
 480.7265625 450.3828125 479.563476562 436.427734375 480.145507812 421.30859375 c 4
 481.307617188 406.188476562 482.470703125 371.298828125 482.470703125 344.55078125 c 6
 483.634765625 296.286132812 l 5
 507.475585938 300.938476562 l 6
 552.25 309.078125 607.493164062 303.263671875 633.080078125 286.982421875 c 4
 681.924804688 255.581054688 719.72265625 200.337890625 723.2109375 152.07421875 c 4
 725.538085938 123.581054688 717.977539062 75.3173828125 708.092773438 54.9638671875 c 4
 704.603515625 47.986328125 701.696289062 37.51953125 701.114257812 31.123046875 c 4
 700.532226562 16.00390625 633.661132812 -92.736328125 622.612304688 -96.8056640625 c 4
 617.37890625 -98.5517578125 607.493164062 -105.529296875 601.096679688 -111.92578125 c 4
 582.489257812 -129.952148438 545.853515625 -128.208007812 536.55078125 -109.017578125 c 4
 525.501953125 -86.921875 533.061523438 -68.8935546875 552.833007812 -68.8935546875 c 4
 584.233398438 -68.8935546875 619.704101562 -18.8857421875 641.801757812 56.126953125 c 4
 647.616210938 75.3173828125 654.012695312 96.25 656.920898438 102.646484375 c 4
 668.55078125 133.466796875 646.454101562 216.0390625 626.681640625 216.0390625 c 4
 623.775390625 216.0390625 614.470703125 221.272460938 606.330078125 227.668945312 c 4
 595.282226562 235.810546875 585.395507812 238.135742188 565.043945312 236.973632812 c 4
 502.2421875 231.740234375 478.982421875 209.061523438 451.0703125 122.41796875 c 4
 439.440429688 87.5283203125 420.833007812 42.7529296875 409.784179688 22.400390625 c 4
 398.736328125 2.0478515625 389.431640625 -20.048828125 389.431640625 -27.0263671875 c 4
 389.431640625 -35.75 385.943359375 -39.8193359375 378.3828125 -39.8193359375 c 4
 371.986328125 -39.8193359375 365.008789062 -45.052734375 363.264648438 -51.44921875 c 4
 360.356445312 -60.75390625 354.541992188 -63.0791015625 337.096679688 -63.0791015625 c 4
 316.744140625 -63.0791015625 313.836914062 -61.3349609375 310.34765625 -46.7978515625 c 4
 308.021484375 -38.0751953125 304.532226562 -29.9345703125 302.788085938 -28.189453125 c 4
 300.462890625 -26.4453125 296.391601562 -18.8857421875 292.90234375 -10.744140625 c 4
 284.76171875 7.2822265625 298.717773438 59.6162109375 324.885742188 111.370117188 c 4
 334.771484375 130.55859375 341.16796875 146.259765625 339.421875 146.259765625 c 4
 338.259765625 146.259765625 343.493164062 153.237304688 351.634765625 161.959960938 c 4
 359.775390625 170.682617188 366.171875 180.568359375 366.171875 184.057617188 c 4
 366.171875 187.545898438 377.801757812 201.501953125 392.33984375 215.458007812 c 4
 421.4140625 243.951171875 420.833007812 239.879882812 418.505859375 361.413085938 c 4
 417.924804688 410.259765625 410.366210938 470.153320312 404.55078125 475.967773438 c 4
 403.969726562 477.131835938 394.083984375 474.224609375 383.03515625 469.572265625 c 4
 371.986328125 464.920898438 333.026367188 455.616210938 296.391601562 448.638671875 c 4
 259.7578125 441.66015625 221.959960938 431.194335938 212.07421875 425.959960938 c 4
 198.119140625 418.400390625 189.395507812 417.818359375 167.298828125 421.889648438 c 4
 136.479492188 427.704101562 129.501953125 438.171875 141.713867188 457.360351562 c 4
 150.435546875 470.736328125 181.255859375 489.34375 194.047851562 489.34375 c 4
 197.538085938 489.34375 207.421875 493.413085938 216.7265625 498.065429688 c 4
 225.450195312 502.135742188 246.3828125 507.370117188 263.24609375 508.532226562 c 4
 279.528320312 510.276367188 300.462890625 513.766601562 308.603515625 517.255859375 c 4
 317.326171875 520.744140625 325.466796875 522.489257812 327.2109375 520.744140625 c 4
 328.374023438 519 345.237304688 523.0703125 363.845703125 529.466796875 c 4
 403.387695312 542.840820312 406.875976562 549.237304688 392.920898438 595.756835938 c 4
 377.801757812 648.673828125 376.638671875 684.145507812 390.012695312 701.008789062 c 4
733.677734375 516.673828125 m 4
 737.16796875 520.744140625 749.37890625 523.0703125 762.171875 521.90625 c 4
 786.59375 519.581054688 801.713867188 506.788085938 802.294921875 487.598632812 c 4
 802.294921875 474.224609375 811.599609375 456.779296875 826.717773438 441.66015625 c 4
 834.278320312 434.100585938 837.184570312 425.959960938 834.859375 417.818359375 c 4
 833.114257812 410.840820312 831.370117188 400.955078125 831.370117188 396.303710938 c 4
 831.370117188 391.65234375 829.043945312 384.091796875 826.135742188 380.022460938 c 4
 819.740234375 369.5546875 784.849609375 387 751.704101562 418.400390625 c 4
 731.93359375 435.844726562 726.700195312 445.73046875 726.119140625 460.850585938 c 4
 724.956054688 492.25 727.282226562 509.114257812 733.677734375 516.673828125 c 4
EndSplineSet
EndChar

StartChar: uni304B
Encoding: 9259 12363 10
Width: 1000
VWidth: 0
Flags: H
VStem: 348.898 51.9824<169.952 353.868> 371.807 63.4355<471.807 523.736> 466.96 7.04883<40.5283 50.6611> 506.167 40.0889<184.561 407.573>
LayerCount: 2
Fore
SplineSet
312.612304688 663.62109375 m 4x70
 324.916015625 677.220703125 331.391601562 679.810546875 345.638671875 675.92578125 c 4
 374.780273438 668.802734375 380.608398438 660.3828125 378.017578125 624.766601562 c 6x70
 376.075195312 591.741210938 l 5
 401.977539062 591.091796875 l 6
 462.202148438 590.444335938 463.497070312 589.796875 503 549 c 4
 527.608398438 523.744140625 541.20703125 504.317382812 541.20703125 494.602539062 c 4
 541.20703125 486.184570312 543.796875 477.766601562 546.38671875 475.823242188 c 4
 553.51171875 471.291015625 566.462890625 412.360351562 569.700195312 368.326171875 c 4
 572.291015625 334.651367188 559.987304688 260.828125 547.03515625 227.153320312 c 4
 543.796875 218.735351562 541.20703125 207.079101562 541.20703125 200.602539062 c 4
 541.20703125 183.766601562 480.981445312 49.0712890625 464.145507812 27.7001953125 c 4
 457.021484375 17.9873046875 450.544921875 6.9775390625 450.544921875 2.4443359375 c 4
 450.544921875 -2.087890625 446.013671875 -9.2119140625 440.83203125 -13.744140625 c 4
 435.651367188 -18.27734375 433.061523438 -24.1064453125 435.00390625 -27.3427734375 c 4
 436.946289062 -30.58203125 435.00390625 -33.171875 431.766601562 -33.171875 c 4
 427.880859375 -33.171875 424.642578125 -37.0576171875 424.642578125 -42.23828125 c 4
 424.642578125 -54.5419921875 381.903320312 -91.453125 367.655273438 -91.453125 c 4
 354.056640625 -90.8056640625 332.0390625 -73.322265625 321.677734375 -53.24609375 c 4
 313.259765625 -38.3525390625 296.421875 -37.0576171875 268.577148438 -48.7138671875 c 4
 252.38671875 -55.8369140625 225.188476562 -22.8115234375 220.655273438 8.919921875 c 4
 214.1796875 58.13671875 215.475585938 92.4580078125 229.72265625 202.546875 c 4
 234.255859375 234.278320312 238.788085938 262.770507812 240.083984375 264.712890625 c 4
 241.37890625 267.3046875 244.616210938 293.854492188 246.559570312 323.643554688 c 4
 248.501953125 353.431640625 250.444335938 382.573242188 251.091796875 387.75390625 c 4xb0
 252.38671875 405.884765625 249.796875 420.1328125 245.263671875 420.1328125 c 4
 242.026367188 420.1328125 228.427734375 409.770507812 214.1796875 397.466796875 c 4
 199.93359375 385.163085938 186.333984375 374.802734375 183.744140625 374.802734375 c 4
 180.505859375 374.802734375 178.563476562 371.563476562 178.563476562 367.030273438 c 4
 178.563476562 358.612304688 148.774414062 313.282226562 131.938476562 295.796875 c 4
 118.987304688 282.845703125 117.690429688 264.712890625 126.110351562 234.278320312 c 4
 129.34765625 223.268554688 130.642578125 212.259765625 128.700195312 210.317382812 c 4
 124.166992188 205.784179688 79.4833984375 229.09765625 69.123046875 241.401367188 c 4
 58.1142578125 254.352539062 65.2373046875 304.216796875 81.427734375 335.946289062 c 4
 101.501953125 373.505859375 180.505859375 463.51953125 228.427734375 501.7265625 c 4
 278.938476562 543.819335938 281.528320312 547.057617188 284.766601562 580.083984375 c 4
 289.298828125 625.4140625 296.421875 646.13671875 312.612304688 663.62109375 c 4x70
448.603515625 501.079101562 m 4
 420.7578125 520.505859375 365.712890625 508.202148438 354.704101562 479.708984375 c 4
 339.163085938 439.559570312 327.505859375 390.34375 327.505859375 361.850585938 c 4xb0
 327.505859375 345.661132812 324.916015625 329.470703125 321.677734375 326.233398438 c 4
 314.5546875 318.462890625 301.603515625 230.391601562 301.603515625 187.651367188 c 4
 301.603515625 170.815429688 300.30859375 155.272460938 298.366210938 153.330078125 c 4
 289.946289062 144.912109375 290.59375 53.6025390625 299.013671875 37.4140625 c 4
 303.544921875 27.7001953125 306.13671875 18.634765625 304.194335938 16.6923828125 c 4
 302.25 14.748046875 302.25 9.5673828125 304.841796875 5.6826171875 c 4
 308.079101562 0.501953125 314.5546875 3.7412109375 324.268554688 16.04296875 c 6
 339.163085938 34.8232421875 l 5
 346.286132812 16.6923828125 l 6
 360.532226562 -20.2197265625 375.427734375 -2.087890625 431.118164062 116.41796875 c 4
 462.202148438 183.119140625 484.220703125 253.057617188 482.276367188 276.370117188 c 4
 480.981445312 286.083984375 482.276367188 297.741210938 484.868164062 301.625 c 4
 491.34375 311.987304688 491.991210938 390.34375 486.163085938 424.017578125 c 4
 480.333984375 458.987304688 465.440429688 489.423828125 448.603515625 501.079101562 c 4
731.59375 564.541015625 m 0
 741.30859375 565.8359375 752.96484375 558.065429688 772.391601562 537.34375 c 0
 787.286132812 521.153320312 799.58984375 504.96484375 800.237304688 501.7265625 c 0
 800.237304688 499.13671875 809.3046875 484.889648438 820.959960938 470.643554688 c 0
 852.690429688 429.845703125 868.880859375 407.180664062 891.544921875 368.326171875 c 0
 903.202148438 348.899414062 914.2109375 331.4140625 916.153320312 329.470703125 c 0
 918.09765625 327.528320312 920.686523438 317.815429688 921.333984375 306.806640625 c 0
 921.981445312 296.444335938 923.276367188 278.9609375 923.92578125 267.952148438 c 0
 924.573242188 257.58984375 929.104492188 240.104492188 934.286132812 230.391601562 c 0
 943.352539062 212.259765625 941.409179688 199.956054688 929.104492188 199.956054688 c 0
 925.220703125 199.956054688 918.09765625 195.423828125 912.916015625 190.2421875 c 0
 898.669921875 175.995117188 894.13671875 177.938476562 868.233398438 207.7265625 c 0
 852.04296875 227.153320312 846.21484375 239.458007812 848.159179688 249.171875 c 0
 850.1015625 256.942382812 847.51171875 271.8359375 842.330078125 281.55078125 c 0
 837.149414062 291.912109375 832.616210938 303.567382812 832.616210938 307.454101562 c 0
 832.616210938 311.33984375 826.788085938 319.7578125 819.665039062 326.233398438 c 0
 812.541015625 332.708984375 806.712890625 343.071289062 806.712890625 350.194335938 c 0
 806.712890625 356.669921875 804.123046875 361.850585938 800.237304688 361.850585938 c 0
 797 361.850585938 793.76171875 368.973632812 793.76171875 376.744140625 c 0
 793.76171875 385.810546875 788.581054688 394.876953125 780.810546875 398.114257812 c 0
 774.333984375 401.352539062 754.259765625 422.075195312 736.126953125 444.091796875 c 0
 687.559570312 504.96484375 685.616210938 556.123046875 731.59375 564.541015625 c 0
EndSplineSet
EndChar

StartChar: uni304C
Encoding: 9260 12364 11
Width: 1000
VWidth: 0
Flags: H
HStem: -17.9629 74.4492<273.582 325.534>
VStem: 89.6127 57.2685<209.221 280.058> 181.242 54.9783<-3.41824 187.3> 291.771 62.4229<436.842 541.882> 656.573 74.4492<311.158 461.859> 955.515 55.5508<357.83 497.374 497.539 513.472>
LayerCount: 2
Fore
SplineSet
304.612304688 662.62109375 m 4x70
 316.916015625 676.220703125 323.391601562 678.810546875 337.638671875 674.92578125 c 4
 366.780273438 667.802734375 372.608398438 659.3828125 370.017578125 623.766601562 c 6x70
 368.075195312 590.741210938 l 5
 393.977539062 590.091796875 l 6
 454.202148438 589.444335938 455.497070312 588.796875 495 548 c 4
 519.608398438 522.744140625 533.20703125 503.317382812 533.20703125 493.602539062 c 4
 533.20703125 485.184570312 535.796875 476.766601562 538.38671875 474.823242188 c 4
 545.51171875 470.291015625 558.462890625 411.360351562 561.700195312 367.326171875 c 4
 564.291015625 333.651367188 551.987304688 259.828125 539.03515625 226.153320312 c 4
 535.796875 217.735351562 533.20703125 206.079101562 533.20703125 199.602539062 c 4
 533.20703125 182.766601562 472.981445312 48.0712890625 456.145507812 26.7001953125 c 4
 449.021484375 16.9873046875 442.544921875 5.9775390625 442.544921875 1.4443359375 c 4
 442.544921875 -3.087890625 438.013671875 -10.2119140625 432.83203125 -14.744140625 c 4
 427.651367188 -19.27734375 425.061523438 -25.1064453125 427.00390625 -28.3427734375 c 4
 428.946289062 -31.58203125 427.00390625 -34.171875 423.766601562 -34.171875 c 4
 419.880859375 -34.171875 416.642578125 -38.0576171875 416.642578125 -43.23828125 c 4
 416.642578125 -55.5419921875 373.903320312 -92.453125 359.655273438 -92.453125 c 4
 346.056640625 -91.8056640625 324.0390625 -74.322265625 313.677734375 -54.24609375 c 4
 305.259765625 -39.3525390625 288.421875 -38.0576171875 260.577148438 -49.7138671875 c 4
 244.38671875 -56.8369140625 217.188476562 -23.8115234375 212.655273438 7.919921875 c 4
 206.1796875 57.13671875 207.475585938 91.4580078125 221.72265625 201.546875 c 4
 226.255859375 233.278320312 230.788085938 261.770507812 232.083984375 263.712890625 c 4
 233.37890625 266.3046875 236.616210938 292.854492188 238.559570312 322.643554688 c 4
 240.501953125 352.431640625 242.444335938 381.573242188 243.091796875 386.75390625 c 4xb0
 244.38671875 404.884765625 241.796875 419.1328125 237.263671875 419.1328125 c 4
 234.026367188 419.1328125 220.427734375 408.770507812 206.1796875 396.466796875 c 4
 191.93359375 384.163085938 178.333984375 373.802734375 175.744140625 373.802734375 c 4
 172.505859375 373.802734375 170.563476562 370.563476562 170.563476562 366.030273438 c 4
 170.563476562 357.612304688 140.774414062 312.282226562 123.938476562 294.796875 c 4
 110.987304688 281.845703125 109.690429688 263.712890625 118.110351562 233.278320312 c 4
 121.34765625 222.268554688 122.642578125 211.259765625 120.700195312 209.317382812 c 4
 116.166992188 204.784179688 71.4833984375 228.09765625 61.123046875 240.401367188 c 4
 50.1142578125 253.352539062 57.2373046875 303.216796875 73.427734375 334.946289062 c 4
 93.501953125 372.505859375 172.505859375 462.51953125 220.427734375 500.7265625 c 4
 270.938476562 542.819335938 273.528320312 546.057617188 276.766601562 579.083984375 c 4
 281.298828125 624.4140625 288.421875 645.13671875 304.612304688 662.62109375 c 4x70
440.603515625 500.079101562 m 4
 412.7578125 519.505859375 357.712890625 507.202148438 346.704101562 478.708984375 c 4
 331.163085938 438.559570312 319.505859375 389.34375 319.505859375 360.850585938 c 4xb0
 319.505859375 344.661132812 316.916015625 328.470703125 313.677734375 325.233398438 c 4
 306.5546875 317.462890625 293.603515625 229.391601562 293.603515625 186.651367188 c 4
 293.603515625 169.815429688 292.30859375 154.272460938 290.366210938 152.330078125 c 4
 281.946289062 143.912109375 282.59375 52.6025390625 291.013671875 36.4140625 c 4
 295.544921875 26.7001953125 298.13671875 17.634765625 296.194335938 15.6923828125 c 4
 294.25 13.748046875 294.25 8.5673828125 296.841796875 4.6826171875 c 4
 300.079101562 -0.498046875 306.5546875 2.7412109375 316.268554688 15.04296875 c 6
 331.163085938 33.8232421875 l 5
 338.286132812 15.6923828125 l 6
 352.532226562 -21.2197265625 367.427734375 -3.087890625 423.118164062 115.41796875 c 4
 454.202148438 182.119140625 476.220703125 252.057617188 474.276367188 275.370117188 c 4
 472.981445312 285.083984375 474.276367188 296.741210938 476.868164062 300.625 c 4
 483.34375 310.987304688 483.991210938 389.34375 478.163085938 423.017578125 c 4
 472.333984375 457.987304688 457.440429688 488.423828125 440.603515625 500.079101562 c 4
881.598632812 636.202148438 m 4
 886.752929688 647.083007812 921.686523438 649.947265625 927.986328125 640.2109375 c 4
 933.140625 631.620117188 935.431640625 513.07421875 930.27734375 499.330078125 c 4
 927.986328125 492.458007812 921.686523438 485.5859375 915.959960938 483.294921875 c 4
 901.069335938 477.567382812 875.298828125 491.3125 874.7265625 505.056640625 c 4
 874.7265625 511.928710938 871.862304688 529.109375 869 544 c 4
 863.272460938 572.633789062 864.41796875 601.840820312 871.862304688 613.294921875 c 4
 874.154296875 617.303710938 876.444335938 621.3125 877.016601562 623.030273438 c 4
 877.016601562 624.748046875 879.30859375 630.474609375 881.598632812 636.202148438 c 4
745.255859375 609.135742188 m 4
 754.990234375 614.290039062 763.008789062 618.872070312 763.581054688 618.872070312 c 4
 764.154296875 619.444335938 771.025390625 617.154296875 778.471679688 614.290039062 c 4
 789.352539062 609.708984375 794.505859375 601.119140625 802.524414062 569.620117188 c 4
 808.250976562 548.430664062 817.987304688 519.223632812 824.286132812 504.907226562 c 4
 830.013671875 490.58984375 835.740234375 475.126953125 837.458007812 470.545898438 c 4
 838.602539062 465.96484375 842.040039062 451.07421875 846.048828125 437.903320312 c 4
 851.775390625 416.140625 851.202148438 412.704101562 838.602539062 398.959960938 c 4
 826.577148438 386.361328125 823.141601562 385.21484375 807.678710938 390.369140625 c 4
 793.93359375 394.951171875 788.779296875 401.823242188 782.479492188 423.584960938 c 4
 778.471679688 438.475585938 767.590820312 464.819335938 759 482 c 4
 720.62890625 558.739257812 717.194335938 592.528320312 745.255859375 609.135742188 c 4
607.104492188 590.890625 m 4
 620.27734375 604.634765625 654.638671875 604.634765625 662.083007812 591.462890625 c 4
 671.819335938 573.709960938 690.14453125 529.040039062 690.14453125 522.741210938 c 4
 690.14453125 519.876953125 692.435546875 512.432617188 695.298828125 506.706054688 c 4
 703.31640625 490.09765625 713.625 459.171875 727.370117188 405.33984375 c 4
 734.814453125 377.278320312 744.55078125 343.489257812 749.130859375 330.890625 c 4
 753.712890625 318.291992188 756.00390625 304.546875 754.859375 300.537109375 c 4
 753.140625 296.529296875 756.00390625 281.639648438 761.158203125 266.749023438 c 4
 766.3125 251.860351562 770.321289062 224.943359375 770.321289062 206.044921875 c 4
 770.321289062 177.983398438 768.030273438 170.537109375 757.721679688 161.375 c 4
 750.27734375 155.6484375 739.396484375 151.06640625 733.096679688 151.06640625 c 4
 710.76171875 151.06640625 703.888671875 163.092773438 699.880859375 208.334960938 c 4
 697.58984375 231.815429688 690.717773438 267.895507812 684.41796875 288.51171875 c 4
 678.118164062 308.555664062 672.963867188 330.890625 672.963867188 337.762695312 c 4
 672.963867188 344.634765625 670.673828125 351.506835938 667.237304688 353.797851562 c 4
 664.375 355.515625 663.228515625 360.669921875 665.51953125 365.251953125 c 4
 667.237304688 370.40625 666.092773438 377.278320312 662.655273438 381.287109375 c 4
 659.220703125 385.294921875 653.493164062 401.331054688 649.484375 416.793945312 c 4
 646.047851562 432.829101562 636.885742188 458.026367188 629.439453125 472.916992188 c 4
 621.995117188 488.379882812 615.6953125 503.841796875 615.6953125 507.278320312 c 4
 615.6953125 510.71484375 611.686523438 517.586914062 607.104492188 523.313476562 c 4
 593.361328125 537.629882812 593.93359375 577.145507812 607.104492188 590.890625 c 4
EndSplineSet
EndChar

StartChar: uni304D
Encoding: 9261 12365 12
Width: 1000
VWidth: 0
Flags: H
HStem: -22.4668 31.7178<461.319 515.956> 2.64355 66.0791<305.549 370.108> 288.105 50.2207<317.623 477.41> 290.309 55.5068<319.944 493.815> 341.851 30.8369<591.962 621.586> 447.577 47.5771<265.41 472.366>
VStem: 487.667 50.6611<506.135 583.348> 496.477 51.9824<125.663 232.093 360.417 442.121>
LayerCount: 2
Fore
SplineSet
565.98046875 742.299804688 m 4x16
 577.932617188 754.881835938 601.836914062 755.510742188 616.305664062 742.299804688 c 4
 622.596679688 736.638671875 626.372070312 701.411132812 627 646.681640625 c 4
 627 621.518554688 630.145507812 608.30859375 637.064453125 602.645507812 c 4
 683.6171875 566.159179688 705.004882812 532.189453125 677.326171875 539.739257812 c 4
 659.711914062 544.141601562 653.421875 527.157226562 650.905273438 472.427734375 c 4
 649.017578125 432.166992188 649.646484375 425.24609375 659.083007812 423.359375 c 4
 665.373046875 422.102539062 676.697265625 425.875976562 684.24609375 430.908203125 c 4
 691.794921875 436.5703125 708.780273438 440.974609375 721.990234375 440.974609375 c 4
 745.266601562 440.974609375 745.895507812 440.344726562 745.895507812 418.955078125 c 4
 745.895507812 407.00390625 742.749023438 396.939453125 738.975585938 396.939453125 c 4x0e
 735.200195312 396.939453125 723.249023438 390.018554688 711.923828125 381.211914062 c 4
 700.602539062 372.404296875 687.391601562 365.485351562 681.73046875 365.485351562 c 4
 659.711914062 365.485351562 652.791992188 350.38671875 648.387695312 296.286132812 c 4
 645.873046875 266.720703125 641.46875 239.040039062 637.6953125 235.266601562 c 4
 633.291015625 229.604492188 633.291015625 224.572265625 638.323242188 218.91015625 c 4
 642.09765625 213.876953125 643.35546875 208.844726562 641.46875 206.958007812 c 4
 639.58203125 205.071289062 636.435546875 188.0859375 635.177734375 169.842773438 c 4
 630.7734375 123.291015625 622.596679688 100.64453125 604.353515625 80.513671875 c 4
 586.109375 61.6416015625 580.448242188 59.75390625 571.641601562 71.70703125 c 4
 559.689453125 86.17578125 558.431640625 108.822265625 567.237304688 133.985351562 c 4
 572.899414062 150.970703125 576.045898438 186.827148438 576.045898438 242.815429688 c 4
 576.045898438 349.12890625 577.932617188 347.241210938 494.264648438 330.256835938 c 4
 485.458007812 328.370117188 440.794921875 325.223632812 394.87109375 323.336914062 c 6x15
 311.833007812 320.190429688 l 5
 302.3984375 342.208984375 l 6
 291.704101562 368.000976562 294.848632812 381.83984375 314.349609375 391.90625 c 4x25
 329.448242188 400.083984375 469.731445312 408.26171875 503.701171875 402.600585938 c 4
 519.427734375 400.083984375 527.607421875 401.340820312 530.122070312 407.00390625 c 4
 531.380859375 411.407226562 536.413085938 413.922851562 540.1875 412.036132812 c 4
 559.059570312 405.745117188 565.98046875 420.842773438 565.350585938 471.169921875 c 4
 564.72265625 524.640625 557.172851562 546.658203125 539.55859375 547.287109375 c 4
 533.896484375 547.916992188 518.798828125 547.916992188 506.845703125 547.916992188 c 4
 494.895507812 547.916992188 479.16796875 547.916992188 472.248046875 548.544921875 c 4
 456.520507812 549.174804688 442.052734375 548.544921875 409.340820312 545.400390625 c 4
 395.500976562 544.141601562 362.788085938 540.997070312 336.99609375 538.48046875 c 4
 311.205078125 536.59375 280.379882812 533.448242188 269.055664062 532.189453125 c 4
 257.732421875 531.559570312 243.264648438 531.559570312 236.973632812 533.448242188 c 4
 224.391601562 536.59375 202.374023438 576.854492188 208.036132812 585.661132812 c 4
 209.923828125 588.807617188 224.391601562 596.984375 239.490234375 603.904296875 c 4
 263.39453125 614.598632812 281.008789062 616.485351562 354.610351562 615.857421875 c 4
 489.232421875 614.598632812 523.83203125 616.485351562 533.268554688 625.291992188 c 4
 537.670898438 630.325195312 544.591796875 632.841796875 548.365234375 631.58203125 c 4
 552.140625 630.325195312 554.65625 647.309570312 554.65625 679.393554688 c 4
 554.02734375 719.654296875 556.543945312 731.607421875 565.98046875 742.299804688 c 4x16
302.3984375 -2.5244140625 m 4
 309.318359375 2.5087890625 324.415039062 6.912109375 335.739257812 6.912109375 c 4x44
 352.094726562 6.912109375 362.788085938 0.6220703125 387.951171875 -24.541015625 c 4
 431.986328125 -68.5771484375 462.810546875 -83.0458984375 515.654296875 -84.9326171875 c 4
 545.221679688 -86.19140625 563.463867188 -83.6748046875 572.271484375 -78.013671875 c 4
 599.321289062 -58.51171875 612.53125 -100.029296875 587.368164062 -123.305664062 c 4x84
 554.65625 -152.873046875 524.459960938 -157.27734375 459.666992188 -140.291992188 c 4
 438.908203125 -135.258789062 415.002929688 -128.96875 406.823242188 -127.08203125 c 4
 398.017578125 -125.192382812 379.7734375 -115.12890625 364.676757812 -105.69140625 c 4
 350.20703125 -95.6279296875 334.481445312 -87.4482421875 330.077148438 -87.4482421875 c 4x44
 325.043945312 -86.8193359375 314.98046875 -81.787109375 306.80078125 -74.8671875 c 4
 287.299804688 -58.51171875 284.784179688 -16.3642578125 302.3984375 -2.5244140625 c 4
EndSplineSet
EndChar

StartChar: uni304E
Encoding: 9262 12366 13
Width: 1000
VWidth: 0
Flags: H
HStem: 310.004 66.7252<297.669 521.169> 328.412 42.5662<607.043 641.172> 464.739 71.3274<246.641 322.044> 471.066 78.2298<256.488 488.373>
VStem: 488.958 67.8755<549.783 668.213> 521.169 63.2748<376.731 478.696> 525.197 56.371<144.454 310.877> 702.941 68.4519<420.901 604.912> 709.842 88.009<414.011 523.182> 709.842 52.3453<544.809 604.912> 851.922 71.9025<444.966 606.38>
LayerCount: 2
Fore
SplineSet
513.1171875 668.368164062 m 0x1820
 517.14453125 669.518554688 527.497070312 669.518554688 536.125976562 668.368164062 c 0
 551.65625 666.06640625 552.232421875 664.916015625 552.232421875 633.279296875 c 0
 552.232421875 615.447265625 553.958007812 587.26171875 556.833984375 570.004882812 c 0x1820
 561.435546875 539.518554688 562.010742188 538.943359375 587.896484375 530.889648438 c 0
 602.276367188 526.287109375 617.232421875 517.083984375 621.833984375 510.181640625 c 0
 628.736328125 499.252929688 627.010742188 496.375976562 608.603515625 480.270507812 c 0
 588.471679688 463.013671875 587.896484375 461.287109375 586.169921875 416.99609375 c 2
 584.444335938 370.977539062 l 1x5420
 609.75390625 370.977539062 l 2
 627.5859375 370.977539062 636.790039062 368.102539062 641.391601562 361.200195312 c 0
 649.444335938 348.543945312 640.240234375 331.86328125 624.134765625 328.412109375 c 0
 618.3828125 327.26171875 610.329101562 324.384765625 606.87890625 321.508789062 c 0
 600.55078125 316.33203125 591.921875 254.784179688 592.497070312 220.270507812 c 0
 593.072265625 209.916015625 590.197265625 200.13671875 587.3203125 198.412109375 c 0
 583.869140625 196.686523438 581.567382812 189.784179688 581.567382812 184.03125 c 0
 581.567382812 167.924804688 552.232421875 136.287109375 541.303710938 140.889648438 c 0
 527.497070312 146.06640625 517.14453125 173.102539062 525.197265625 182.3046875 c 0x5220
 534.975585938 194.384765625 538.426757812 272.616210938 529.798828125 293.323242188 c 2
 522.3203125 311.155273438 l 1
 417.055664062 308.854492188 l 2
 359.533203125 307.703125 309.48828125 308.279296875 306.612304688 310.004882812 c 0
 303.736328125 311.73046875 299.709960938 321.508789062 297.408203125 330.711914062 c 0
 294.533203125 345.09375 296.258789062 350.845703125 308.913085938 362.349609375 c 0
 323.293945312 376.73046875 325.594726562 376.73046875 422.232421875 376.73046875 c 2
 521.169921875 376.73046875 l 1
 520.01953125 391.111328125 l 2
 519.444335938 399.1640625 517.719726562 414.6953125 515.993164062 425.623046875 c 0
 514.842773438 436.552734375 513.1171875 452.659179688 513.1171875 460.711914062 c 0
 512.541992188 473.943359375 509.665039062 476.243164062 488.3828125 480.270507812 c 0
 457.3203125 485.447265625 395.197265625 484.295898438 368.736328125 477.393554688 c 0
 357.807617188 474.518554688 337.099609375 471.641601562 322.719726562 471.06640625 c 0x9420
 308.337890625 470.491210938 292.232421875 467.616210938 287.055664062 464.739257812 c 0
 273.249023438 457.836914062 260.01953125 464.739257812 250.240234375 483.720703125 c 0
 238.736328125 506.155273438 246.790039062 519.384765625 281.303710938 536.06640625 c 0x2420
 306.038085938 548.145507812 316.391601562 549.295898438 398.6484375 549.295898438 c 2
 488.958007812 549.295898438 l 1
 486.65625 578.057617188 l 2
 485.505859375 593.588867188 487.232421875 609.6953125 490.108398438 613.720703125 c 0
 493.560546875 617.748046875 494.709960938 623.5 492.408203125 626.375976562 c 0
 488.3828125 633.854492188 503.913085938 665.491210938 513.1171875 668.368164062 c 0x1820
729.975585938 605.66796875 m 0
 735.728515625 606.818359375 742.630859375 606.818359375 746.65625 605.09375 c 0
 756.435546875 601.641601562 765.639648438 571.155273438 762.1875 552.748046875 c 0x0060
 759.887695312 543.543945312 761.612304688 534.340820312 765.064453125 532.616210938 c 0
 768.515625 530.314453125 771.391601562 517.083984375 771.391601562 502.703125 c 0x0120
 771.391601562 481.99609375 774.267578125 474.518554688 786.921875 463.588867188 c 0
 799.001953125 453.234375 801.303710938 447.482421875 797.8515625 434.827148438 c 0
 791.524414062 410.09375 748.3828125 399.1640625 732.8515625 418.720703125 c 0
 724.223632812 429.650390625 713.293945312 452.083984375 709.842773438 465.889648438 c 0x00a0
 703.515625 494.650390625 699.48828125 541.243164062 702.940429688 544.6953125 c 0x0120
 705.240234375 546.99609375 708.692382812 557.349609375 709.842773438 566.552734375 c 0x0060
 714.444335938 592.438476562 719.622070312 602.791992188 729.975585938 605.66796875 c 0
865.15234375 590.711914062 m 0
 874.930664062 605.09375 881.833984375 609.6953125 895.064453125 609.6953125 c 0
 919.798828125 609.6953125 928.426757812 593.588867188 923.82421875 556.200195312 c 0
 920.94921875 534.916015625 923.249023438 514.784179688 931.303710938 485.447265625 c 0
 937.630859375 463.013671875 941.081054688 442.3046875 938.78125 438.854492188 c 0
 926.125976562 419.87109375 886.435546875 429.075195312 874.930664062 453.234375 c 0
 864.577148438 475.09375 852.497070312 528.588867188 851.921875 551.59765625 c 0
 851.921875 563.102539062 857.674804688 579.784179688 865.15234375 590.711914062 c 0
286.48046875 42.52734375 m 0
 298.560546875 50.580078125 311.21484375 56.9072265625 314.665039062 56.9072265625 c 0
 324.444335938 57.482421875 334.223632812 44.8271484375 334.223632812 31.59765625 c 0
 334.223632812 16.06640625 353.206054688 -5.7919921875 383.1171875 -23.6240234375 c 0
 414.178710938 -42.03125 468.249023438 -43.181640625 482.630859375 -25.349609375 c 0
 498.161132812 -6.3671875 559.134765625 -12.1201171875 567.1875 -33.40234375 c 0
 571.790039062 -45.4814453125 533.249023438 -80.5703125 515.41796875 -80.5703125 c 0
 508.515625 -80.5703125 501.038085938 -82.8720703125 498.161132812 -85.7470703125 c 0
 489.533203125 -94.376953125 419.930664062 -104.154296875 391.169921875 -100.704101562 c 0
 366.435546875 -98.40234375 341.701171875 -88.0478515625 308.913085938 -66.1904296875 c 0
 292.807617188 -55.2607421875 276.125976562 -24.19921875 268.6484375 9.7392578125 c 0
 264.622070312 26.4208984375 266.346679688 29.2958984375 286.48046875 42.52734375 c 0
EndSplineSet
EndChar

StartChar: uni304F
Encoding: 9263 12367 14
Width: 1000
VWidth: 0
Flags: H
HStem: 42.367 40.2657<586.265 627.681> 99.8891 69.027<475.982 546.147>
LayerCount: 2
Fore
SplineSet
652.784179688 601.958984375 m 4
 662.287109375 603.31640625 674.502929688 605.354492188 679.255859375 606.033203125 c 4
 684.0078125 606.033203125 690.116210938 599.923828125 693.508789062 591.778320312 c 4
 700.9765625 571.416015625 676.541015625 533.404296875 619.5234375 475.709960938 c 4
 615.452148438 470.958984375 606.62890625 461.456054688 600.51953125 454.668945312 c 4
 594.411132812 447.880859375 584.228515625 437.701171875 577.440429688 432.26953125 c 4
 571.333007812 426.83984375 550.291992188 407.155273438 530.607421875 388.830078125 c 4
 511.6015625 370.501953125 493.953125 355.569335938 492.595703125 355.569335938 c 4
 490.560546875 355.569335938 479.020507812 344.708984375 466.124023438 331.811523438 c 4
 453.908203125 318.916992188 439.653320312 308.056640625 434.901367188 308.056640625 c 4
 430.150390625 307.377929688 413.860351562 297.1953125 398.926757812 284.30078125 c 4
 373.813476562 262.580078125 373.134765625 260.54296875 381.958007812 244.252929688 c 4
 386.708984375 234.750976562 396.2109375 225.248046875 401.642578125 223.211914062 c 4
 407.750976562 221.17578125 429.471679688 204.206054688 449.155273438 185.879882812 c 4
 468.83984375 166.875 487.166015625 151.94140625 489.881835938 151.94140625 c 4
 492.595703125 151.94140625 500.740234375 146.51171875 508.20703125 139.724609375 c 4
 515.674804688 132.935546875 535.357421875 119.361328125 551.6484375 109.180664062 c 4
 568.6171875 99.6767578125 591.694335938 82.0302734375 602.555664062 70.490234375 c 4
 613.416015625 59.6298828125 625.6328125 50.126953125 629.706054688 50.126953125 c 4
 633.778320312 50.126953125 641.923828125 44.6962890625 648.033203125 38.587890625 c 4
 665.6796875 20.26171875 681.970703125 6.0087890625 706.40625 -10.9619140625 c 4
 732.200195312 -29.966796875 733.556640625 -44.8994140625 713.193359375 -72.048828125 c 4
 699.618164062 -91.0546875 673.82421875 -99.8779296875 673.82421875 -86.3046875 c 4
 673.82421875 -81.5517578125 659.571289062 -67.298828125 598.482421875 -8.9248046875 c 4
 591.015625 -2.8173828125 583.549804688 2.6142578125 580.834960938 2.6142578125 c 4
 577.440429688 3.29296875 564.545898438 12.1171875 551.6484375 22.9765625 c 4
 538.752929688 34.5166015625 525.176757812 43.33984375 520.424804688 43.33984375 c 4
 516.353515625 43.33984375 507.528320312 49.4482421875 500.740234375 56.9140625 c 4
 493.953125 64.380859375 483.092773438 70.490234375 476.984375 70.490234375 c 4
 464.766601562 70.490234375 439.653320312 88.138671875 367.703125 146.51171875 c 4
 341.911132812 167.553710938 306.616210938 191.30859375 290.32421875 199.454101562 c 4
 269.962890625 209.635742188 259.78125 218.458984375 259.78125 227.283203125 c 4
 259.78125 234.750976562 255.708007812 242.216796875 250.278320312 244.252929688 c 4
 236.0234375 249.68359375 250.278320312 285.657226562 272.677734375 299.911132812 c 4
 282.1796875 306.020507812 291.681640625 312.80859375 293.719726562 314.84375 c 4
 300.5078125 321.631835938 327.658203125 335.20703125 335.802734375 335.20703125 c 4
 339.874023438 335.20703125 349.377929688 339.958984375 356.166015625 346.74609375 c 4
 362.953125 352.853515625 373.813476562 361.000976562 381.279296875 365.072265625 c 4
 413.181640625 384.077148438 463.409179688 420.73046875 463.409179688 424.803710938 c 4
 463.409179688 431.590820312 498.705078125 464.8515625 534 492 c 4
 548.932617188 504.217773438 578.12109375 533.404296875 598.482421875 556.483398438 c 4
 622.240234375 584.3125 641.245117188 599.923828125 652.784179688 601.958984375 c 4
EndSplineSet
EndChar

StartChar: uni3050
Encoding: 9264 12368 15
Width: 1000
VWidth: 0
Flags: H
VStem: 774.496 69.8673<679.475 724.703>
LayerCount: 2
Fore
SplineSet
696.388671875 674.916992188 m 4
 717.743164062 694.330078125 750.100585938 704.685546875 751.39453125 692.390625 c 4
 751.39453125 689.153320312 752.689453125 660.6796875 753.337890625 628.323242188 c 4
 754.630859375 595.965820312 757.21875 565.55078125 760.455078125 561.66796875 c 4
 763.04296875 557.138671875 767.57421875 538.37109375 770.162109375 520.251953125 c 4
 778.575195312 467.833984375 790.223632812 429.004882812 800.578125 421.23828125 c 4
 813.51953125 410.239257812 805.107421875 384.352539062 783.752929688 371.41015625 c 4
 764.986328125 360.408203125 736.510742188 362.99609375 738.452148438 375.939453125 c 4
 739.099609375 379.822265625 736.510742188 392.118164062 731.98046875 402.471679688 c 4
 720.98046875 430.946289062 696.388671875 494.365234375 680.209960938 536.428710938 c 4
 667.9140625 568.138671875 664.678710938 612.143554688 672.444335938 650.325195312 c 4
 673.090820312 651.620117188 683.446289062 662.620117188 696.388671875 674.916992188 c 4
837.463867188 575.258789062 m 4
 847.819335938 582.375976562 862.702148438 581.729492188 882.1171875 572.668945312 c 4
 898.943359375 564.903320312 899.58984375 562.315429688 896.353515625 535.134765625 c 4
 894.413085938 518.95703125 892.471679688 481.422851562 891.823242188 451.006835938 c 4
 891.176757812 409.590820312 887.94140625 390.825195312 878.879882812 375.29296875 c 4
 871.762695312 363.643554688 863.997070312 353.9375 862.055664062 353.9375 c 4
 851.701171875 354.583984375 841.348632812 365.5859375 832.287109375 387.587890625 c 4
 814.166992188 429.65234375 818.05078125 562.962890625 837.463867188 575.258789062 c 4
499.012695312 428.358398438 m 4
 530.075195312 452.948242188 539.133789062 454.244140625 542.37109375 433.534179688 c 4
 544.958007812 416.063476562 501.600585938 373.3515625 482.186523438 373.3515625 c 4
 473.774414062 373.3515625 464.06640625 368.8203125 459.537109375 363.643554688 c 4
 455.006835938 357.819335938 449.829101562 355.23046875 448.53515625 356.525390625 c 4
 445.299804688 359.76171875 438.829101562 355.23046875 417.47265625 336.46484375 c 4
 412.942382812 331.93359375 406.470703125 328.052734375 404.529296875 328.052734375 c 4
 401.94140625 328.052734375 377.350585938 311.225585938 350.171875 290.517578125 c 4
 322.991210938 269.809570312 293.870117188 249.100585938 286.104492188 244.571289062 c 4
 277.69140625 240.041015625 266.04296875 232.276367188 260.219726562 227.098632812 c 4
 254.395507812 222.568359375 243.392578125 214.155273438 236.275390625 208.978515625 c 4
 223.33203125 199.918945312 223.978515625 199.272460938 244.6875 177.267578125 c 4
 256.3359375 164.97265625 273.809570312 150.736328125 283.515625 146.206054688 c 4
 308.106445312 133.262695312 340.463867188 111.908203125 352.758789062 98.9658203125 c 4
 358.583984375 93.1416015625 384.46875 76.3154296875 409.70703125 61.4306640625 c 4
 435.592773438 47.1943359375 471.186523438 24.5439453125 489.3046875 12.89453125 c 4
 520.366210938 -8.458984375 524.250976562 -9.107421875 549.48828125 -1.98828125 c 4
 577.962890625 5.130859375 602.552734375 -1.341796875 601.259765625 -16.8720703125 c 4
 600.61328125 -34.345703125 577.315429688 -64.1142578125 556.607421875 -74.466796875 c 6
 534.60546875 -85.46875 l 5
 469.890625 -51.1708984375 l 6
 347.581054688 12.89453125 313.930664062 31.662109375 300.340820312 43.9580078125 c 4
 293.223632812 51.076171875 282.868164062 56.25390625 277.043945312 56.25390625 c 4
 271.219726562 56.25390625 263.454101562 60.7841796875 258.923828125 65.9619140625 c 4
 254.395507812 71.138671875 247.276367188 75.66796875 242.74609375 75.66796875 c 4
 237.568359375 75.66796875 225.2734375 82.7861328125 214.91796875 91.8466796875 c 4
 203.91796875 100.90625 185.798828125 111.908203125 173.501953125 115.791015625 c 4
 134.02734375 129.380859375 111.376953125 146.852539062 106.848632812 166.266601562 c 4
 101.024414062 194.094726562 117.848632812 220.626953125 152.147460938 237.452148438 c 4
 168.325195312 245.217773438 185.150390625 254.924804688 189.681640625 259.454101562 c 4
 205.212890625 273.043945312 238.86328125 295.6953125 245.333984375 295.6953125 c 4
 248.5703125 295.6953125 271.8671875 311.873046875 297.104492188 331.93359375 c 4
 322.342773438 351.34765625 363.760742188 380.469726562 389 396 c 4
 433.004882812 423.180664062 436.240234375 423.827148438 453.065429688 415.415039062 c 4
 469.890625 406.354492188 472.479492188 407.001953125 499.012695312 428.358398438 c 4
EndSplineSet
EndChar

StartChar: uni3051
Encoding: 9265 12369 16
Width: 1000
VWidth: 0
Flags: H
HStem: 394.479 56.9461<760.331 822.959>
LayerCount: 2
Fore
SplineSet
705.9140625 657.725585938 m 4
 719.71875 672.10546875 722.01953125 672.680664062 738.701171875 665.778320312 c 6
 756.533203125 658.30078125 l 5
 755.3828125 612.858398438 l 6
 754.807617188 588.124023438 753.657226562 557.63671875 752.506835938 545.557617188 c 4
 751.35546875 533.477539062 751.932617188 521.3984375 753.657226562 518.521484375 c 4
 755.3828125 516.221679688 769.763671875 512.76953125 785.293945312 512.194335938 c 4
 805.427734375 511.043945312 816.932617188 507.017578125 823.259765625 498.96484375 c 4
 831.887695312 488.610351562 831.3125 486.884765625 815.206054688 471.353515625 c 4
 804.276367188 461.575195312 791.62109375 455.248046875 781.84375 455.248046875 c 4
 769.1875 455.248046875 764.586914062 452.37109375 762.860351562 442.59375 c 4
 761.709960938 435.114257812 757.68359375 414.982421875 754.232421875 397.725585938 c 4
 750.780273438 380.46875 746.754882812 343.080078125 745.028320312 314.318359375 c 4
 741.578125 257.946289062 727.771484375 148.080078125 719.71875 115.8671875 c 4
 708.790039062 72.7255859375 689.807617188 8.8759765625 685.206054688 -2.0537109375 c 4
 682.330078125 -8.380859375 676.002929688 -22.7607421875 671.400390625 -33.6904296875 c 4
 644.939453125 -95.23828125 637.461914062 -107.89453125 620.780273438 -114.221679688 c 4
 605.825195312 -120.548828125 602.94921875 -119.973632812 593.170898438 -107.89453125 c 4
 581.666015625 -92.9375 582.81640625 -86.6103515625 602.374023438 -57.2744140625 c 4
 609.8515625 -46.3447265625 617.330078125 -27.36328125 619.055664062 -15.283203125 c 4
 621.35546875 -3.2041015625 624.807617188 8.30078125 627.68359375 9.451171875 c 4
 629.984375 11.177734375 634.01171875 24.982421875 636.3125 39.9375 c 4
 638.037109375 54.8935546875 642.064453125 69.8486328125 644.365234375 72.7255859375 c 4
 647.241210938 76.177734375 650.692382812 91.7080078125 652.418945312 107.814453125 c 4
 654.143554688 123.920898438 657.595703125 143.477539062 660.471679688 150.955078125 c 4
 667.94921875 171.088867188 673.125976562 210.778320312 676.002929688 268.875976562 c 4
 677.153320312 297.0625 679.453125 347.10546875 681.754882812 380.46875 c 4
 683.48046875 413.83203125 682.905273438 444.318359375 680.028320312 448.345703125 c 4
 676.002929688 454.096679688 647.241210938 456.973632812 571.887695312 459.2734375 c 4
 515.516601562 461 464.321289062 462.725585938 458.569335938 463.30078125 c 4
 452.241210938 463.30078125 446.489257812 470.778320312 443.037109375 484.009765625 c 4
 434.984375 512.194335938 435.559570312 519.096679688 447.639648438 527.725585938 c 4
 461.444335938 538.655273438 546.002929688 538.080078125 616.1796875 526 c 4
 681.754882812 515.646484375 685.206054688 516.795898438 681.754882812 552.459960938 c 4
 678.302734375 589.2734375 689.807617188 641.043945312 705.9140625 657.725585938 c 4
270.471679688 545.557617188 m 4
 281.400390625 554.185546875 307.860351562 554.76171875 322.81640625 547.283203125 c 4
 336.046875 539.805664062 337.771484375 511.619140625 325.1171875 501.264648438 c 4
 285.427734375 468.477539062 268.170898438 365.512695312 278.524414062 229.76171875 c 4
 281.400390625 193.521484375 287.728515625 175.114257812 307.860351562 147.504882812 c 4
 315.338867188 136.575195312 315.338867188 134.2734375 307.28515625 122.76953125 c 4
 296.35546875 106.6640625 268.74609375 106.088867188 253.21484375 121.619140625 c 4
 246.887695312 127.946289062 234.232421875 147.504882812 225.028320312 165.336914062 c 4
 211.798828125 191.795898438 208.34765625 205.6015625 207.196289062 247.017578125 c 4
 206.046875 274.627929688 205.471679688 303.389648438 206.046875 311.442382812 c 4
 208.34765625 362.0625 212.94921875 399.451171875 217.55078125 405.203125 c 4
 222.728515625 411.530273438 230.780273438 440.8671875 233.08203125 461 c 4
 235.958007812 486.884765625 257.241210938 534.627929688 270.471679688 545.557617188 c 4
EndSplineSet
EndChar

StartChar: uni3052
Encoding: 9266 12370 17
Width: 1000
VWidth: 0
Flags: H
HStem: 371.394 68.7223<378.274 574.182>
VStem: 96.115 73.8765<-49.4793 316.856> 113.296 102.511<301.527 424.081> 530.784 69.8673<-121.504 23.0775> 578.318 63.5679<-11.3295 367.581> 579.462 79.6034<86.9161 369.097> 765.585 83.6126<485.594 620.974> 897.304 86.4767<433.817 512.275>
LayerCount: 2
Fore
SplineSet
742.004882812 669.016601562 m 4x83
 751.739257812 675.317382812 793.546875 667.298828125 799.2734375 657.563476562 c 4
 801.563476562 652.982421875 805 628.356445312 806.145507812 603.158203125 c 4
 807.86328125 566.505859375 810.727539062 554.479492188 819.889648438 544.744140625 c 4
 826.188476562 537.872070312 831.342773438 528.135742188 831.342773438 522.982421875 c 4
 831.342773438 493.774414062 773.501953125 476.59375 764.912109375 503.510742188 c 4
 762.62109375 510.3828125 759.185546875 517.255859375 757.466796875 518.973632812 c 4
 751.166992188 522.982421875 722.533203125 614.040039062 722.533203125 627.784179688 c 4
 722.533203125 641.529296875 732.841796875 663.290039062 742.004882812 669.016601562 c 4x83
902.9296875 612.321289062 m 4
 909.228515625 614.040039062 914.956054688 615.184570312 915.528320312 615.7578125 c 4
 916.672851562 615.7578125 920.682617188 610.603515625 925.264648438 603.731445312 c 4
 931.563476562 593.995117188 932.708984375 584.833007812 929.2734375 569.370117188 c 4
 925.264648438 552.76171875 926.409179688 544.744140625 935 531 c 4
 940.727539062 521.263671875 944.735351562 507.51953125 943.58984375 500.075195312 c 4
 941.872070312 493.202148438 940.727539062 484.040039062 940.727539062 480.603515625 c 4
 940.154296875 469.721679688 918.96484375 471.439453125 907.510742188 483.466796875 c 4
 867.422851562 524.127929688 854.25 543.026367188 854.25 559.061523438 c 4
 854.25 582.541015625 865.704101562 604.875976562 879.44921875 607.740234375 c 4
 886.321289062 608.885742188 896.629882812 611.17578125 902.9296875 612.321289062 c 4
569.625 569.370117188 m 4
 574.779296875 577.38671875 622.885742188 579.106445312 628.0390625 571.087890625 c 4
 629.7578125 567.651367188 624.603515625 552.189453125 617.158203125 536.154296875 c 4
 609.140625 520.118164062 603.986328125 503.510742188 605.704101562 498.928710938 c 4
 609.712890625 489.194335938 629.7578125 484.040039062 634.33984375 491.484375 c 4
 636.629882812 494.920898438 639.493164062 494.920898438 641.784179688 492.629882812 c 4
 643.501953125 489.766601562 658.96484375 482.893554688 675.573242188 477.166992188 c 4
 727.114257812 459.413085938 744.294921875 446.2421875 760.330078125 411.880859375 c 4
 774.647460938 379.809570312 774.647460938 379.809570312 763.193359375 369.500976562 c 4
 745.440429688 352.893554688 729.977539062 356.330078125 712.796875 380.3828125 c 4
 696.188476562 403.290039062 669.2734375 415.889648438 637.202148438 415.889648438 c 4
 618.876953125 415.889648438 613.72265625 406.154296875 616.012695312 374.655273438 c 4x87
 617.158203125 363.202148438 614.294921875 353.466796875 608.568359375 349.458007812 c 4
 601.696289062 343.731445312 599.404296875 328.840820312 598.83203125 272.14453125 c 4x8b
 598.83203125 233.202148438 596.541992188 193.114257812 594.25 182.805664062 c 4
 591.959960938 173.0703125 587.951171875 139.854492188 585.087890625 108.356445312 c 4
 577.643554688 28.1806640625 575.352539062 17.298828125 557.598632812 -30.8056640625 c 4
 543.85546875 -68.03125 539.845703125 -73.7578125 526.672851562 -75.4755859375 c 4
 507.775390625 -77.767578125 487.731445312 -59.4404296875 487.731445312 -39.9697265625 c 4x93
 487.731445312 -31.9521484375 492.885742188 -17.0615234375 498.61328125 -6.7529296875 c 4
 504.33984375 3.5556640625 511.211914062 27.607421875 513.501953125 46.505859375 c 4
 518.65625 92.3212890625 520.374023438 106.638671875 527.819335938 163.907226562 c 4
 531.254882812 190.82421875 534.69140625 258.973632812 535.264648438 315.669921875 c 6x8b
 536.409179688 418.752929688 l 5x87
 504.912109375 418.180664062 l 6
 441.916015625 416.462890625 391.520507812 411.30859375 372.047851562 404.436523438 c 4
 344.55859375 394.127929688 334.82421875 399.282226562 330.2421875 426.771484375 c 4
 325.661132812 454.833007812 332.533203125 463.995117188 364.03125 469.721679688 c 4
 376.057617188 472.013671875 392.665039062 476.59375 401.254882812 480.030273438 c 4
 409.2734375 483.466796875 441.342773438 486.330078125 471.696289062 486.90234375 c 4
 502.62109375 487.475585938 528.96484375 489.766601562 531.254882812 492.056640625 c 4
 532.973632812 493.774414062 537.5546875 510.3828125 541.563476562 528.709960938 c 4
 545.573242188 551.6171875 550.727539062 561.923828125 556.454101562 561.923828125 c 4
 561.036132812 561.923828125 567.334960938 565.361328125 569.625 569.370117188 c 4
140.431640625 468.577148438 m 4
 147.305664062 482.321289062 151.313476562 483.466796875 179.947265625 483.466796875 c 4
 208.008789062 482.893554688 211.4453125 481.748046875 211.4453125 470.8671875 c 4xa3
 211.4453125 464.567382812 206.291015625 450.250976562 199.9921875 439.942382812 c 4
 193.120117188 429.061523438 185.673828125 403.290039062 182.811523438 382.673828125 c 4
 179.947265625 361.484375 175.939453125 338.00390625 174.220703125 329.986328125 c 4
 160.4765625 275.581054688 153.032226562 144.436523438 161.048828125 94.0400390625 c 4
 163.912109375 73.9951171875 166.203125 48.224609375 165.630859375 36.771484375 c 4
 165.630859375 24.744140625 167.920898438 15.0087890625 171.357421875 15.0087890625 c 4
 174.220703125 15.0087890625 182.239257812 9.8544921875 188.538085938 3.5556640625 c 4
 197.700195312 -5.6083984375 198.846679688 -10.1904296875 193.120117188 -21.6435546875 c 4
 185.1015625 -39.9697265625 158.758789062 -46.2685546875 140.431640625 -34.8154296875 c 4
 122.106445312 -22.7890625 97.4814453125 32.189453125 91.75390625 73.4228515625 c 4xc3
 86.599609375 112.365234375 92.8994140625 241.220703125 103.208007812 292.76171875 c 4
 106.643554688 311.66015625 109.5078125 336.859375 108.934570312 348.3125 c 4xa3
 108.362304688 359.766601562 110.65234375 370.647460938 114.088867188 372.938476562 c 4
 117.524414062 375.228515625 118.669921875 378.665039062 116.952148438 381.529296875 c 4
 112.942382812 387.828125 128.978515625 445.669921875 140.431640625 468.577148438 c 4
EndSplineSet
EndChar

StartChar: uni3053
Encoding: 9267 12371 18
Width: 1000
VWidth: 0
Flags: HW
HStem: -108.058 5.1708<862.371 891.315> 659.972 121.54<60.9653 531.18>
VStem: 751.982 81.4573<411.848 520.425>
LayerCount: 2
Fore
SplineSet
324.881835938 586.2109375 m 4
 338.859375 600.189453125 378.463867188 597.859375 460 580 c 4
 539.208984375 562.137695312 569.494140625 552.04296875 611.426757812 526.41796875 c 4
 668.115234375 492.25 678.987304688 482.930664062 707.719726562 447.985351562 c 4
 727.911132812 421.583007812 732.571289062 410.7109375 728.6875 390.521484375 c 4
 724.02734375 360.235351562 714.708984375 349.364257812 696.072265625 353.247070312 c 4
 686.75390625 354.798828125 681.317382812 363.341796875 679.764648438 378.872070312 c 4
 678.987304688 392.850585938 670.446289062 407.60546875 660.349609375 415.37109375 c 4
 650.255859375 423.135742188 638.607421875 432.454101562 633.171875 437.114257812 c 4
 627.735351562 440.997070312 617.640625 444.879882812 610.65234375 444.879882812 c 4
 603.662109375 444.879882812 587.35546875 449.5390625 574.154296875 455.750976562 c 4
 522.125 479.047851562 430.493164062 500.791015625 374.581054688 502.344726562 c 4
 289.9375 504.673828125 281.395507812 506.2265625 281.395507812 515.546875 c 4
 281.395507812 520.204101562 273.62890625 530.298828125 264.310546875 537.2890625 c 4
 239.462890625 557.479492188 250.33203125 577.668945312 285.27734375 575.338867188 c 4
 301.584960938 574.5625 317.115234375 578.4453125 324.881835938 586.2109375 c 4
638.607421875 13.1201171875 m 4
 692.188476562 31.755859375 740.334960938 45.734375 745.770507812 44.1806640625 c 4
 751.984375 42.626953125 759.749023438 41.07421875 763.631835938 41.07421875 c 4
 778.385742188 41.07421875 769.84375 13.1201171875 749.654296875 -6.2958984375 c 4
 726.357421875 -27.2626953125 661.904296875 -59.8779296875 642.490234375 -59.8779296875 c 4
 630.06640625 -59.8779296875 574.930664062 -83.951171875 568.717773438 -92.4931640625 c 4
 566.389648438 -95.59765625 515.135742188 -97.150390625 454.56640625 -95.59765625 c 4
 341.188476562 -94.0458984375 329.541015625 -90.9384765625 302.36328125 -55.994140625 c 4
 295.373046875 -46.67578125 303.139648438 2.2470703125 314.010742188 16.224609375 c 4
 324.881835938 28.650390625 358.274414062 28.650390625 373.8046875 15.4482421875 c 4
 389.334960938 3.0224609375 453.01171875 -13.2841796875 504.264648438 -17.1669921875 c 4
 532.99609375 -19.498046875 563.282226562 -12.5078125 638.607421875 13.1201171875 c 4
EndSplineSet
EndChar

StartChar: uni3054
Encoding: 9268 12372 19
Width: 1000
VWidth: 0
Flags: HW
HStem: -434.57 134.449<561.069 716.686> 701.283 168.446<-261.064 334.024> 879.003 231.806<781.087 891.201>
VStem: 778.319 191.261<866.518 1098.34> 1226.63 143.826<719.827 799.525 800.855 1006.88>
LayerCount: 2
Fore
SplineSet
648.051757812 640.375976562 m 4
 655.358398438 648.34765625 666.65234375 654.9921875 671.966796875 654.9921875 c 4
 687.24609375 654.9921875 721.125976562 629.083007812 721.125976562 617.125 c 4
 721.125976562 600.518554688 741.719726562 559.330078125 758.329101562 545.37890625 c 4
 772.943359375 532.091796875 776.263671875 522.79296875 774.935546875 500.870117188 c 4
 774.271484375 491.568359375 768.29296875 488.912109375 747.698242188 488.912109375 c 4
 725.77734375 488.912109375 716.475585938 493.563476562 694.553710938 515.484375 c 4
 679.939453125 530.100585938 667.981445312 545.37890625 667.981445312 548.701171875 c 4
 667.981445312 552.6875 663.995117188 555.34375 658.6796875 555.34375 c 4
 646.057617188 555.34375 643.400390625 559.995117188 638.0859375 595.203125 c 4
 634.764648438 620.448242188 636.09375 627.754882812 648.051757812 640.375976562 c 4
852.661132812 610.481445312 m 4
 878.569335938 615.796875 901.821289062 589.223632812 904.477539062 552.021484375 c 4
 905.142578125 541.393554688 907.134765625 527.442382812 909.79296875 521.463867188 c 4
 912.44921875 515.484375 907.134765625 502.19921875 895.176757812 486.918945312 c 6
 875.912109375 463.00390625 l 5
 851.99609375 486.254882812 l 6
 833.395507812 504.85546875 829.409179688 512.827148438 832.731445312 524.12109375 c 4
 835.388671875 532.091796875 837.381835938 548.037109375 836.051757812 558.665039062 c 4
 834.059570312 589.223632812 839.375 607.161132812 852.661132812 610.481445312 c 4
274.041015625 563.979492188 m 4
 276.034179688 566.637695312 282.012695312 565.30859375 287.327148438 560.659179688 c 4
 292.641601562 556.672851562 311.908203125 552.021484375 330.5078125 551.357421875 c 4
 385.645507812 548.701171875 511.202148438 498.212890625 540.430664062 466.989257812 c 4
 549.068359375 458.353515625 557.704101562 439.752929688 559.697265625 425.802734375 c 6
 563.68359375 401.221679688 l 5
 534.452148438 405.873046875 l 6
 518.508789062 408.530273438 495.922851562 417.166015625 485.293945312 425.802734375 c 4
 443.442382812 457.024414062 345.123046875 481.60546875 271.3828125 478.947265625 c 4
 216.909179688 477.618164062 192.329101562 465.66015625 182.365234375 435.767578125 c 4
 178.37890625 425.137695312 171.735351562 415.173828125 166.420898438 413.844726562 c 4
 153.134765625 408.530273438 131.212890625 427.129882812 126.561523438 449.053710938 c 4
 123.905273438 459.681640625 119.254882812 470.311523438 115.93359375 472.3046875 c 4
 105.967773438 478.947265625 109.291015625 504.19140625 121.912109375 520.799804688 c 4
 135.86328125 538.0703125 176.385742188 550.028320312 251.453125 558 c 4
 261.418945312 558.665039062 271.3828125 561.986328125 274.041015625 563.979492188 c 4
181.701171875 63.0849609375 m 4
 200.966796875 74.37890625 227.5390625 71.056640625 247.46875 54.44921875 c 4
 277.361328125 29.869140625 293.305664062 23.890625 339.143554688 19.2392578125 c 4
 363.05859375 17.248046875 383.65234375 13.2607421875 385.645507812 10.603515625 c 4
 386.974609375 8.611328125 408.231445312 9.2763671875 433.4765625 12.5966796875 c 4
 458.056640625 15.9189453125 487.286132812 17.9111328125 497.916015625 17.9111328125 c 4
 516.516601562 17.9111328125 555.047851562 35.1845703125 555.047851562 44.484375 c 4
 555.047851562 46.4765625 567.00390625 48.470703125 581.620117188 48.470703125 c 4
 604.206054688 48.470703125 608.856445312 46.4765625 612.177734375 32.5263671875 c 4
 616.1640625 16.5830078125 597.563476562 -9.326171875 581.620117188 -9.326171875 c 4
 578.297851562 -9.326171875 574.977539062 -13.9755859375 574.977539062 -19.291015625 c 4
 574.977539062 -24.60546875 572.982421875 -28.5908203125 570.326171875 -27.9267578125 c 4
 567.00390625 -27.2626953125 555.711914062 -31.2490234375 545.08203125 -37.2255859375 c 4
 516.516601562 -52.505859375 416.869140625 -69.7783203125 385.645507812 -65.12890625 c 4
 378.338867188 -63.80078125 355.750976562 -61.806640625 335.821289062 -59.814453125 c 4
 315.892578125 -57.8212890625 289.984375 -53.8349609375 278.026367188 -49.8486328125 c 4
 266.069335938 -46.52734375 251.453125 -45.19921875 244.810546875 -46.52734375 c 4
 237.50390625 -48.51953125 226.874023438 -44.53515625 220.231445312 -36.5615234375 c 4
 212.922851562 -28.5908203125 204.287109375 -22.611328125 200.301757812 -22.611328125 c 4
 173.063476562 -22.611328125 157.78515625 49.1337890625 181.701171875 63.0849609375 c 4
EndSplineSet
EndChar

StartChar: uni3055
Encoding: 9269 12373 20
Width: 1000
VWidth: 0
Flags: H
HStem: -131.637 40.6605<444.418 585.577> -124.193 111.674<356.249 415.235>
VStem: 243.43 68.7223<-4.36013 18.8675> 506.866 57.2698<623.433 665.84> 563.563 58.4137<141.478 435.761> 563.563 49.2502<142.238 425.534>
LayerCount: 2
Fore
SplineSet
563.366210938 695.54296875 m 4x30
 588.563476562 705.850585938 613.189453125 682.942382812 613.189453125 648.58203125 c 4x30
 613.189453125 636.555664062 615.48046875 625.1015625 618.916992188 621.666015625 c 4
 621.779296875 618.802734375 627.505859375 601.048828125 630.943359375 582.151367188 c 4
 641.251953125 526.02734375 648.696289062 520.30078125 722 514 c 4
 808.475585938 505.982421875 818.211914062 503.692382812 824.510742188 489.375 c 4
 835.391601562 465.322265625 823.366210938 456.731445312 784.995117188 461.313476562 c 4
 767.814453125 463.604492188 736.888671875 466.467773438 716.2734375 468.185546875 c 6
 679.047851562 471.622070312 l 5
 673.321289062 452.151367188 l 6
 669.885742188 441.842773438 669.313476562 422.942382812 671.03125 410.34375 c 4x28
 677.330078125 373.120117188 675.040039062 228.229492188 668.166992188 219.06640625 c 4
 664.731445312 214.485351562 661.8671875 201.885742188 661.8671875 190.431640625 c 4x24
 661.8671875 170.9609375 660.72265625 169.81640625 644.686523438 171.534179688 c 4
 618.916992188 174.396484375 610.326171875 185.850585938 612.6171875 213.912109375 c 4x28
 616.052734375 255.71875 615.48046875 316.997070312 610.8984375 364.529296875 c 4
 608.03515625 389.728515625 605.744140625 418.362304688 605.171875 427.524414062 c 4
 602.880859375 460.740234375 601.736328125 463.604492188 590.854492188 466.467773438 c 4
 584.555664062 468.185546875 577.682617188 467.612304688 575.96484375 465.322265625 c 4
 573.674804688 463.604492188 544.465820312 459.022460938 511.251953125 455.013671875 c 4
 477.462890625 451.577148438 444.819335938 447.569335938 438.520507812 445.850585938 c 4
 431.646484375 444.1328125 411.603515625 441.26953125 392.705078125 438.978515625 c 4
 373.805664062 436.115234375 350.326171875 430.9609375 340.017578125 426.379882812 c 4
 329.708984375 422.370117188 321.119140625 420.65234375 321.119140625 422.370117188 c 4
 321.119140625 424.662109375 317.682617188 423.515625 314.247070312 420.65234375 c 4
 310.237304688 417.215820312 296.494140625 411.489257812 283.893554688 407.481445312 c 4
 271.294921875 403.471679688 257.55078125 397.745117188 253.541992188 394.30859375 c 4
 244.377929688 386.864257812 186.537109375 392.018554688 175.65625 401.181640625 c 4
 164.774414062 410.34375 163.629882812 442.415039062 173.366210938 452.151367188 c 4
 181.955078125 460.740234375 206.58203125 461.313476562 206.58203125 453.295898438 c 4
 206.58203125 450.431640625 211.736328125 452.723632812 217.462890625 458.450195312 c 4
 238.079101562 479.06640625 264.422851562 488.229492188 305.65625 490.51953125 c 4
 348.608398438 493.383789062 363.497070312 495.1015625 378.387695312 500.828125 c 4
 382.96875 502.545898438 400.149414062 505.41015625 415.612304688 507.127929688 c 4
 431.646484375 508.846679688 464.86328125 514 489.489257812 518.58203125 c 4
 514.686523438 523.163085938 536.44921875 526.02734375 538.739257812 524.880859375 c 4
 540.458007812 523.736328125 550.193359375 526.599609375 559.928710938 531.75390625 c 4
 575.391601562 538.625976562 577.109375 542.061523438 573.1015625 552.370117188 c 4
 562.220703125 580.431640625 544.465820312 643.427734375 544.465820312 653.736328125 c 4
 544.465820312 659.462890625 547.330078125 666.334960938 550.193359375 668.053710938 c 4
 553.629882812 669.771484375 555.919921875 676.643554688 555.919921875 682.370117188 c 4
 555.919921875 688.096679688 559.356445312 694.396484375 563.366210938 695.54296875 c 4x30
305.65625 88.494140625 m 4
 342.30859375 95.365234375 361.20703125 87.9208984375 361.20703125 66.1591796875 c 4
 361.20703125 51.26953125 391.55859375 18.0537109375 405.303710938 18.0537109375 c 4x60
 409.313476562 18.0537109375 412.749023438 14.6171875 412.749023438 10.03515625 c 4
 412.749023438 6.02734375 417.330078125 0.30078125 423.057617188 -1.41796875 c 4
 428.211914062 -3.708984375 444.819335938 -12.2998046875 459.135742188 -20.888671875 c 4
 519.268554688 -56.3955078125 523.27734375 -57.5419921875 572.528320312 -60.404296875 c 4
 621.779296875 -63.2685546875 636.09765625 -69.568359375 636.09765625 -89.0390625 c 4
 636.09765625 -110.80078125 553.057617188 -118.24609375 503.233398438 -101.065429688 c 4xa0
 484.907226562 -94.765625 467.7265625 -91.9033203125 464.290039062 -93.6201171875 c 4x60
 460.854492188 -95.9111328125 453.409179688 -93.6201171875 448.254882812 -89.0390625 c 4
 443.1015625 -83.884765625 427.06640625 -75.8671875 412.749023438 -70.140625 c 4
 398.431640625 -64.986328125 376.669921875 -52.3876953125 364.071289062 -42.6513671875 c 4
 351.470703125 -32.9150390625 337.7265625 -22.6064453125 333.145507812 -19.171875 c 4
 310.810546875 -2.5634765625 292.484375 20.9169921875 292.484375 32.3701171875 c 4
 292.484375 39.81640625 290.193359375 47.2607421875 287.330078125 49.55078125 c 4
 277.594726562 55.27734375 292.484375 85.630859375 305.65625 88.494140625 c 4
EndSplineSet
EndChar

StartChar: uni3056
Encoding: 9270 12374 21
Width: 1000
VWidth: 0
Flags: H
HStem: -110.841 36.0788<537.394 573.216> 401.713 46.9612<581.73 688.158>
VStem: 289.975 68.1498<-5.30638 97.5443> 520.766 57.8423<203.776 383.951> 852.352 60.7052<414.33 545.431>
LayerCount: 2
Fore
SplineSet
462.9921875 649.07421875 m 4
 478.453125 673.125976562 510.524414062 658.809570312 515.106445312 626.166015625 c 4
 516.82421875 615.28515625 524.268554688 588.368164062 532.859375 566.03515625 c 4
 540.875976562 544.272460938 547.75 517.928710938 547.75 507.620117188 c 4
 547.75 481.27734375 550.040039062 480.130859375 630.215820312 475.55078125 c 4
 659.422851562 473.258789062 672.022460938 469.822265625 680.612304688 461.232421875 c 4
 692.06640625 450.3515625 692.06640625 449.779296875 678.322265625 437.752929688 c 4
 666.868164062 426.298828125 661.141601562 425.154296875 627.92578125 428.588867188 c 4
 574.665039062 433.743164062 567.220703125 427.444335938 576.383789062 383.346679688 c 4
 581.538085938 359.293945312 581.538085938 348.413085938 576.956054688 343.831054688 c 4
 573.51953125 340.396484375 570.657226562 324.93359375 570.657226562 310.04296875 c 4
 570.657226562 280.8359375 548.322265625 228.721679688 533.431640625 222.995117188 c 4
 521.978515625 218.985351562 512.814453125 233.303710938 512.814453125 255.064453125 c 4
 512.814453125 265.373046875 512.814453125 293.434570312 512.814453125 317.48828125 c 4
 513.388671875 343.831054688 510.524414062 366.739257812 505.942382812 374.756835938 c 4
 479.026367188 422.862304688 477.30859375 424.580078125 450.391601562 426.87109375 c 4
 407.44140625 430.880859375 225.327148438 407.399414062 173.2109375 390.79296875 c 4
 126.82421875 376.474609375 87.880859375 390.79296875 90.7451171875 421.716796875 c 4
 92.462890625 440.04296875 92.462890625 440.04296875 123.9609375 439.470703125 c 4
 142.859375 438.897460938 150.875976562 440.04296875 144.004882812 442.907226562 c 4
 133.696289062 446.342773438 134.268554688 447.48828125 150.303710938 456.078125 c 4
 169.776367188 465.814453125 196.692382812 469.822265625 278.5859375 474.9765625 c 4
 308.365234375 476.6953125 344.4453125 479.55859375 358.76171875 481.27734375 c 4
 373.080078125 482.422851562 404.004882812 484.139648438 427.484375 485.28515625 c 4
 450.965820312 486.430664062 472.154296875 487.577148438 475.018554688 488.149414062 c 4
 483.03515625 489.293945312 479.026367188 522.510742188 467 550 c 4
 453.255859375 580.923828125 451.538085938 630.748046875 462.9921875 649.07421875 c 4
695.502929688 566.607421875 m 4
 700.657226562 571.188476562 713.828125 574.051757812 724.709960938 572.907226562 c 4
 742.462890625 571.76171875 744.752929688 569.470703125 752.771484375 544.272460938 c 4
 757.353515625 529.3828125 771.096679688 505.90234375 783.123046875 492.157226562 c 4
 818.630859375 452.069335938 818.056640625 429.734375 781.405273438 425.154296875 c 4
 771.096679688 423.434570312 761.934570312 427.444335938 752.771484375 437.1796875 c 4
 744.752929688 445.197265625 730.436523438 457.795898438 720.700195312 465.814453125 c 4
 689.203125 490.439453125 674.313476562 550.572265625 695.502929688 566.607421875 c 4
857.572265625 563.743164062 m 4
 889.0703125 587.795898438 908.541992188 570.615234375 905.106445312 520.21875 c 4
 903.9609375 493.875976562 905.678710938 481.849609375 914.268554688 467.532226562 c 4
 930.303710938 440.615234375 924.577148438 430.880859375 895.370117188 434.888671875 c 4
 866.736328125 438.325195312 855.282226562 448.633789062 844.401367188 482.995117188 c 4
 834.092773438 516.2109375 839.247070312 550 857.572265625 563.743164062 c 4
308.938476562 123.919921875 m 4
 333.564453125 135.373046875 339.864257812 128.500976562 350.172851562 79.822265625 c 4
 357.6171875 44.888671875 361.625976562 38.0166015625 391.405273438 7.091796875 c 4
 430.920898438 -33.5693359375 458.41015625 -51.8955078125 473.298828125 -47.8857421875 c 4
 479.026367188 -46.1689453125 489.907226562 -49.03125 496.780273438 -54.185546875 c 4
 508.806640625 -62.2041015625 509.952148438 -62.2041015625 517.396484375 -51.8955078125 c 4
 523.123046875 -43.3046875 529.422851562 -41.0146484375 547.75 -42.7314453125 c 4
 565.502929688 -44.44921875 570.657226562 -47.3134765625 568.365234375 -53.61328125 c 4
 566.647460938 -58.1943359375 564.930664062 -66.7841796875 564.930664062 -73.0849609375 c 4
 564.930664062 -78.8115234375 560.920898438 -83.96484375 556.338867188 -83.96484375 c 4
 551.7578125 -83.96484375 547.75 -86.2568359375 547.75 -88.546875 c 4
 547.75 -91.4111328125 537.44140625 -98.283203125 524.841796875 -104.009765625 c 4
 490.481445312 -119.47265625 434.357421875 -113.74609375 406.868164062 -91.9833984375 c 4
 395.987304688 -82.8203125 379.37890625 -71.3662109375 369.643554688 -66.2119140625 c 4
 326.119140625 -41.5869140625 287.176757812 11.6728515625 282.022460938 55.76953125 c 4
 278.013671875 94.1396484375 284.885742188 111.893554688 308.938476562 123.919921875 c 4
EndSplineSet
EndChar

StartChar: uni3057
Encoding: 9271 12375 22
Width: 1000
VWidth: 0
Flags: H
VStem: 235.667 61.2777<257.703 576.356>
LayerCount: 2
Fore
SplineSet
287.637695312 639.372070312 m 4
 295.024414062 643.805664062 305.3671875 645.282226562 310.5390625 643.805664062 c 4
 316.44921875 641.587890625 326.791015625 640.110351562 334.91796875 640.110351562 c 4
 347.4765625 640.110351562 348.954101562 635.678710938 346 598 c 4
 343.782226562 574.361328125 338.612304688 545.548828125 334.177734375 532.989257812 c 4
 329.006835938 521.169921875 323.098632812 502.700195312 320.879882812 492.357421875 c 4
 314.231445312 462.807617188 314.970703125 233.049804688 320.879882812 228.618164062 c 4
 324.575195312 227.141601562 325.314453125 222.70703125 323.098632812 219.752929688 c 4
 321.619140625 216.05859375 326.791015625 196.111328125 334.91796875 173.94921875 c 4
 343.782226562 151.786132812 355.603515625 119.280273438 362.251953125 100.811523438 c 4
 379.982421875 49.8359375 406.578125 12.1591796875 430.95703125 3.2939453125 c 4
 442.77734375 -0.3994140625 452.380859375 -7.048828125 452.380859375 -10.7421875 c 4
 452.380859375 -23.3017578125 515.176757812 -17.3916015625 541.033203125 -2.615234375 c 4
 555.069335938 5.509765625 580.189453125 18.8076171875 596.44140625 26.9345703125 c 4
 612.693359375 34.322265625 637.073242188 49.09765625 651.110351562 59.44140625 c 4
 665.145507812 70.521484375 679.920898438 78.6484375 683.616210938 78.6484375 c 4
 687.30859375 78.6484375 702.823242188 87.5126953125 717.599609375 98.595703125 c 4
 770.790039062 139.2265625 796.645507812 147.354492188 804.033203125 126.668945312 c 4
 813.638671875 103.02734375 697.65234375 -4.0927734375 631.90234375 -33.6435546875 c 4
 614.911132812 -41.03125 597.1796875 -52.8525390625 593.487304688 -60.2392578125 c 4
 589.791992188 -66.888671875 584.619140625 -70.58203125 581.665039062 -67.626953125 c 4
 579.44921875 -65.412109375 558.026367188 -69.8427734375 535.123046875 -77.9697265625 c 4
 512.220703125 -86.0966796875 481.192382812 -93.4833984375 467.15625 -94.962890625 c 4
 436.12890625 -97.9169921875 375.549804688 -73.5380859375 346.73828125 -47.6796875 c 4
 323.098632812 -26.255859375 282.46484375 49.8359375 282.46484375 71.9990234375 c 4
 282.46484375 79.38671875 279.510742188 86.03515625 275.815429688 86.03515625 c 4
 272.123046875 86.03515625 266.951171875 103.766601562 263.995117188 125.19140625 c 4
 261.041015625 145.875976562 255.868164062 167.30078125 252.176757812 170.994140625 c 4
 234.4453125 193.896484375 228.53515625 380.8046875 241.83203125 520.431640625 c 4
 247.00390625 574.361328125 267.690429688 627.55078125 287.637695312 639.372070312 c 4
EndSplineSet
EndChar

StartChar: uni3058
Encoding: 9272 12376 23
Width: 1000
VWidth: 0
Flags: H
HStem: 64.8478 66.4321<324.895 489.79>
VStem: 216.959 61.2777<261.668 578.339> 698.588 64.1406<514.254 608.267> 856.078 67.0046<450.822 571.355>
LayerCount: 2
Fore
SplineSet
651.213867188 610.7109375 m 4
 657.657226562 612.858398438 665.53125 614.2890625 669.109375 615.005859375 c 4
 674.836914062 615.720703125 702.041015625 589.950195312 703.470703125 582.075195312 c 4
 704.186523438 578.497070312 704.903320312 565.611328125 706.3359375 553.440429688 c 4
 708.483398438 523.375 727.095703125 495.456054688 750.002929688 486.8671875 c 4
 770.046875 478.9921875 770.762695312 473.981445312 755.729492188 452.505859375 c 4
 733.538085938 421.0078125 712.061523438 419.575195312 669.109375 445.346679688 c 4
 634.75 466.106445312 629.73828125 472.549804688 619 507.625976562 c 4
 608.262695312 544.850585938 608.978515625 546.999023438 623.294921875 577.065429688 c 4
 631.885742188 593.530273438 644.055664062 609.278320312 651.213867188 610.7109375 c 4
167.928710938 583.125 m 4
 223.765625 595.295898438 225.197265625 591.715820312 210.880859375 463.577148438 c 4
 204.438476562 405.59375 197.280273438 354.766601562 195.130859375 351.186523438 c 4
 192.983398438 347.608398438 195.84765625 336.870117188 200.858398438 326.848632812 c 4
 208.016601562 313.962890625 208.016601562 308.236328125 201.573242188 303.942382812 c 4
 195.84765625 300.361328125 195.130859375 285.329101562 200.858398438 245.95703125 c 4
 204.438476562 216.60546875 209.448242188 180.096679688 210.880859375 165.065429688 c 4
 218.754882812 101.352539062 278.88671875 32.6298828125 337.586914062 19.74609375 c 4
 359.780273438 14.734375 376.244140625 13.3037109375 377.67578125 17.5966796875 c 4
 379.106445312 21.1767578125 389.844726562 24.0400390625 402.015625 24.0400390625 c 4
 414.18359375 24.0400390625 437.091796875 33.3466796875 455.704101562 45.515625 c 4
 472.885742188 57.685546875 488.633789062 66.9912109375 490.78125 66.9912109375 c 4
 492.211914062 66.9912109375 499.37109375 72.71875 506.529296875 79.876953125 c 4
 513.6875 86.3193359375 532.30078125 103.5 548.048828125 117.817382812 c 4
 563.08203125 132.133789062 585.275390625 154.327148438 596.728515625 166.495117188 c 4
 619.634765625 190.836914062 637.533203125 194.4140625 651.133789062 177.950195312 c 4
 660.439453125 166.495117188 654.711914062 138.577148438 641.828125 138.577148438 c 4
 636.81640625 138.577148438 623.930664062 119.250976562 613.192382812 95.625 c 4
 601.024414062 70.5712890625 587.422851562 51.2431640625 578.833007812 49.095703125 c 4
 570.240234375 46.2314453125 548.048828125 29.7666015625 528.72265625 11.1533203125 c 4
 472.168945312 -41.818359375 444.251953125 -53.9892578125 369.0859375 -59 c 4
 308.237304688 -63.2939453125 300.362304688 -62.578125 262.422851562 -44.6826171875 c 4
 239.515625 -34.66015625 221.619140625 -21.7744140625 221.619140625 -15.33203125 c 4
 221.619140625 -9.60546875 213.744140625 -3.1630859375 203.72265625 -0.298828125 c 4
 182.245117188 4.7109375 150.033203125 41.2216796875 150.033203125 59.8330078125 c 4
 150.033203125 66.2763671875 145.737304688 76.298828125 140.010742188 80.59375 c 4
 106.366210938 108.510742188 102.78515625 406.30859375 134.283203125 530.153320312 c 4
 145.737304688 574.536132812 149.31640625 579.547851562 167.928710938 583.125 c 4
835.905273438 564.895507812 m 4
 858.8125 582.791992188 890.3125 584.224609375 903.913085938 568.474609375 c 4
 911.071289062 559.883789062 911.071289062 552.725585938 903.913085938 532.681640625 c 4
 896.038085938 510.489257812 896.754882812 504.045898438 914.650390625 467.538085938 c 4
 933.978515625 426.017578125 933.262695312 413.849609375 908.922851562 398.81640625 c 4
 903.197265625 394.520507812 890.3125 393.805664062 879.572265625 396.66796875 c 4
 846.643554688 404.541992188 804.408203125 492.59375 817.29296875 526.239257812 c 4
 820.872070312 535.544921875 822.3046875 544.135742188 820.157226562 546.282226562 c 4
 818.008789062 548.430664062 825.166992188 556.305664062 835.905273438 564.895507812 c 4
EndSplineSet
EndChar

StartChar: uni3059
Encoding: 9273 12377 24
Width: 1000
VWidth: 0
Flags: H
HStem: 475.492 57.2685<676.787 835.006>
VStem: 399.063 72.7302<101.548 231.53> 562.278 52.6881<-113.007 -43.0109> 588.049 61.2777<554.649 680.979> 608.094 69.8673<387.33 475.705> 644.173 50.9691<54.413 215.075>
LayerCount: 2
Fore
SplineSet
597.862304688 702.631835938 m 0xd0
 631.858398438 711.130859375 642.178710938 707.48828125 654.926757812 681.385742188 c 0xd0
 661.603515625 667.423828125 667.067382812 647.999023438 667.067382812 638.892578125 c 0
 667.067382812 629.178710938 671.317382812 611.57421875 676.171875 599.43359375 c 0
 681.029296875 587.900390625 685.278320312 573.331054688 685.278320312 567.260742188 c 0
 685.278320312 548.44140625 709.560546875 542.37109375 770.264648438 545.40625 c 0
 801.831054688 546.62109375 833.399414062 549.048828125 840.076171875 550.262695312 c 0
 849.788085938 551.4765625 852.82421875 548.44140625 854.038085938 533.264648438 c 0
 856.465820312 510.198242188 844.932617188 499.877929688 814.579101562 496.235351562 c 0
 802.438476562 495.021484375 789.083007812 491.37890625 785.442382812 488.344726562 c 0
 781.799804688 485.30859375 757.516601562 483.487304688 732.022460938 484.702148438 c 0
 706.524414062 485.30859375 685.278320312 484.702148438 685.278320312 482.880859375 c 0xc8
 685.278320312 481.059570312 682.2421875 448.278320312 678.600585938 411.249023438 c 0
 672.530273438 343.259765625 672.530273438 342.65234375 687.099609375 326.869140625 c 0
 713.203125 298.944335938 724.735351562 202.423828125 711.380859375 127.150390625 c 0
 707.1328125 104.083007812 703.490234375 77.978515625 703.490234375 70.6943359375 c 0
 703.490234375 57.33984375 672.530273438 -13.685546875 633.072265625 -89.56640625 c 0
 625.180664062 -105.956054688 618.50390625 -122.346679688 618.50390625 -127.203125 c 0
 618.50390625 -139.344726562 607.576171875 -141.771484375 576.010742188 -137.5234375 c 0
 545.658203125 -133.274414062 543.8359375 -127.203125 562.654296875 -90.78125 c 0
 626.39453125 28.8076171875 647.642578125 90.1201171875 649.462890625 160.537109375 c 0xe4
 650.0703125 189.069335938 648.249023438 211.530273438 645.212890625 211.530273438 c 0
 642.178710938 210.923828125 630.64453125 192.103515625 619.716796875 169.037109375 c 0
 608.18359375 145.96875 593.006835938 120.473632812 585.115234375 111.973632812 c 0
 577.831054688 103.475585938 566.904296875 88.298828125 562.047851562 77.978515625 c 0
 556.583984375 67.66015625 542.622070312 51.26953125 530.481445312 41.5556640625 c 0
 518.33984375 31.84375 500.736328125 17.880859375 491.022460938 10.5966796875 c 0
 458.2421875 -16.11328125 429.104492188 -1.5439453125 399.965820312 56.125 c 0
 388.430664062 77.978515625 387.217773438 88.298828125 389.646484375 122.293945312 c 0
 391.466796875 144.146484375 396.32421875 165.39453125 399.358398438 168.430664062 c 0
 403.000976562 172.071289062 406.036132812 182.391601562 406.036132812 191.497070312 c 0
 406.036132812 200.603515625 408.46484375 209.708007812 411.499023438 212.13671875 c 0
 414.53515625 213.958007812 421.8203125 229.7421875 427.889648438 247.346679688 c 0
 441.245117188 288.625976562 450.958984375 302.587890625 489.201171875 340.830078125 c 0
 525.017578125 377.25390625 557.19140625 393.037109375 588.758789062 391.823242188 c 2
 611.219726562 390.610351562 l 1xc8
 611.826171875 442.208007812 l 1
 612.432617188 494.415039062 l 1
 596.041992188 495.62890625 l 2
 560.2265625 497.448242188 506.19921875 493.200195312 500.736328125 487.736328125 c 0
 497.092773438 484.702148438 481.310546875 482.2734375 464.919921875 482.2734375 c 0
 449.135742188 482.2734375 430.317382812 479.23828125 423.640625 475.596679688 c 0
 412.713867188 470.1328125 340.474609375 451.921875 322.870117188 450.70703125 c 0
 318.622070312 450.100585938 314.978515625 447.670898438 314.978515625 445.243164062 c 0
 314.978515625 442.815429688 299.1953125 436.137695312 280.376953125 430.067382812 c 0
 260.951171875 424.603515625 240.918945312 417.92578125 236.063476562 415.498046875 c 0
 230.599609375 413.0703125 217.244140625 408.8203125 205.709960938 406.392578125 c 0
 194.176757812 403.96484375 182.03515625 399.71484375 178.392578125 397.287109375 c 0
 173.53515625 393.64453125 97.048828125 373.004882812 88.548828125 373.004882812 c 0
 86.728515625 373.004882812 84.30078125 379.075195312 82.4794921875 386.359375 c 0
 81.2646484375 394.250976562 78.23046875 404.571289062 75.8017578125 409.428710938 c 0
 73.3740234375 416.10546875 78.23046875 421.568359375 91.5849609375 428.852539062 c 0
 121.9375 444.030273438 171.108398438 464.668945312 185.677734375 467.703125 c 0
 200.853515625 470.739257812 294.33984375 501.69921875 313.765625 510.198242188 c 0
 324.692382812 515.053710938 348.973632812 520.517578125 368.399414062 522.338867188 c 0
 387.217773438 524.766601562 406.642578125 529.016601562 410.892578125 532.658203125 c 0
 415.142578125 535.693359375 424.247070312 539.334960938 432.139648438 540.55078125 c 0
 439.423828125 541.157226562 466.133789062 545.40625 491.022460938 549.048828125 c 0
 515.912109375 552.69140625 552.942382812 557.546875 572.974609375 559.9765625 c 0
 615.467773438 564.83203125 619.110351562 572.724609375 603.326171875 619.466796875 c 0
 597.862304688 635.249023438 592.399414062 659.53125 589.971679688 674.1015625 c 0
 586.935546875 695.955078125 588.151367188 700.204101562 597.862304688 702.631835938 c 0xd0
591.79296875 285.58984375 m 0
 591.185546875 307.443359375 589.971679688 309.264648438 572.974609375 310.478515625 c 0
 538.372070312 313.514648438 523.197265625 298.336914062 494.665039062 233.383789062 c 0
 482.524414062 205.459960938 466.740234375 135.041015625 466.740234375 108.331054688 c 0
 466.740234375 92.5478515625 469.168945312 87.6923828125 477.66796875 87.6923828125 c 0
 488.594726562 87.6923828125 539.587890625 141.719726562 539.587890625 153.252929688 c 0
 539.587890625 156.895507812 551.727539062 182.391601562 566.296875 210.923828125 c 0
 584.5078125 247.346679688 592.399414062 268.591796875 591.79296875 285.58984375 c 0
EndSplineSet
EndChar

StartChar: uni305A
Encoding: 9274 12378 25
Width: 1000
VWidth: 0
Flags: HW
HStem: -74.1128 32.6435<504.034 539.321> 432.715 58.4137<665.542 755.536> 432.715 48.1051<665.542 760.316> 448.178 62.9954<125.011 541.44>
VStem: 939.848 60.1314<475.788 585.012>
LayerCount: 2
Fore
SplineSet
575.887695312 696.655273438 m 4xd0
 609.883789062 705.154296875 620.204101562 701.51171875 632.952148438 675.409179688 c 4xd0
 639.62890625 661.447265625 645.092773438 642.022460938 645.092773438 632.916015625 c 4
 645.092773438 623.202148438 649.342773438 605.59765625 654.197265625 593.45703125 c 4
 659.0546875 581.923828125 663.303710938 567.354492188 663.303710938 561.284179688 c 4
 663.303710938 542.46484375 687.5859375 536.39453125 748.290039062 539.4296875 c 4
 779.856445312 540.64453125 811.424804688 543.072265625 818.1015625 544.286132812 c 4
 827.813476562 545.5 830.849609375 542.46484375 832.063476562 527.288085938 c 4
 834.491210938 504.221679688 822.958007812 493.901367188 792.604492188 490.258789062 c 4
 780.463867188 489.044921875 767.108398438 485.40234375 763.467773438 482.368164062 c 4
 759.825195312 479.33203125 735.541992188 477.510742188 710.047851562 478.725585938 c 4
 684.549804688 479.33203125 663.303710938 478.725585938 663.303710938 476.904296875 c 4xc8
 663.303710938 475.083007812 660.267578125 442.301757812 656.625976562 405.272460938 c 4
 650.555664062 337.283203125 650.555664062 336.67578125 665.125 320.892578125 c 4
 691.228515625 292.967773438 702.760742188 196.447265625 689.40625 121.173828125 c 4
 685.158203125 98.1064453125 681.515625 72.001953125 681.515625 64.7177734375 c 4
 681.515625 51.36328125 650.555664062 -19.662109375 611.09765625 -95.54296875 c 4
 603.206054688 -111.932617188 596.529296875 -128.323242188 596.529296875 -133.1796875 c 4
 596.529296875 -145.321289062 585.6015625 -147.748046875 554.036132812 -143.5 c 4
 523.68359375 -139.250976562 521.861328125 -133.1796875 540.6796875 -96.7578125 c 4
 604.419921875 22.8310546875 625.66796875 84.1435546875 627.48828125 154.560546875 c 4xe4
 628.095703125 183.092773438 626.274414062 205.553710938 623.23828125 205.553710938 c 4
 620.204101562 204.947265625 608.669921875 186.126953125 597.7421875 163.060546875 c 4
 586.208984375 139.9921875 571.032226562 114.497070312 563.140625 105.997070312 c 4
 555.856445312 97.4990234375 544.9296875 82.322265625 540.073242188 72.001953125 c 4
 534.609375 61.68359375 520.647460938 45.29296875 508.506835938 35.5791015625 c 4
 496.365234375 25.8671875 478.76171875 11.904296875 469.047851562 4.6201171875 c 4
 436.267578125 -22.08984375 407.129882812 -7.5205078125 377.991210938 50.1484375 c 4
 366.456054688 72.001953125 365.243164062 82.322265625 367.671875 116.317382812 c 4
 369.4921875 138.169921875 374.349609375 159.41796875 377.383789062 162.454101562 c 4
 381.026367188 166.094726562 384.061523438 176.415039062 384.061523438 185.520507812 c 4
 384.061523438 194.626953125 386.490234375 203.731445312 389.524414062 206.16015625 c 4
 392.560546875 207.981445312 399.845703125 223.765625 405.915039062 241.370117188 c 4
 419.270507812 282.649414062 428.984375 296.611328125 467.2265625 334.853515625 c 4
 503.04296875 371.27734375 535.216796875 387.060546875 566.784179688 385.846679688 c 6
 589.245117188 384.633789062 l 5xc8
 589.8515625 436.231445312 l 5
 590.458007812 488.438476562 l 5
 574.067382812 489.65234375 l 6
 538.251953125 491.471679688 484.224609375 487.223632812 478.76171875 481.759765625 c 4
 475.118164062 478.725585938 459.3359375 476.296875 442.9453125 476.296875 c 4
 427.161132812 476.296875 408.342773438 473.26171875 401.666015625 469.620117188 c 4
 390.739257812 464.15625 318.5 445.9453125 300.895507812 444.73046875 c 4
 296.647460938 444.124023438 293.00390625 441.694335938 293.00390625 439.266601562 c 4
 293.00390625 436.838867188 277.220703125 430.161132812 258.40234375 424.090820312 c 4
 238.9765625 418.626953125 218.944335938 411.94921875 214.088867188 409.521484375 c 4
 208.625 407.09375 195.26953125 402.84375 183.735351562 400.416015625 c 4
 172.202148438 397.98828125 160.060546875 393.73828125 156.41796875 391.310546875 c 4
 151.560546875 387.66796875 75.07421875 367.028320312 66.57421875 367.028320312 c 4
 64.75390625 367.028320312 62.326171875 373.098632812 60.5048828125 380.3828125 c 4
 59.2900390625 388.274414062 56.255859375 398.594726562 53.8271484375 403.452148438 c 4
 51.3994140625 410.12890625 56.255859375 415.591796875 69.6103515625 422.875976562 c 4
 99.962890625 438.053710938 149.133789062 458.692382812 163.703125 461.7265625 c 4
 178.87890625 464.762695312 272.365234375 495.72265625 291.791015625 504.221679688 c 4
 302.717773438 509.077148438 326.999023438 514.541015625 346.424804688 516.362304688 c 4
 365.243164062 518.790039062 384.66796875 523.040039062 388.91796875 526.681640625 c 4
 393.16796875 529.716796875 402.272460938 533.358398438 410.165039062 534.57421875 c 4
 417.44921875 535.180664062 444.159179688 539.4296875 469.047851562 543.072265625 c 4
 493.9375 546.71484375 530.967773438 551.5703125 551 554 c 4
 593.493164062 558.85546875 597.135742188 566.748046875 581.3515625 613.490234375 c 4
 575.887695312 629.272460938 570.424804688 653.5546875 567.997070312 668.125 c 4
 564.9609375 689.978515625 566.176757812 694.227539062 575.887695312 696.655273438 c 4xd0
591.79296875 285.58984375 m 0
 591.185546875 307.443359375 589.971679688 309.264648438 572.974609375 310.478515625 c 0
 538.372070312 313.514648438 523.197265625 298.336914062 494.665039062 233.383789062 c 0
 482.524414062 205.459960938 466.740234375 135.041015625 466.740234375 108.331054688 c 0
 466.740234375 92.5478515625 469.168945312 87.6923828125 477.66796875 87.6923828125 c 0
 488.594726562 87.6923828125 539.587890625 141.719726562 539.587890625 153.252929688 c 0
 539.587890625 156.895507812 551.727539062 182.391601562 566.296875 210.923828125 c 0
 584.5078125 247.346679688 592.399414062 268.591796875 591.79296875 285.58984375 c 0
780.69140625 744.415039062 m 0x88
 806.4609375 749.569335938 824.21484375 748.422851562 824.788085938 741.55078125 c 0
 824.788085938 737.541992188 825.93359375 707.189453125 826.505859375 674.545898438 c 0
 827.651367188 625.868164062 829.369140625 614.415039062 837.38671875 609.833007812 c 0
 851.703125 601.814453125 849.413085938 578.334960938 833.377929688 568.026367188 c 0
 820.779296875 559.436523438 817.342773438 559.436523438 803.026367188 567.454101562 c 0
 782.409179688 577.762695312 776.681640625 585.20703125 766.946289062 610.978515625 c 0
 749.192382812 661.375 756.637695312 739.833007812 780.69140625 744.415039062 c 0x88
883.774414062 682.564453125 m 0
 900.955078125 699.745117188 906.681640625 700.317382812 921 686 c 0
 929.588867188 677.41015625 932.453125 667.1015625 931.879882812 645.33984375 c 0
 931.879882812 629.303710938 935.31640625 612.123046875 939.897460938 606.96875 c 0
 945.625 599.524414062 945.625 597.234375 940.470703125 595.515625 c 0
 936.4609375 593.797851562 933.026367188 589.215820312 933.026367188 585.20703125 c 0
 933.026367188 581.19921875 923.862304688 576.044921875 912.409179688 573.752929688 c 0
 882.056640625 568.598632812 874.611328125 578.907226562 871.748046875 627.5859375 c 0
 869.45703125 664.811523438 870.603515625 669.391601562 883.774414062 682.564453125 c 0
EndSplineSet
EndChar

StartChar: uni305B
Encoding: 9275 12379 26
Width: 1000
VWidth: 0
Flags: H
HStem: 319.421 83.6113<139.563 315.249> 363.517 50.9691<752.646 823.81> 368.671 57.2685<723.293 823.728> 370.963 61.8502<451.945 633.495> 491.226 64.7131<452.438 488.336>
VStem: 680.746 50.3966<491.703 615.882>
LayerCount: 2
Fore
SplineSet
741.125 632.09765625 m 4x1c
 745.65625 636.626953125 756.657226562 639.86328125 767.01171875 639.86328125 c 4
 792.249023438 639.86328125 800.662109375 620.44921875 795.485351562 575.795898438 c 4
 792.896484375 555.735351562 790.30859375 535.026367188 790.30859375 529.849609375 c 4
 789.661132812 524.672851562 786.424804688 497.493164062 781.89453125 470.313476562 c 4
 776.071289062 433.426757812 776.071289062 419.836914062 781.248046875 419.189453125 c 4
 785.130859375 418.54296875 800.013671875 417.896484375 814.252929688 417.247070312 c 4x2c
 828.489257812 416.600585938 844.666992188 414.012695312 849.844726562 412.072265625 c 4
 855.022460938 409.481445312 867.317382812 406.247070312 877.670898438 404.305664062 c 4
 892.555664062 400.422851562 895.143554688 397.186523438 895.143554688 377.772460938 c 4
 895.143554688 354.4765625 876.375976562 337.002929688 860.846679688 346.709960938 c 4x4c
 856.961914062 349.299804688 834.959960938 351.887695312 813.603515625 352.534179688 c 6x2c
 773.482421875 354.4765625 l 5
 766.36328125 315.646484375 l 6
 761.833984375 294.291015625 754.71484375 275.525390625 750.185546875 273.583984375 c 4
 745.0078125 271.642578125 739.83203125 252.875 737.2421875 225.047851562 c 4
 732.06640625 166.159179688 711.356445312 120.859375 691.942382812 124.743164062 c 4
 660.881835938 130.567382812 655.704101562 135.743164062 655.704101562 162.275390625 c 4
 655.704101562 176.513671875 658.291992188 192.69140625 661.528320312 198.516601562 c 4
 667.352539062 209.517578125 669.940429688 225.047851562 679 315 c 4
 684.176757812 360.299804688 690.649414062 355.770507812 616.875976562 358.358398438 c 4
 593.578125 359.65234375 562.515625 357.711914062 546.984375 355.124023438 c 4
 532.100585938 352.534179688 518.510742188 352.534179688 516.569335938 355.124023438 c 4x1c
 512.686523438 361.594726562 475.799804688 355.124023438 468.033203125 346.0625 c 4
 464.797851562 341.534179688 460.915039062 325.354492188 458.973632812 310.470703125 c 4
 457.680664062 295.5859375 455.090820312 281.99609375 452.502929688 279.408203125 c 4
 446.03125 272.2890625 447.97265625 214.047851562 455.090820312 209.517578125 c 4
 458.973632812 206.928710938 460.268554688 199.809570312 458.327148438 193.985351562 c 4
 451.856445312 173.924804688 503.625976562 89.796875 522.393554688 89.796875 c 4
 526.276367188 89.796875 532.747070312 84.619140625 537.27734375 77.5009765625 c 4
 550.219726562 56.79296875 604.580078125 30.2607421875 639.524414062 27.0244140625 c 4
 657.645507812 25.7294921875 682.236328125 23.7890625 693.884765625 22.4951171875 c 4
 706.180664062 21.2001953125 721.064453125 22.4951171875 726.2421875 25.0830078125 c 4
 773.482421875 48.380859375 784.484375 50.96875 794.838867188 40.6142578125 c 4
 809.075195312 26.3779296875 807.1328125 15.3759765625 785.77734375 -5.9794921875 c 4
 773.482421875 -17.6279296875 756.008789062 -26.6875 738.537109375 -29.923828125 c 4
 723.004882812 -33.1591796875 703.590820312 -36.39453125 694.532226562 -38.3359375 c 4
 654.409179688 -45.4541015625 587.107421875 -42.21875 565.10546875 -31.8642578125 c 4
 552.80859375 -26.0400390625 532.100585938 -16.9814453125 519.803710938 -11.1572265625 c 4
 482.271484375 6.3154296875 471.270507812 14.0810546875 447.97265625 41.26171875 c 4
 435.676757812 55.4990234375 424.676757812 68.44140625 422.734375 70.3828125 c 4
 417.556640625 75.560546875 399.4375 116.9765625 390.376953125 144.803710938 c 4
 382.611328125 168.747070312 378.728515625 204.987304688 375.494140625 291.704101562 c 4
 374.19921875 311.764648438 372.256835938 329.885742188 370.962890625 331.826171875 c 4
 369.021484375 333.120117188 341.84375 331.826171875 310.1328125 327.943359375 c 4
 271.305664062 324.060546875 246.067382812 317.588867188 234.41796875 309.17578125 c 4
 224.7109375 302.705078125 209.826171875 296.881835938 200.767578125 296.881835938 c 4
 192.353515625 296.881835938 177.469726562 291.056640625 167.762695312 283.290039062 c 4
 154.172851562 272.2890625 145.759765625 270.99609375 121.815429688 274.877929688 c 4
 97.224609375 278.114257812 90.7529296875 281.99609375 82.3408203125 300.763671875 c 4
 68.1044921875 330.532226562 72.6328125 345.416015625 94.6357421875 344.122070312 c 4
 104.342773438 343.475585938 112.109375 345.416015625 112.109375 348.004882812 c 4
 112.109375 356.416992188 165.821289062 390.715820312 180.057617188 391.362304688 c 4x8c
 237.005859375 394.598632812 310.1328125 402.364257812 315.309570312 404.952148438 c 4
 318.545898438 406.89453125 337.3125 410.776367188 357.373046875 412.71875 c 6
 393.61328125 416.600585938 l 5
 399.4375 455.428710938 l 6
 405.262695312 498.787109375 418.852539062 532.4375 439.559570312 553.793945312 c 4
 451.208007812 566.08984375 457.680664062 568.030273438 486.153320312 564.147460938 c 4
 512.038085938 561.559570312 519.157226562 557.676757812 522.393554688 547.323242188 c 4
 526.276367188 532.4375 499.096679688 491.021484375 486.153320312 491.021484375 c 4
 482.271484375 491.021484375 480.975585938 489.081054688 482.918945312 486.4921875 c 4
 485.506835938 484.55078125 484.860351562 479.373046875 481.623046875 475.491210938 c 4
 478.387695312 471.607421875 474.504882812 457.37109375 471.916992188 443.78125 c 4
 467.38671875 421.130859375 468.680664062 419.836914062 479.03515625 425.013671875 c 4
 485.506835938 428.896484375 531.452148438 431.486328125 581.283203125 431.486328125 c 4
 693.884765625 431.486328125 688.060546875 430.837890625 688.060546875 442.486328125 c 4
 688.060546875 447.663085938 690.649414062 452.193359375 693.884765625 452.193359375 c 4
 699.0625 452.193359375 706.180664062 487.78515625 711.356445312 545.380859375 c 4
 713.298828125 562.854492188 718.4765625 582.915039062 723.65234375 590.681640625 c 4
 728.830078125 597.799804688 733.359375 608.799804688 733.359375 613.977539062 c 4
 733.359375 619.801757812 736.594726562 627.567382812 741.125 632.09765625 c 4x1c
EndSplineSet
EndChar

StartChar: uni305C
Encoding: 9276 12380 27
Width: 1000
VWidth: 0
Flags: H
HStem: -16.6997 69.8673<490.995 654.111> 328.631 61.2777<365.565 562.032>
VStem: 299.134 66.4321<389.909 465.192> 527.063 79.0309<144.054 259.562> 894.728 71.5863<438.738 577.765>
LayerCount: 2
Fore
SplineSet
817.416015625 664.797851562 m 0
 843.758789062 670.524414062 856.358398438 661.934570312 852.349609375 640.171875 c 0
 850.059570312 630.436523438 846.049804688 620.701171875 843.186523438 618.982421875 c 0
 831.16015625 611.538085938 836.88671875 503.30078125 850.059570312 481.538085938 c 0
 854.067382812 475.23828125 861.512695312 468.366210938 866.666015625 467.220703125 c 0
 879.838867188 462.639648438 883.846679688 436.295898438 874.112304688 417.397460938 c 0
 866.09375 401.934570312 854.639648438 395.634765625 854.639648438 407.088867188 c 0
 854.639648438 410.524414062 847.1953125 412.815429688 838.604492188 412.815429688 c 0
 827.724609375 412.815429688 818.560546875 417.969726562 810.543945312 428.8515625 c 0
 791.64453125 454.048828125 778.47265625 483.255859375 777.328125 501.581054688 c 0
 776.181640625 510.745117188 773.318359375 535.370117188 769.881835938 555.987304688 c 0
 766.446289062 576.604492188 764.727539062 598.939453125 765.874023438 605.811523438 c 0
 767.591796875 613.255859375 769.881835938 625.282226562 771.600585938 633.30078125 c 0
 775.036132812 648.189453125 789.926757812 658.498046875 817.416015625 664.797851562 c 0
911.908203125 568.5859375 m 0
 922.7890625 578.89453125 932.525390625 584.62109375 938.251953125 582.331054688 c 0
 943.40625 580.612304688 950.8515625 578.89453125 954.860351562 578.89453125 c 0
 970.323242188 578.89453125 974.905273438 559.423828125 966.314453125 530.216796875 c 0
 954.860351562 492.418945312 955.432617188 484.400390625 972.041015625 466.647460938 c 0
 989.793945312 447.749023438 989.793945312 446.604492188 971.46875 424.26953125 c 0
 956.578125 407.088867188 956.005859375 407.088867188 941.116210938 416.250976562 c 0
 933.09765625 421.977539062 920.499023438 431.713867188 914.200195312 438.013671875 c 0
 898.737304688 452.903320312 882.12890625 505.590820312 889.575195312 516.471679688 c 0
 892.4375 521.053710938 894.727539062 530.216796875 894.727539062 537.661132812 c 0
 894.727539062 545.106445312 902.74609375 558.8515625 911.908203125 568.5859375 c 0
634.727539062 552.55078125 m 0
 646.181640625 564.578125 662.216796875 564.005859375 674.243164062 551.977539062 c 0
 685.124023438 541.096679688 684.551757812 530.7890625 666.2265625 444.885742188 c 0
 659.354492188 413.9609375 654.772460938 387.6171875 655.344726562 387.043945312 c 0
 656.490234375 385.899414062 667.943359375 380.171875 681.116210938 373.30078125 c 0
 712.61328125 357.264648438 721.204101562 342.375 708.604492188 323.4765625 c 0
 699.442382812 309.158203125 689.133789062 306.295898438 679.969726562 314.885742188 c 0
 671.953125 322.331054688 649.045898438 312.022460938 645.036132812 299.99609375 c 0
 643.318359375 294.26953125 637.01953125 279.37890625 631.291992188 266.780273438 c 0
 624.993164062 254.181640625 614.112304688 224.974609375 606.09375 201.493164062 c 0
 592.349609375 159.115234375 560.278320312 112.727539062 552.26171875 123.609375 c 0
 549.969726562 127.043945312 543.09765625 132.198242188 536.798828125 135.634765625 c 0
 527.634765625 140.7890625 525.91796875 147.088867188 527.0625 164.26953125 c 0
 528.208984375 176.868164062 531.072265625 189.466796875 533.935546875 192.331054688 c 0
 543.670898438 204.9296875 564.288085938 287.397460938 563.71484375 312.022460938 c 0
 563.142578125 328.630859375 559.133789062 329.775390625 506.446289062 328.630859375 c 0
 368.428710938 325.766601562 351.248046875 320.612304688 341.512695312 275.370117188 c 0
 335.211914062 245.590820312 334.067382812 147.661132812 340.366210938 140.216796875 c 0
 343.23046875 136.208007812 344.948242188 131.053710938 344.375976562 128.763671875 c 0
 338.076171875 93.255859375 371.291992188 53.740234375 419.397460938 39.423828125 c 0
 447.458984375 30.8330078125 485.829101562 25.6787109375 493.846679688 29.115234375 c 0
 495.565429688 29.6875 514.463867188 31.4052734375 536.2265625 32.55078125 c 0
 557.98828125 33.697265625 586.623046875 39.99609375 599.793945312 45.7236328125 c 0
 613.5390625 52.0224609375 626.137695312 54.8857421875 628.428710938 53.16796875 c 0
 630.719726562 50.8779296875 635.301757812 53.16796875 638.737304688 57.7490234375 c 0
 652.482421875 74.9296875 700.014648438 68.630859375 700.014648438 49.732421875 c 0
 700.014648438 33.697265625 611.8203125 -16.69921875 583.758789062 -16.69921875 c 0
 576.314453125 -16.69921875 567.724609375 -19.5634765625 564.860351562 -22.4267578125 c 0
 561.423828125 -25.86328125 543.670898438 -29.298828125 524.772460938 -31.017578125 c 0
 506.446289062 -32.162109375 490.983398438 -33.8798828125 490.983398438 -33.8798828125 c 1
 490.983398438 -37.31640625 440.586914062 -36.171875 425.124023438 -32.7353515625 c 0
 335.211914062 -12.1181640625 295.697265625 18.806640625 279.088867188 80.6572265625 c 0
 267.634765625 123.036132812 265.344726562 167.131835938 271.64453125 228.982421875 c 0
 273.935546875 253.036132812 276.798828125 279.952148438 277.37109375 289.6875 c 2
 279.088867188 306.868164062 l 1
 241.865234375 305.150390625 l 2
 221.248046875 304.005859375 197.1953125 299.423828125 188.032226562 294.841796875 c 0
 178.869140625 290.260742188 165.697265625 286.823242188 158.825195312 286.823242188 c 0
 152.525390625 286.823242188 134.772460938 279.37890625 119.881835938 269.643554688 c 0
 84.9482421875 247.881835938 69.4853515625 247.881835938 50.5869140625 270.216796875 c 0
 33.40625 290.833007812 32.833984375 294.26953125 44.8603515625 306.295898438 c 0
 87.240234375 348.673828125 129.045898438 362.418945312 241.865234375 369.86328125 c 0
 287.6796875 373.30078125 299.133789062 380.171875 299.133789062 405.370117188 c 0
 299.133789062 429.99609375 316.88671875 489.5546875 332.349609375 518.763671875 c 0
 346.09375 544.533203125 350.102539062 547.397460938 370.147460938 549.115234375 c 0
 409.088867188 552.55078125 419.397460938 547.397460938 419.397460938 523.916015625 c 0
 419.397460938 507.881835938 416.53515625 502.727539062 407.943359375 500.436523438 c 0
 401.64453125 498.71875 394.772460938 491.274414062 393.0546875 483.828125 c 0
 390.763671875 476.383789062 386.181640625 467.79296875 381.600585938 465.502929688 c 0
 371.865234375 459.775390625 358.693359375 396.780273438 365.565429688 389.908203125 c 0
 371.865234375 383.609375 574.0234375 393.34375 580.895507812 400.216796875 c 0
 583.186523438 402.506835938 590.059570312 425.987304688 596.358398438 451.758789062 c 0
 602.658203125 478.1015625 610.102539062 502.727539062 612.966796875 506.163085938 c 0
 615.829101562 510.171875 619.838867188 519.908203125 622.12890625 528.498046875 c 0
 623.846679688 537.088867188 629.575195312 547.969726562 634.727539062 552.55078125 c 0
EndSplineSet
EndChar

StartChar: uni305D
Encoding: 9277 12381 28
Width: 1000
VWidth: 0
Flags: H
HStem: 582.664 54.4045<321.074 378.712> 585.526 85.9028<577.118 602.888>
LayerCount: 2
Fore
SplineSet
454.5625 684.602539062 m 0x80
 492.360351562 690.329101562 590.861328125 685.747070312 593.725585938 678.302734375 c 0
 594.87109375 674.866210938 598.87890625 671.4296875 602.887695312 671.4296875 c 0
 614.341796875 671.4296875 630.950195312 649.666992188 626.940429688 639.932617188 c 0
 625.22265625 635.350585938 617.206054688 628.478515625 608.615234375 625.614257812 c 0
 600.59765625 622.1796875 590.861328125 612.443359375 587.424804688 602.70703125 c 0
 583.990234375 592.970703125 579.408203125 585.526367188 577.118164062 585.526367188 c 0x40
 574.826171875 585.526367188 563.9453125 571.782226562 552.491210938 555.747070312 c 0
 541.610351562 539.139648438 519.275390625 507.640625 503.241210938 485.305664062 c 0
 462.006835938 427.46484375 440.244140625 394.821289062 440.244140625 390.241210938 c 0
 440.244140625 385.086914062 464.298828125 387.94921875 488.923828125 395.967773438 c 0
 536.456054688 410.856445312 618.923828125 442.35546875 630.376953125 449.799804688 c 0
 637.821289062 454.381835938 655.575195312 459.536132812 670.46484375 461.826171875 c 0
 693.9453125 464.690429688 698.52734375 463.544921875 706.543945312 452.6640625 c 0
 718.571289062 434.909179688 717.424804688 421.165039062 703.681640625 416.583984375 c 0
 697.381835938 414.866210938 691.655273438 410.284179688 691.655273438 407.421875 c 0
 691.08203125 404.557617188 689.9375 399.975585938 689.36328125 396.540039062 c 0
 688.791015625 393.676757812 687.645507812 388.522460938 687.073242188 385.659179688 c 0
 687.073242188 382.794921875 674.474609375 367.90625 660.15625 352.443359375 c 0
 645.267578125 337.552734375 625.795898438 313.5 616.059570312 299.182617188 c 0
 594.87109375 268.831054688 560.509765625 201.826171875 560.509765625 192.090820312 c 0
 560.509765625 188.08203125 558.21875 184.645507812 555.35546875 184.645507812 c 0
 552.491210938 184.645507812 548.483398438 172.619140625 546.192382812 158.302734375 c 0
 543.901367188 143.412109375 540.46484375 127.376953125 537.602539062 122.22265625 c 0
 519.275390625 87.861328125 508.39453125 -16.3671875 518.129882812 -54.1650390625 c 0
 525.575195312 -82.2265625 586.852539062 -60.4638671875 613.196289062 -20.94921875 c 0
 617.778320312 -13.50390625 628.659179688 -3.7685546875 636.676757812 0.8134765625 c 0
 649.84765625 7.685546875 653.284179688 7.685546875 666.456054688 -0.9052734375 c 0
 674.474609375 -6.0595703125 680.7734375 -14.0771484375 680.7734375 -19.2314453125 c 0
 680.7734375 -34.1201171875 600.025390625 -110.288085938 569.671875 -124.032226562 c 0
 530.15625 -141.212890625 515.267578125 -142.931640625 487.778320312 -132.623046875 c 0
 468.87890625 -125.178710938 462.006835938 -118.877929688 454.5625 -100.551757812 c 0
 449.98046875 -87.953125 447.690429688 -75.3544921875 449.408203125 -71.91796875 c 0
 451.698242188 -68.482421875 450.552734375 -64.4736328125 447.690429688 -62.181640625 c 0
 436.236328125 -54.7373046875 463.15234375 114.205078125 483.196289062 158.875 c 0
 487.206054688 168.610351562 495.22265625 190.372070312 500.376953125 207.552734375 c 0
 505.53125 224.733398438 515.267578125 250.504882812 521.567382812 264.821289062 c 0
 537.602539062 300.329101562 542.182617188 311.209960938 546.192382812 326.671875 c 0
 548.483398438 333.544921875 552.491210938 339.271484375 555.35546875 339.271484375 c 0
 558.21875 339.271484375 560.509765625 342.134765625 560.509765625 344.999023438 c 0
 560.509765625 351.297851562 516.413085938 346.716796875 506.104492188 339.271484375 c 0
 503.241210938 336.98046875 487.778320312 331.25390625 471.743164062 326.099609375 c 0
 412.756835938 307.201171875 385.83984375 298.610351562 376.676757812 295.747070312 c 0
 371.522460938 294.029296875 360.641601562 298.610351562 352.051757812 306.055664062 c 0
 337.733398438 318.654296875 337.161132812 320.9453125 343.4609375 342.134765625 c 0
 346.897460938 354.733398438 353.196289062 369.05078125 356.6328125 373.6328125 c 0
 360.641601562 378.213867188 372.666992188 397.685546875 382.975585938 416.583984375 c 0
 393.857421875 435.483398438 407.602539062 457.818359375 413.901367188 465.834960938 c 0
 420.7734375 473.852539062 429.36328125 485.879882812 432.799804688 491.606445312 c 0
 436.809570312 497.333984375 446.543945312 511.650390625 454.5625 522.53125 c 0
 462.579101562 533.412109375 474.033203125 554.029296875 480.333007812 568.345703125 c 0
 487.206054688 582.6640625 494.650390625 598.698242188 497.514648438 603.852539062 c 0
 500.950195312 609.579101562 503.241210938 615.305664062 503.241210938 617.025390625 c 0
 503.241210938 623.32421875 449.408203125 619.315429688 435.6640625 611.87109375 c 0
 404.73828125 594.690429688 352.051757812 579.227539062 337.733398438 582.6640625 c 0
 325.134765625 585.526367188 322.844726562 589.536132812 321.125976562 608.43359375 c 0
 319.98046875 628.478515625 321.698242188 632.486328125 334.298828125 637.068359375 c 0
 342.315429688 639.932617188 348.615234375 644.513671875 348.615234375 646.8046875 c 0
 348.615234375 651.958984375 389.84765625 669.711914062 408.747070312 673.1484375 c 0
 415.046875 674.293945312 424.209960938 677.15625 428.791015625 678.875 c 0
 433.373046875 680.592773438 445.3984375 683.456054688 454.5625 684.602539062 c 0x80
EndSplineSet
EndChar

StartChar: uni305E
Encoding: 9278 12382 29
Width: 1000
VWidth: 0
Flags: H
HStem: -53.7458 64.7144<490.985 572.142>
VStem: 707.212 71.0125<643.302 685.066> 861.838 67.0046<525.734 661.218>
LayerCount: 2
Fore
SplineSet
728.400390625 681.584960938 m 0
 738.13671875 687.3125 752.454101562 691.3203125 760.471679688 690.748046875 c 0
 771.924804688 689.030273438 775.361328125 684.448242188 778.224609375 667.267578125 c 0
 779.943359375 655.814453125 779.369140625 644.93359375 776.506835938 643.215820312 c 0
 769.0625 638.633789062 777.65234375 532.11328125 786.815429688 513.215820312 c 0
 797.696289062 489.735351562 787.387695312 474.844726562 759.326171875 474.844726562 c 0
 741.000976562 474.844726562 736.991210938 477.135742188 728.974609375 494.31640625 c 0
 723.8203125 505.197265625 717.520507812 527.532226562 714.65625 544.712890625 c 0
 711.793945312 561.3203125 707.211914062 585.947265625 703.775390625 599.690429688 c 0
 698.048828125 622.025390625 699.193359375 652.950195312 707.211914062 664.977539062 c 0
 708.9296875 668.413085938 718.092773438 675.28515625 728.400390625 681.584960938 c 0
871.573242188 661.541015625 m 0
 888.75390625 673.567382812 912.806640625 671.849609375 923.115234375 656.958984375 c 0
 929.986328125 647.223632812 931.131835938 636.916015625 928.841796875 616.298828125 c 0
 925.977539062 596.25390625 927.696289062 579.646484375 935.713867188 556.739257812 c 2
 946.594726562 525.2421875 l 1
 930.559570312 511.49609375 l 2
 910.515625 494.31640625 904.7890625 494.31640625 898.489257812 510.923828125 c 0
 895.625976562 518.370117188 889.326171875 527.532226562 884.171875 531.541015625 c 0
 879.017578125 535.55078125 875.008789062 544.712890625 875.008789062 551.584960938 c 0
 875.008789062 558.458007812 872.145507812 567.047851562 868.708984375 570.484375 c 0
 865.2734375 573.918945312 861.836914062 593.963867188 861.836914062 615.153320312 c 0
 860.692382812 646.650390625 862.409179688 654.668945312 871.573242188 661.541015625 c 0
456.374023438 615.7265625 m 0
 458.092773438 616.87109375 469.546875 616.298828125 482.145507812 614.581054688 c 0
 495.317382812 612.290039062 510.780273438 610.572265625 517.079101562 610.572265625 c 0
 535.405273438 609.999023438 562.89453125 592.24609375 564.612304688 579.073242188 c 0
 567.475585938 561.893554688 527.9609375 515.505859375 427.166992188 417.00390625 c 0
 380.780273438 371.189453125 342.409179688 331.673828125 342.409179688 329.381835938 c 0
 342.409179688 327.091796875 326.946289062 310.484375 308.048828125 292.73046875 c 0
 289.150390625 274.404296875 273.6875 256.650390625 273.6875 253.215820312 c 0
 273.6875 249.779296875 271.397460938 245.76953125 269.10546875 244.625 c 0
 266.243164062 244.051757812 255.934570312 230.307617188 245.625976562 215.41796875 c 2
 227.299804688 187.928710938 l 1
 243.334960938 191.9375 l 2
 257.079101562 194.80078125 323.51171875 224.008789062 355.008789062 240.615234375 c 0
 360.735351562 243.479492188 367.608398438 245.76953125 370.471679688 245.76953125 c 0
 373.334960938 245.76953125 383.0703125 248.633789062 392.233398438 252.0703125 c 0
 400.823242188 256.078125 412.278320312 259.514648438 416.858398438 260.087890625 c 0
 455.801757812 265.2421875 499.8984375 282.995117188 513.0703125 299.030273438 c 0
 517.65234375 304.184570312 527.387695312 306.474609375 538.841796875 305.330078125 c 0
 548.578125 304.756835938 560.03125 303.612304688 564.0390625 303.612304688 c 0
 567.475585938 303.0390625 574.34765625 295.021484375 579.501953125 285.857421875 c 0
 588.092773438 268.676757812 587.520507812 268.104492188 557.166992188 232.598632812 c 0
 540.559570312 213.127929688 518.796875 189.646484375 509.0625 181.056640625 c 0
 499.326171875 171.893554688 487.299804688 155.28515625 481.573242188 143.831054688 c 0
 476.418945312 132.377929688 466.682617188 115.76953125 460.383789062 107.1796875 c 0
 454.083984375 98.0166015625 449.501953125 83.1279296875 450.075195312 71.099609375 c 0
 450.647460938 59.0732421875 448.357421875 51.056640625 444.34765625 51.056640625 c 0
 432.89453125 51.056640625 470.119140625 15.55078125 490.163085938 6.958984375 c 0
 507.916015625 -0.4853515625 511.924804688 0.087890625 533.6875 10.96875 c 0
 566.903320312 27.00390625 575.493164062 25.857421875 580.075195312 4.6689453125 c 0
 586.946289062 -25.68359375 552.012695312 -51.4541015625 498.75390625 -53.74609375 c 0
 475.2734375 -54.890625 405.405273438 -34.8466796875 405.405273438 -27.4013671875 c 0
 405.405273438 -24.5380859375 400.250976562 -14.802734375 393.37890625 -5.6396484375 c 0
 375.625976562 19.55859375 368.75390625 83.7001953125 380.780273438 109.470703125 c 0
 386.506835938 120.923828125 405.405273438 175.90234375 405.405273438 181.056640625 c 0
 405.405273438 185.065429688 376.198242188 182.202148438 366.461914062 177.620117188 c 0
 350.427734375 169.030273438 284.568359375 142.11328125 251.352539062 130.66015625 c 0
 234.171875 124.360351562 214.701171875 116.341796875 207.828125 111.76171875 c 0
 201.528320312 107.752929688 185.493164062 102.025390625 172.321289062 100.307617188 c 0
 151.704101562 96.298828125 147.696289062 98.0166015625 139.677734375 109.470703125 c 0
 121.352539062 135.2421875 127.65234375 151.849609375 182.629882812 228.588867188 c 0
 197.520507812 249.206054688 218.708984375 276.123046875 229.58984375 288.721679688 c 0
 289.150390625 356.298828125 301.176757812 370.615234375 315.493164062 390.087890625 c 0
 324.083984375 402.11328125 342.409179688 422.73046875 355.581054688 437.047851562 c 0
 390.515625 473.700195312 411.131835938 498.325195312 411.131835938 502.907226562 c 0
 411.131835938 505.197265625 419.150390625 514.360351562 428.3125 523.524414062 c 0
 438.048828125 532.686523438 445.493164062 542.421875 445.493164062 545.28515625 c 0
 445.493164062 548.149414062 431.176757812 548.149414062 412.850585938 545.857421875 c 0
 394.5234375 543.567382812 375.625976562 541.27734375 371.043945312 540.705078125 c 0
 334.392578125 537.267578125 253.642578125 497.752929688 249.0625 481.14453125 c 0
 247.916015625 475.41796875 239.8984375 469.118164062 231.309570312 466.827148438 c 0
 199.23828125 458.809570312 171.749023438 498.897460938 188.357421875 530.396484375 c 0
 196.374023438 545.857421875 232.454101562 565.90234375 273.6875 577.356445312 c 0
 288.004882812 581.9375 309.193359375 588.809570312 321.219726562 592.819335938 c 0
 332.673828125 597.400390625 367.608398438 603.700195312 398.533203125 607.135742188 c 0
 428.884765625 610.572265625 455.229492188 614.581054688 456.374023438 615.7265625 c 0
EndSplineSet
EndChar

StartChar: uni305F
Encoding: 9279 12383 30
Width: 1000
VWidth: 0
Flags: H
HStem: -37.3999 78.4583<554.838 757.327> 161.324 63.5679<460.562 711.379> 470.573 69.2961<136.818 332.514 413.52 561.259>
VStem: 324.045 62.4242<-137.358 468.491> 330.918 55.5508<124.66 278.643>
LayerCount: 2
Fore
SplineSet
371.578125 604.010742188 m 0xe8
 389.904296875 630.926757812 394.485351562 634.362304688 409.948242188 632.64453125 c 0
 425.982421875 630.926757812 427.701171875 628.635742188 429.418945312 610.309570312 c 0
 430.564453125 597.138671875 428.274414062 587.40234375 422.546875 582.248046875 c 0
 417.392578125 578.239257812 413.383789062 567.931640625 413.383789062 558.768554688 c 0
 413.383789062 543.877929688 415.67578125 542.16015625 432.283203125 541.587890625 c 0
 501.005859375 540.442382812 539.375976562 532.997070312 554.837890625 518.107421875 c 0
 586.3359375 488.900390625 566.864257812 477.447265625 484.397460938 477.447265625 c 0
 418.538085938 477.447265625 417.965820312 477.447265625 412.23828125 462.556640625 c 0
 404.221679688 441.3671875 396.203125 394.407226562 392.767578125 349.165039062 c 0
 391.048828125 327.974609375 388.758789062 297.623046875 387.61328125 281.587890625 c 0
 383.032226562 221.455078125 382.458984375 -12.7734375 386.46875 -63.169921875 c 0
 391.62109375 -122.157226562 386.46875 -139.337890625 365.8515625 -139.337890625 c 0
 340.080078125 -138.764648438 334.352539062 -127.884765625 328.053710938 -64.3154296875 c 0
 324.618164062 -31.6728515625 321.75390625 25.0244140625 321.75390625 61.1025390625 c 0
 320.609375 192.8203125 321.75390625 276.43359375 324.043945312 293.041015625 c 0xf0
 325.190429688 302.77734375 328.625976562 348.591796875 330.91796875 395.551757812 c 0
 333.780273438 463.12890625 333.208007812 479.737304688 327.481445312 476.30078125 c 0
 324.043945312 474.010742188 287.392578125 471.719726562 246.732421875 470.57421875 c 0
 206.072265625 470.000976562 171.13671875 467.7109375 168.846679688 465.993164062 c 0
 161.40234375 457.974609375 137.921875 462.556640625 127.041015625 473.4375 c 0
 94.9697265625 505.508789062 160.830078125 535.860351562 272.502929688 539.870117188 c 0
 310.30078125 541.587890625 342.37109375 543.877929688 344.088867188 545.596679688 c 0
 345.806640625 546.7421875 347.525390625 554.186523438 348.670898438 561.05859375 c 0
 349.815429688 567.931640625 360.124023438 587.40234375 371.578125 604.010742188 c 0xe8
483.825195312 233.481445312 m 0
 505.013671875 246.081054688 514.75 246.654296875 537.657226562 238.0625 c 0
 558.274414062 230.045898438 585.190429688 226.037109375 628.141601562 224.891601562 c 0
 647.041015625 224.319335938 673.383789062 220.309570312 685.982421875 216.30078125 c 0
 707.172851562 209.428710938 710.036132812 205.993164062 713.471679688 187.666015625 c 0
 715.763671875 172.205078125 714.618164062 165.904296875 706.599609375 161.896484375 c 0
 697.4375 156.168945312 637.3046875 156.168945312 619.551757812 161.323242188 c 0
 614.969726562 162.46875 590.344726562 161.896484375 565.146484375 159.032226562 c 0
 520.4765625 154.450195312 507.3046875 156.7421875 471.2265625 175.067382812 c 0
 451.75390625 184.803710938 458.625976562 218.01953125 483.825195312 233.481445312 c 0
534.793945312 41.05859375 m 0
 545.102539062 52.51171875 566.291015625 51.3671875 593.208007812 38.1953125 c 0
 631.005859375 20.4423828125 679.68359375 15.2880859375 710.609375 25.5966796875 c 0
 724.92578125 30.1767578125 742.6796875 38.1953125 749.551757812 42.205078125 c 0
 760.432617188 49.6494140625 763.868164062 49.0771484375 776.46875 41.05859375 c 0
 798.229492188 26.7421875 794.793945312 14.7158203125 763.868164062 -5.9013671875 c 0
 715.763671875 -37.400390625 703.1640625 -40.2626953125 625.8515625 -39.1171875 c 2
 554.837890625 -37.400390625 l 1
 538.229492188 -19.6455078125 l 2
 524.485351562 -4.7568359375 521.62109375 2.115234375 524.485351562 15.8603515625 c 0
 526.203125 25.0244140625 530.78515625 36.4775390625 534.793945312 41.05859375 c 0
EndSplineSet
EndChar

StartChar: uni3060
Encoding: 9280 12384 31
Width: 1000
VWidth: 0
Flags: H
HStem: -27.801 58.9862<560.279 738.247> 456.121 52.1143<97.3709 257.403 357.48 482.946>
VStem: 230.012 57.8412<-95.2976 304.773> 810.717 66.4321<414.016 574.932>
LayerCount: 2
Fore
SplineSet
677.662109375 633.975585938 m 4
 691.821289062 649.3125 693 649.3125 713.0546875 641.643554688 c 4
 727.802734375 636.333984375 730.161132812 629.846679688 737.240234375 579.708007812 c 4
 741.368164062 548.444335938 749.627929688 521.311523438 762.604492188 497.125 c 4
 769.682617188 484.1484375 775.581054688 471.171875 775.581054688 468.221679688 c 4
 775.581054688 465.272460938 782.659179688 453.475585938 791.5078125 442.268554688 c 4
 806.84375 421.622070312 806.84375 421.622070312 796.227539062 402.157226562 c 4
 790.329101562 391.5390625 783.25 383.87109375 780.30078125 385.640625 c 4
 777.350585938 387.411132812 768.502929688 389.76953125 760.244140625 390.950195312 c 4
 742.548828125 392.71875 744.908203125 390.359375 725.442382812 426.341796875 c 4
 684.743164062 500.075195312 675.303710938 520.719726562 678.252929688 528.389648438 c 4
 680.0234375 533.109375 679.43359375 539.596679688 677.073242188 543.135742188 c 4
 666.455078125 559.651367188 658.198242188 592.684570312 661.737304688 606.250976562 c 4
 663.506835938 614.509765625 671.174804688 626.897460938 677.662109375 633.975585938 c 4
818.051757812 589.734375 m 4
 826.310546875 602.122070312 833.388671875 605.661132812 845.775390625 603.892578125 c 4
 872.91015625 600.942382812 875.858398438 596.223632812 875.858398438 553.1640625 c 4
 875.858398438 530.748046875 878.21875 506.564453125 881.166992188 498.895507812 c 4
 907.711914062 430.470703125 900.634765625 395.079101562 864.061523438 413.364257812 c 4
 849.315429688 421.033203125 823.94921875 460.5546875 812.7421875 494.176757812 c 4
 802.125976562 525.439453125 805.075195312 570.859375 818.051757812 589.734375 c 4
334.409179688 572.240234375 m 4
 356.235351562 575.779296875 360.364257812 574.009765625 368.622070312 557.494140625 c 4
 376.87890625 540.387695312 409.913085938 529.76953125 463 528 c 4
 498.981445312 526.229492188 515.499023438 512.663085938 504.880859375 492.608398438 c 4
 501.931640625 486.709960938 501.342773438 481.990234375 503.701171875 481.990234375 c 4
 506.061523438 481.990234375 504.880859375 479.630859375 500.162109375 476.681640625 c 4
 496.033203125 473.732421875 481.286132812 472.551757812 467.719726562 474.322265625 c 4
 422.299804688 479.041015625 364.4921875 480.220703125 359.18359375 476.681640625 c 4
 356.235351562 474.912109375 351.515625 461.344726562 349.157226562 446.598632812 c 4
 346.795898438 432.440429688 341.487304688 414.745117188 337.359375 408.256835938 c 4
 333.23046875 401.767578125 327.920898438 379.353515625 325.5625 358.118164062 c 4
 323.791015625 336.8828125 320.25390625 307.979492188 318.482421875 293.231445312 c 4
 314.354492188 257.840820312 312.583984375 236.016601562 308.456054688 166.412109375 c 4
 306.094726562 133.967773438 303.146484375 95.626953125 300.786132812 80.880859375 c 4
 299.017578125 66.1328125 297.837890625 51.9765625 298.427734375 48.4365234375 c 4
 299.607421875 45.48828125 300.196289062 26.6123046875 299.607421875 7.736328125 c 4
 299.017578125 -16.4482421875 301.965820312 -30.6044921875 307.866210938 -37.0927734375 c 4
 316.123046875 -45.94140625 316.123046875 -47.7109375 307.866210938 -54.7890625 c 4
 303.146484375 -58.9189453125 299.017578125 -68.3564453125 299.017578125 -76.0244140625 c 4
 299.017578125 -84.2822265625 295.477539062 -90.1806640625 290.759765625 -90.1806640625 c 4
 286.040039062 -90.1806640625 277.782226562 -91.951171875 273.063476562 -93.720703125 c 4
 265.984375 -96.6708984375 260.67578125 -90.1806640625 251.828125 -70.7158203125 c 4
 241.799804688 -48.890625 240.03125 -30.0146484375 239.440429688 37.2294921875 c 4
 238.8515625 82.6494140625 241.209960938 149.89453125 245.33984375 187.055664062 c 4
 248.877929688 224.21875 253.0078125 282.615234375 254.77734375 316.827148438 c 4
 255.958007812 351.0390625 260.0859375 392.920898438 263.625976562 410.616210938 c 4
 271.8828125 456.036132812 271.29296875 468.423828125 258.90625 471.372070312 c 4
 242.979492188 475.501953125 139.1640625 461.344726562 123.826171875 453.67578125 c 4
 109.668945312 445.418945312 75.45703125 444.23828125 64.83984375 451.317382812 c 4
 60.7109375 453.67578125 57.1708984375 465.473632812 55.9912109375 477.271484375 c 4
 53.6328125 514.431640625 76.0478515625 528.58984375 142.702148438 531.5390625 c 4
 159.21875 532.719726562 199.919921875 535.078125 233.541992188 538.02734375 c 4
 286.630859375 542.15625 297.248046875 545.106445312 307.866210938 556.314453125 c 4
 314.354492188 563.392578125 326.741210938 570.470703125 334.409179688 572.240234375 c 4
484.235351562 277.306640625 m 4
 509.009765625 280.845703125 540.2734375 276.125976562 559.739257812 266.098632812 c 4
 567.997070312 261.379882812 579.204101562 259.610351562 583.923828125 261.379882812 c 4
 588.053710938 262.55859375 595.720703125 260.200195312 599.850585938 254.891601562 c 4
 603.978515625 250.171875 611.647460938 246.04296875 617.545898438 246.04296875 c 4
 623.444335938 246.04296875 631.11328125 241.915039062 635.2421875 237.1953125 c 4
 639.370117188 232.4765625 645.860351562 228.346679688 650.578125 228.346679688 c 4
 654.708007812 228.346679688 661.786132812 224.807617188 666.504882812 220.08984375 c 4
 671.223632812 215.370117188 679.482421875 211.830078125 685.969726562 212.420898438 c 4
 692.459960938 213.01171875 696.587890625 210.061523438 695.409179688 205.931640625 c 4
 694.818359375 201.802734375 697.176757812 192.954101562 700.717773438 186.466796875 c 4
 705.436523438 177.02734375 704.846679688 171.12890625 697.176757812 159.922851562 c 4
 685.969726562 142.81640625 680.071289062 142.225585938 658.247070312 158.15234375 c 4
 636.421875 173.490234375 583.333984375 190.595703125 538.50390625 195.904296875 c 4
 490.134765625 201.802734375 470.078125 205.931640625 470.078125 211.241210938 c 4
 470.078125 214.190429688 466.540039062 216.549804688 461.821289062 216.549804688 c 4
 449.43359375 216.549804688 447.665039062 234.245117188 457.69140625 256.071289062 c 4
 463.590820312 270.227539062 470.668945312 275.536132812 484.235351562 277.306640625 c 4
540.86328125 61.4150390625 m 4
 552.661132812 71.44140625 576.255859375 70.8525390625 587.462890625 60.826171875 c 4
 592.770507812 56.1064453125 611.647460938 49.6171875 629.34375 46.078125 c 4
 647.040039062 42.5380859375 668.2734375 37.8203125 676.533203125 36.6396484375 c 4
 684.791015625 34.8701171875 711.924804688 38.41015625 737.2890625 44.8994140625 c 4
 779.759765625 56.1064453125 800.404296875 56.1064453125 800.404296875 45.48828125 c 4
 800.404296875 26.6123046875 785.068359375 4.1982421875 763.833007812 -7.599609375 c 4
 744.3671875 -18.2177734375 727.8515625 -21.7578125 678.301757812 -24.1162109375 c 4
 583.923828125 -28.24609375 517.268554688 -9.9599609375 517.268554688 20.125 c 4
 517.268554688 30.1513671875 529.65625 51.9765625 540.86328125 61.4150390625 c 4
EndSplineSet
EndChar

StartChar: uni3061
Encoding: 9281 12385 32
Width: 1000
VWidth: 0
Flags: H
HStem: 518.406 54.9783<432.949 671.709>
VStem: 345.14 67.0046<215.259 511.466> 380.647 79.0309<577.681 643.531> 380.647 52.1143<576.95 640.819>
LayerCount: 2
Fore
SplineSet
421 678 m 4xa0
 433.598632812 691.172851562 454.788085938 687.736328125 457.079101562 672.2734375 c 4xa0
 458.223632812 665.401367188 455.93359375 655.666015625 451.3515625 650.512695312 c 4
 436.462890625 632.7578125 424.435546875 600.116210938 430.162109375 594.388671875 c 4x90
 433.598632812 590.952148438 473.114257812 589.234375 532.100585938 590.379882812 c 4
 634.612304688 592.09765625 652.365234375 589.234375 667.254882812 566.327148438 c 4
 675.845703125 553.154296875 675.845703125 550.864257812 667.254882812 531.965820312 c 4
 655.80078125 507.912109375 651.79296875 507.33984375 628.311523438 524.520507812 c 4
 611.130859375 536.546875 605.404296875 537.119140625 521.220703125 535.401367188 c 4
 472.541992188 534.256835938 430.736328125 531.392578125 427.872070312 529.102539062 c 4
 415.2734375 516.502929688 406.681640625 436.900390625 409.545898438 346.98828125 c 4
 412.409179688 229.014648438 416.41796875 219.850585938 451.3515625 238.75 c 4
 511.484375 270.247070312 534.391601562 277.693359375 572.189453125 274.829101562 c 4
 627.739257812 270.8203125 678.135742188 242.185546875 695.888671875 203.81640625 c 4
 701.04296875 192.935546875 706.770507812 164.874023438 708.489257812 141.965820312 c 4
 713.643554688 69.8076171875 682.717773438 1.0849609375 605.978515625 -85.9638671875 c 4
 581.924804688 -113.453125 557.298828125 -114.025390625 545.2734375 -87.681640625 c 4
 537.827148438 -72.791015625 538.401367188 -70.5009765625 556.7265625 -50.45703125 c 4
 577.916015625 -27.548828125 601.396484375 4.5205078125 601.396484375 11.392578125 c 4
 601.396484375 13.68359375 608.268554688 25.1376953125 616.858398438 37.1640625 c 4
 637.475585938 67.515625 648.928710938 127.6484375 640.338867188 162.58203125 c 4
 634.612304688 186.634765625 632.321289062 189.499023438 607.123046875 198.08984375 c 4
 592.233398438 203.243164062 575.052734375 207.82421875 569.325195312 207.82421875 c 4
 557.872070312 207.82421875 522.938476562 197.515625 509.765625 190.071289062 c 4
 505.184570312 187.78125 488.577148438 178.6171875 472.541992188 170.600585938 c 4
 457.079101562 162.009765625 437.607421875 151.701171875 429.58984375 147.693359375 c 4
 408.401367188 135.092773438 385.493164062 136.811523438 380.912109375 150.555664062 c 4
 379.193359375 156.85546875 375.184570312 162.009765625 372.321289062 162.009765625 c 4
 364.303710938 162.009765625 358.577148438 183.771484375 352.850585938 236.458984375 c 4
 351.705078125 247.33984375 348.840820312 266.811523438 346.55078125 279.411132812 c 4
 344.258789062 292.009765625 342.541992188 305.180664062 342.541992188 308.044921875 c 4xc0
 343.686523438 379.631835938 349.413085938 485.577148438 352.27734375 504.477539062 c 4
 354.567382812 517.6484375 354.567382812 528.529296875 351.705078125 528.529296875 c 4
 328.795898438 527.95703125 237.739257812 510.776367188 233.159179688 506.194335938 c 4
 215.978515625 489.014648438 181.04296875 515.930664062 184.479492188 543.419921875 c 4
 186.197265625 557.736328125 190.20703125 561.172851562 215.978515625 569.762695312 c 4
 248.620117188 580.643554688 269.237304688 584.653320312 326.505859375 589.807617188 c 4
 364.303710938 593.243164062 377.475585938 601.260742188 378.047851562 620.731445312 c 4
 378.047851562 628.75 386.638671875 639.631835938 421 678 c 4xa0
EndSplineSet
EndChar

StartChar: uni3062
Encoding: 9282 12386 33
Width: 1000
VWidth: 0
Flags: H
HStem: -67.3538 60.1314<475.7 534.736> 149.122 67.5771<420.342 589.967> 382.205 128.855<773.401 825.964> 406.258 71.0138<159.003 329.333> 446.919 52.6868<553.531 606.624>
VStem: 590.643 64.7131<51.1276 147.969> 652.493 69.2948<431.642 628.165>
LayerCount: 2
Fore
SplineSet
391.189453125 692.486328125 m 4xd4
 404.60546875 702.708007812 421.215820312 702.069335938 430.797851562 690.5703125 c 4
 437.186523438 682.904296875 436.546875 676.516601562 428.243164062 658.62890625 c 4
 422.493164062 646.490234375 414.827148438 634.991210938 411.633789062 633.075195312 c 4
 408.439453125 631.158203125 403.966796875 613.271484375 401.412109375 592.827148438 c 4
 399.49609375 573.024414062 394.384765625 552.583007812 390.551757812 548.110351562 c 4
 381.608398438 537.249023438 396.939453125 526.390625 410.994140625 533.41796875 c 4
 427.603515625 541.721679688 550.259765625 542.360351562 555.369140625 534.056640625 c 4
 557.92578125 530.22265625 568.78515625 527.028320312 580.284179688 527.66796875 c 4
 616.698242188 529.583984375 616.698242188 529.583984375 614.782226562 497.642578125 c 4
 613.504882812 476.561523438 610.309570312 467.616210938 604.560546875 468.89453125 c 4xcc
 600.087890625 469.534179688 591.145507812 467.616210938 584.7578125 463.78515625 c 4
 575.813476562 459.3125 566.869140625 460.58984375 552.815429688 467.616210938 c 4
 533.650390625 477.200195312 469.127929688 476.561523438 415.465820312 466.338867188 c 4
 379.051757812 458.673828125 368.83203125 390.319335938 382.247070312 240.192382812 c 4
 387.358398438 187.80859375 393.74609375 174.392578125 406.522460938 190.36328125 c 4
 414.827148438 200.584960938 438.46484375 204.418945312 531.094726562 212.083984375 c 4
 569.42578125 215.91796875 580.922851562 214 607.755859375 201.862304688 c 4
 650.555664062 182.697265625 668.443359375 155.866210938 669.08203125 107.953125 c 4
 669.08203125 63.2353515625 653.75 24.9072265625 617.336914062 -17.255859375 c 4
 603.283203125 -33.2265625 587.950195312 -52.3916015625 582.840820312 -58.78125 c 4
 571.341796875 -76.0302734375 527.26171875 -104.775390625 513.208007812 -104.775390625 c 4
 506.819335938 -104.775390625 492.125976562 -96.4716796875 481.266601562 -86.8896484375 c 4
 464.017578125 -71.556640625 462.1015625 -67.0849609375 468.490234375 -55.5869140625 c 4
 472.321289062 -47.919921875 483.8203125 -40.2548828125 494.04296875 -37.7001953125 c 4
 504.90234375 -35.7822265625 515.125 -28.1162109375 517.040039062 -21.7275390625 c 4
 518.958007812 -15.33984375 525.984375 -8.951171875 532.374023438 -7.0361328125 c 4
 552.176757812 -1.9248046875 596.89453125 72.1796875 596.89453125 99.6484375 c 4
 596.89453125 122.008789062 594.978515625 124.563476562 570.703125 134.147460938 c 4
 556.008789062 139.895507812 539.399414062 143.090820312 533.01171875 141.173828125 c 4
 527.26171875 139.256835938 511.290039062 137.340820312 498.514648438 136.701171875 c 4
 485.736328125 136.063476562 475.516601562 134.147460938 475.516601562 131.591796875 c 4
 475.516601562 129.037109375 457.629882812 122.008789062 435.908203125 116.259765625 c 4
 413.549804688 109.872070312 387.358398438 100.926757812 377.135742188 95.81640625 c 4
 347.111328125 80.484375 331.779296875 95.177734375 322.196289062 148.840820312 c 4
 307.502929688 233.165039062 305.586914062 261.275390625 310.057617188 389.041015625 c 4
 310.697265625 413.317382812 308.78125 435.037109375 305.586914062 438.231445312 c 4
 301.752929688 442.0625 292.171875 440.147460938 280.672851562 434.397460938 c 4
 267.896484375 427.37109375 243.620117188 424.177734375 205.9296875 423.538085938 c 4
 146.517578125 423.538085938 122.880859375 431.842773438 114.575195312 457.396484375 c 4
 109.465820312 474.005859375 126.713867188 502.11328125 142.045898438 502.752929688 c 4
 205.290039062 504.030273438 278.755859375 509.780273438 296.642578125 513.61328125 c 4
 317.725585938 518.084960938 319.002929688 520.640625 322.834960938 550.02734375 c 4
 325.390625 567.913085938 329.86328125 592.189453125 334.333984375 604.327148438 c 4
 342 627.96484375 375.219726562 679.071289062 391.189453125 692.486328125 c 4xd4
681.858398438 673.321289062 m 4
 690.1640625 684.181640625 740.631835938 682.904296875 750.213867188 671.405273438 c 4
 755.962890625 664.376953125 756.6015625 657.3515625 751.4921875 644.573242188 c 4
 748.297851562 634.352539062 744.46484375 609.4375 744.46484375 588.357421875 c 4
 743.826171875 567.275390625 743.186523438 547.471679688 743.186523438 543.637695312 c 4
 742.547851562 532.139648438 749.576171875 507.86328125 759.796875 488.059570312 c 4
 764.908203125 477.200195312 769.379882812 459.3125 769.379882812 449.090820312 c 4
 769.379882812 438.231445312 773.212890625 424.81640625 778.323242188 419.705078125 c 4
 805.154296875 388.403320312 793.015625 364.125976562 755.962890625 374.986328125 c 4
 737.436523438 380.736328125 730.411132812 388.403320312 715.079101562 419.705078125 c 4
 704.857421875 440.147460938 695.274414062 457.396484375 692.71875 457.396484375 c 4
 682.497070312 457.396484375 667.166015625 530.22265625 665.889648438 582.607421875 c 4xc2
 665.249023438 637.545898438 668.443359375 656.072265625 681.858398438 673.321289062 c 4
823.680664062 540.443359375 m 4xe0
 839.650390625 546.833007812 859.456054688 542.360351562 869.037109375 529.583984375 c 4
 874.787109375 522.556640625 874.147460938 516.168945312 866.481445312 500.836914062 c 4
 858.815429688 484.2265625 858.176757812 474.64453125 863.288085938 448.452148438 c 4
 870.953125 412.0390625 866.481445312 401.818359375 840.290039062 396.70703125 c 4
 829.4296875 394.790039062 821.125 398.623046875 811.541992188 410.760742188 c 4
 795.5703125 431.204101562 780.877929688 469.534179688 785.989257812 477.200195312 c 4
 787.90625 480.392578125 791.099609375 490.615234375 792.376953125 500.19921875 c 4
 796.2109375 521.278320312 805.79296875 533.41796875 823.680664062 540.443359375 c 4xe0
EndSplineSet
EndChar

StartChar: uni3063
Encoding: 9283 12387 34
Width: 1000
VWidth: 0
Flags: H
HStem: -56.6469 62.9954<522.015 588.242>
LayerCount: 2
Fore
SplineSet
309.125 313.357421875 m 4
 337.536132812 321.771484375 426.219726562 329.776367188 486.66015625 327.919921875 c 4
 530.095703125 327.04296875 613.98046875 306.5859375 638.537109375 291.048828125 c 4
 649.600585938 284.244140625 666.716796875 275.931640625 677.366210938 272.75 c 4
 696.405273438 266.862304688 730.849609375 216.4765625 742.045898438 176.633789062 c 4
 748.090820312 156.030273438 742.162109375 86.306640625 732.2578125 63.8662109375 c 4
 724.837890625 45.384765625 653.63671875 -44.3369140625 646.388671875 -45.171875 c 4
 642.765625 -45.5888671875 631.91796875 -53.447265625 621.879882812 -61.94921875 c 4
 611.922851562 -71.17578125 589.728515625 -82.54296875 571.858398438 -86.8017578125 c 4
 545.455078125 -93.515625 536.58984375 -93.064453125 525.9140625 -83.2783203125 c 4
 507.963867188 -67.7158203125 511.484375 -40.8701171875 532.645507812 -33.2919921875 c 4
 541.818359375 -30.0341796875 564.880859375 -13.4248046875 584.31640625 2.767578125 c 4
 604.4765625 19.044921875 622.712890625 32.8955078125 625.614257812 33.2294921875 c 4
 629.236328125 33.646484375 630.912109375 38.2451171875 630.328125 43.3193359375 c 4
 629.744140625 48.39453125 637.581054688 63.251953125 648.569335938 76.2666015625 c 4
 661.481445312 91.708984375 667.53515625 109.299804688 668.65625 131.462890625 c 4
 670.59765625 191.178710938 644.145507812 216.779296875 556.640625 236.8203125 c 4
 428.23828125 267.576171875 289.646484375 246.481445312 265.767578125 192.3203125 c 4
 259.85546875 179.888671875 237.466796875 176.578125 226.624023438 187.814453125 c 4
 206.724609375 207.557617188 206.672851562 220.772460938 225.357421875 243.489257812 c 4
 236.428710938 255.78125 244.349609375 269.912109375 243.765625 274.986328125 c 4
 242.596679688 285.135742188 269.44921875 300.712890625 309.125 313.357421875 c 4
EndSplineSet
EndChar

StartChar: uni3064
Encoding: 9284 12388 35
Width: 1000
VWidth: 0
Flags: H
HStem: 40.5229 32.0709<332.626 376.191> 441.404 56.1235<263.221 572.521>
VStem: 606.231 102.511<225.764 265.44>
LayerCount: 2
Fore
SplineSet
400 536 m 4
 415.874023438 536.720703125 475.043945312 537.443359375 532.048828125 536.720703125 c 4
 614.310546875 535.278320312 642.453125 531.670898438 672.759765625 520.125 c 4
 720.384765625 502.083984375 756.462890625 484.045898438 777.389648438 468.170898438 c 4
 812.0234375 441.47265625 858.927734375 354.161132812 857.484375 318.803710938 c 4
 855.321289062 264.68359375 819.962890625 173.762695312 786.76953125 137.684570312 c 4
 777.389648438 127.58203125 761.512695312 108.098632812 752.1328125 95.8310546875 c 4
 742.032226562 82.8447265625 730.485351562 72.0205078125 726.876953125 72.0205078125 c 4
 719.661132812 72.0205078125 676.366210938 41.7138671875 648.947265625 17.1787109375 c 4
 617.918945312 -10.9619140625 563.076171875 -36.2177734375 524.112304688 -39.826171875 c 4
 470.71484375 -45.59765625 398.555664062 -45.59765625 389.17578125 -39.826171875 c 4
 381.23828125 -34.7744140625 379.073242188 -0.1376953125 387.732421875 0.5830078125 c 4
 390.619140625 0.5830078125 413.709960938 2.0263671875 439.686523438 2.748046875 c 4
 470.71484375 4.1923828125 496.69140625 9.962890625 515.454101562 20.787109375 c 4
 531.328125 28.7255859375 546.481445312 35.9404296875 550.08984375 35.9404296875 c 4
 567.408203125 35.9404296875 728.321289062 174.484375 728.321289062 188.916015625 c 4
 728.321289062 195.411132812 757.185546875 238.706054688 765.842773438 245.200195312 c 4
 778.83203125 255.303710938 783.16015625 307.978515625 773.78125 334.677734375 c 4
 762.958007812 365.705078125 731.208007812 411.166015625 720.384765625 411.166015625 c 4
 716.775390625 411.166015625 704.5078125 417.66015625 693.684570312 425.598632812 c 4
 665.543945312 446.5234375 607.095703125 459.510742188 519.060546875 465.284179688 c 4
 456.283203125 468.892578125 432.470703125 467.450195312 379.795898438 455.182617188 c 4
 291.040039062 434.256835938 271.557617188 424.155273438 226.096679688 378.694335938 c 4
 204.44921875 356.325195312 182.801757812 339.0078125 177.75 341.171875 c 4
 166.926757812 344.778320312 136.62109375 388.796875 136.62109375 401.0625 c 4
 136.62109375 425.598632812 213.107421875 490.540039062 241.25 490.540039062 c 4
 246.301757812 490.540039062 254.23828125 494.869140625 258.568359375 500.641601562 c 4
 267.227539062 511.466796875 349.48828125 531.670898438 400 536 c 4
EndSplineSet
EndChar

StartChar: uni3065
Encoding: 9285 12389 36
Width: 1000
VWidth: 0
Flags: H
HStem: 24.4069 80.1759<432.817 539.488> 35.8605 49.2514<437.195 483.341> 381.191 59.56<242.579 529.638>
VStem: 596.643 60.1314<170.808 323.208> 693.427 63.5679<408.583 559.66> 828.008 72.1577<428.903 528.593>
LayerCount: 2
Fore
SplineSet
681.811523438 571.186523438 m 4x3c
 694.502929688 598.572265625 696.506835938 600.576171875 717.213867188 597.90625 c 4
 764.639648438 591.892578125 767.98046875 587.216796875 755.956054688 535.115234375 c 4
 746.60546875 495.036132812 758.627929688 450.280273438 787.352539062 422.225585938 c 4
 799.376953125 409.534179688 809.395507812 397.509765625 809.395507812 394.836914062 c 4
 809.395507812 391.498046875 797.372070312 382.146484375 782.67578125 374.130859375 c 4
 757.29296875 360.103515625 753.952148438 359.435546875 740.59375 369.455078125 c 4
 704.522460938 394.836914062 693.834960938 406.194335938 676.466796875 442.932617188 c 4
 655.759765625 487.020507812 657.095703125 513.73828125 681.811523438 571.186523438 c 4x3c
851.70703125 564.463867188 m 4
 872.416015625 575.149414062 872.416015625 575.149414062 890.452148438 560.455078125 c 4
 899.802734375 551.770507812 905.146484375 540.416015625 905.146484375 525.719726562 c 4
 905.146484375 514.364257812 911.826171875 491.653320312 919.174804688 476.2890625 c 4
 929.194335938 456.25 931.865234375 441.553710938 929.194335938 429.530273438 c 4
 925.185546875 412.831054688 922.513671875 411.495117188 899.802734375 415.502929688 c 4
 869.075195312 420.846679688 827.662109375 465.6015625 820.98046875 499 c 4
 815.637695312 526.388671875 827.662109375 552.439453125 851.70703125 564.463867188 c 4
330.118164062 442.36328125 m 4
 330.81640625 442.999023438 368.913085938 442.521484375 414.98046875 441 c 4
 533.842773438 437.345703125 598.4375 417.55078125 650.354492188 370.2734375 c 4
 716.376953125 310.287109375 723.684570312 295.227539062 720 217.829101562 c 4
 716.25 139.095703125 701.19140625 103.700195312 647.01953125 47.4326171875 c 4
 588.622070312 -13.318359375 533.337890625 -50.8095703125 505.314453125 -49.4755859375 c 4xbc
 493.3046875 -48.9033203125 483.454101562 -45.0927734375 483.61328125 -41.7548828125 c 4
 483.803710938 -37.75390625 478.594726562 -34.830078125 471.922851562 -34.51171875 c 4
 441.896484375 -33.08203125 433.603515625 17.46875 462.643554688 23.4423828125 c 4x7c
 471.412109375 25.0322265625 484.693359375 23.060546875 491.17578125 18.740234375 c 4
 501.596679688 12.8935546875 507.697265625 14.609375 522.34375 27.287109375 c 4
 532.09765625 35.5166015625 542.45703125 42.3798828125 544.458984375 42.283203125 c 4xbc
 551.130859375 41.9658203125 582.83984375 75.8974609375 607.176757812 109.515625 c 4
 633.676757812 146.37109375 648.1953125 184.46484375 649.911132812 220.49609375 c 4
 651.150390625 246.51953125 636.946289062 285.314453125 626.271484375 285.821289062 c 4
 622.268554688 286.012695312 619.821289062 290.810546875 620.076171875 296.147460938 c 4
 620.965820312 314.829101562 551.669921875 348.221679688 495.842773438 355.561523438 c 4
 447.357421875 362.551757812 437.444335938 365.029296875 432.362304688 370.62109375 c 4
 424.735351562 379.009765625 268.890625 364.361328125 268.447265625 355.020507812 c 4
 268.319335938 352.3515625 264.189453125 349.873046875 259.518554688 350.094726562 c 4
 232.161132812 351.3984375 165.6953125 303.739257812 164.646484375 281.720703125 c 4
 164.265625 273.713867188 159.211914062 265.928710938 153.779296875 264.181640625 c 4
 135.415039062 257.700195312 95.4130859375 274.317382812 82.92578125 292.967773438 c 6
 70.4072265625 310.94921875 l 5
 86.8984375 334.240234375 l 6
 102.022460938 356.926757812 154.66796875 395.211914062 169.34765625 394.513671875 c 4
 172.684570312 394.354492188 191.080078125 401.502929688 208.872070312 410.018554688 c 4
 246.5234375 428.286132812 272.290039062 435.754882812 305.875976562 438.836914062 c 4
 317.98046875 440.266601562 329.41796875 441.727539062 330.118164062 442.36328125 c 4
EndSplineSet
EndChar

StartChar: uni3066
Encoding: 9286 12390 37
Width: 1000
VWidth: 0
Flags: HW
HStem: 436.166 86.7739<10.4467 142.095>
LayerCount: 2
Fore
SplineSet
514.583007812 565.861328125 m 4
 642.561523438 581.274414062 796.670898438 568.54296875 844.9140625 538.390625 c 4
 881.766601562 514.939453125 877.076171875 498.1875 826.154296875 472.725585938 c 4
 766.520507812 443.245117188 710.905273438 402.372070312 666.012695312 356.139648438 c 4
 644.571289062 333.357421875 623.799804688 315.266601562 621.12109375 315.266601562 c 4
 617.76953125 315.266601562 607.049804688 297.844726562 597.66796875 277.07421875 c 4
 578.907226562 234.860351562 567.517578125 161.15625 574.887695312 134.354492188 c 4
 582.927734375 107.551757812 604.369140625 72.7099609375 618.439453125 64.669921875 c 4
 625.140625 60.6494140625 637.201171875 51.939453125 644.571289062 45.908203125 c 4
 659.983398438 31.837890625 673.384765625 30.49609375 676.733398438 41.21875 c 4
 680.75390625 53.279296875 721.625976562 41.21875 729.666992188 26.4775390625 c 4
 745.747070312 -5.0146484375 710.905273438 -34.49609375 664.671875 -29.13671875 c 4
 600.349609375 -21.7646484375 587.618164062 -16.40625 544.065429688 25.8076171875 c 4
 500.51171875 66.6796875 477.060546875 148.42578125 494.48046875 198.677734375 c 4
 498.501953125 209.399414062 501.852539062 227.490234375 503.193359375 238.2109375 c 4
 507.212890625 271.712890625 545.404296875 354.797851562 559.475585938 360.159179688 c 4
 564.166992188 362.169921875 568.1875 366.189453125 568.1875 369.540039062 c 4
 568.1875 375.571289062 599.008789062 411.751953125 650.6015625 464.686523438 c 4
 664.671875 479.426757812 674.053710938 493.498046875 671.374023438 495.508789062 c 4
 661.323242188 505.55859375 501.852539062 496.84765625 467.009765625 484.1171875 c 4
 458.299804688 480.768554688 442.21875 480.768554688 431.497070312 483.447265625 c 4
 420.776367188 486.796875 407.375 486.796875 401.344726562 483.447265625 c 4
 395.314453125 480.096679688 373.874023438 475.407226562 353.772460938 472.725585938 c 4
 333.670898438 470.045898438 311.559570312 465.35546875 305.529296875 462.005859375 c 4
 299.499023438 458.65625 278.05859375 454.63671875 258.625976562 453.294921875 c 4
 238.525390625 451.955078125 216.413085938 447.935546875 209.04296875 443.9140625 c 4
 172.861328125 424.483398438 143.377929688 415.103515625 124.618164062 417.11328125 c 4
 106.526367188 418.453125 101.8359375 423.143554688 96.474609375 441.235351562 c 4
 91.7861328125 458.65625 93.1259765625 465.35546875 102.505859375 476.077148438 c 4
 109.206054688 483.447265625 118.587890625 489.478515625 123.276367188 489.478515625 c 4
 127.967773438 489.478515625 136.677734375 494.16796875 142.0390625 500.197265625 c 4
 148.069335938 505.55859375 162.138671875 512.928710938 173.530273438 516.279296875 c 4
 194.97265625 522.309570312 383.254882812 549.782226562 514.583007812 565.861328125 c 4
EndSplineSet
EndChar

StartChar: uni3067
Encoding: 9287 12391 38
Width: 1000
VWidth: 0
Flags: H
HStem: -56.5094 74.4492<506.045 558.774> 442.301 109.955<829.235 876.502>
VStem: 151.388 64.7144<347.657 406.306> 445.178 85.9041<-9.34383 53.3427> 683.416 69.2948<487.129 581.117> 820.289 63.5679<443.877 545.848>
LayerCount: 2
Fore
SplineSet
695.442382812 582.037109375 m 0
 706.323242188 593.490234375 725.794921875 592.91796875 742.40234375 581.463867188 c 0
 752.7109375 574.018554688 755.000976562 568.291992188 752.7109375 553.975585938 c 0
 749.846679688 535.075195312 763.591796875 501.287109375 779.627929688 488.115234375 c 0
 795.088867188 474.944335938 791.081054688 453.181640625 771.609375 445.737304688 c 0
 757.865234375 440.583007812 754.428710938 436.000976562 754.428710938 423.40234375 c 0
 754.428710938 410.802734375 750.419921875 405.6484375 739.538085938 401.067382812 c 0
 730.94921875 398.204101562 725.794921875 394.194335938 727.51171875 391.904296875 c 0
 732.666015625 387.322265625 720.640625 366.1328125 714.913085938 369.569335938 c 0
 706.323242188 375.295898438 669.098632812 360.979492188 641.609375 342.65234375 c 0
 544.825195312 277.3671875 516.763671875 242.43359375 502.447265625 169.702148438 c 0
 498.4375 150.802734375 493.283203125 132.4765625 490.9921875 129.614257812 c 0
 478.965820312 114.723632812 509.319335938 17.939453125 525.354492188 17.939453125 c 0
 528.790039062 17.939453125 531.081054688 13.9306640625 531.081054688 9.3486328125 c 0
 531.081054688 4.1943359375 537.953125 -2.1044921875 547.115234375 -4.9677734375 c 0
 555.706054688 -8.404296875 567.16015625 -13.55859375 572.314453125 -16.421875 c 0
 584.913085938 -23.29296875 632.447265625 -23.8671875 636.455078125 -16.994140625 c 0
 641.609375 -9.5498046875 679.407226562 -29.59375 679.979492188 -39.9013671875 c 0
 679.979492188 -44.4833984375 673.680664062 -54.21875 666.80859375 -61.0908203125 c 0
 648.481445312 -78.8447265625 586.630859375 -81.1357421875 544.252929688 -66.818359375 c 0
 527.64453125 -61.0908203125 511.609375 -56.509765625 508.173828125 -56.509765625 c 0
 496.720703125 -56.509765625 445.177734375 -8.9765625 445.177734375 2.4765625 c 0
 445.177734375 6.486328125 440.0234375 15.6484375 433.723632812 23.6669921875 c 0
 419.407226562 41.9921875 417.689453125 121.595703125 430.860351562 153.666992188 c 0
 435.442382812 164.547851562 439.450195312 177.71875 439.450195312 182.30078125 c 0
 439.450195312 186.8828125 442.88671875 198.909179688 447.46875 208.64453125 c 0
 451.477539062 218.952148438 459.495117188 238.997070312 464.649414062 253.313476562 c 0
 481.2578125 300.274414062 571.7421875 401.067382812 615.838867188 422.255859375 c 0
 636.455078125 432.564453125 639.319335938 440.583007812 624.428710938 445.1640625 c 0
 618.702148438 446.8828125 606.67578125 452.037109375 596.939453125 457.19140625 c 0
 584.340820312 463.490234375 557.423828125 466.353515625 496.720703125 468.071289062 c 0
 425.706054688 470.362304688 406.234375 468.64453125 362.138671875 458.3359375 c 0
 304.870117188 444.018554688 285.970703125 436.57421875 256.19140625 415.383789062 c 0
 223.547851562 391.904296875 216.103515625 383.313476562 216.103515625 369.569335938 c 0
 216.103515625 353.534179688 213.239257812 351.81640625 182.88671875 346.662109375 c 0
 160.551757812 343.225585938 158.834960938 343.797851562 151.388671875 362.125 c 0
 143.944335938 378.732421875 143.944335938 383.313476562 150.81640625 393.049804688 c 0
 155.397460938 399.348632812 161.125 410.229492188 163.989257812 417.1015625 c 0
 177.732421875 447.455078125 222.40234375 474.944335938 312.88671875 507.013671875 c 0
 375.309570312 529.348632812 474.958007812 540.229492188 536.80859375 531.067382812 c 0
 547.689453125 529.348632812 566.014648438 527.05859375 576.896484375 525.340820312 c 0
 604.385742188 521.904296875 674.825195312 492.697265625 693.151367188 477.234375 c 0
 707.46875 464.635742188 712.623046875 473.797851562 698.877929688 489.260742188 c 0
 692.578125 496.1328125 685.706054688 507.013671875 683.416015625 512.741210938 c 0
 677.689453125 528.204101562 685.706054688 572.30078125 695.442382812 582.037109375 c 0
841.477539062 552.255859375 m 0
 845.486328125 553.975585938 852.931640625 553.975585938 857.51171875 552.255859375 c 0
 862.09375 550.538085938 870.684570312 547.67578125 876.984375 545.95703125 c 0
 886.146484375 543.666992188 886.720703125 539.657226562 883.856445312 514.459960938 c 0
 880.9921875 492.697265625 882.138671875 484.106445312 889.010742188 476.08984375 c 0
 900.463867188 463.490234375 895.8828125 452.609375 876.984375 443.446289062 c 0
 866.67578125 438.291992188 858.658203125 438.291992188 851.212890625 442.30078125 c 0
 838.614257812 448.600585938 822.578125 477.806640625 820.288085938 497.8515625 c 0
 818.569335938 515.032226562 831.168945312 548.248046875 841.477539062 552.255859375 c 0
EndSplineSet
EndChar

StartChar: uni3068
Encoding: 9288 12392 39
Width: 1000
VWidth: 0
Flags: H
HStem: 33.2238 51.5418<649.968 725.682> 322.432 69.8673<635.861 710.879>
LayerCount: 2
Fore
SplineSet
237.916992188 659.514648438 m 4
 244.30859375 664.486328125 252.120117188 668.74609375 254.959960938 668.74609375 c 4
 264.192382812 668.74609375 302.5390625 647.442382812 302.5390625 641.760742188 c 4
 308.220703125 521.0390625 310.350585938 501.864257812 323.842773438 479.8515625 c 4
 331.655273438 467.068359375 338.045898438 454.287109375 337.334960938 450.735351562 c 4
 334.49609375 439.373046875 352.958984375 384.694335938 359.350585938 384.694335938 c 4
 363.611328125 384.694335938 366.451171875 381.142578125 366.451171875 377.591796875 c 4
 366.451171875 373.331054688 371.421875 359.12890625 377.103515625 344.92578125 c 4
 382.78515625 331.43359375 387.043945312 318.651367188 387.043945312 316.521484375 c 4
 386.334960938 308.708984375 426.103515625 271.072265625 434.625 271.072265625 c 4
 438.885742188 271.072265625 445.986328125 266.8125 450.956054688 261.83984375 c 4
 456.638671875 254.029296875 470.83984375 263.969726562 517 308 c 4
 582.331054688 371.201171875 651.924804688 416.6484375 678.200195312 414.518554688 c 4
 699.50390625 412.389648438 728.618164062 394.634765625 728.618164062 383.272460938 c 4
 728.618164062 371.912109375 685.30078125 327.8828125 675.359375 327.8828125 c 4
 670.387695312 327.8828125 661.15625 321.4921875 654.0546875 313.681640625 c 4
 646.953125 305.868164062 637.01171875 299.477539062 632.750976562 299.477539062 c 4
 627.78125 299.477539062 622.099609375 294.5078125 619.2578125 288.826171875 c 4
 617.12890625 283.143554688 611.447265625 278.172851562 605.765625 278.172851562 c 4
 595.82421875 278.172851562 524.100585938 210.000976562 497.116210938 175.205078125 c 4
 475.8125 147.509765625 437.463867188 69.3955078125 437.463867188 53.7705078125 c 4
 437.463867188 35.30859375 465.870117188 -10.8505859375 483.623046875 -20.08203125 c 4
 505.637695312 -32.154296875 579.491210938 -16.53125 632.750976562 11.1640625 c 4
 659.735351562 25.365234375 686.01171875 33.177734375 703.763671875 33.177734375 c 4
 731.458984375 33.177734375 732.169921875 32.4677734375 734.299804688 5.4833984375 c 4
 736.4296875 -22.9228515625 726.489257812 -37.1259765625 708.734375 -30.734375 c 4
 703.763671875 -28.603515625 687.430664062 -34.9951171875 673.228515625 -44.9365234375 c 4
 610.026367188 -86.8349609375 490.724609375 -101.748046875 437.463867188 -74.76171875 c 4
 394.856445312 -54.1689453125 350.829101562 -10.140625 349.408203125 12.5849609375 c 4
 347.98828125 23.9462890625 345.147460938 38.1484375 342.307617188 44.5400390625 c 4
 336.625976562 58.033203125 385.625 162.421875 404.798828125 178.043945312 c 4
 422.551757812 192.95703125 418.291015625 201.479492188 380.653320312 232.015625 c 4
 361.481445312 247.637695312 345.856445312 263.260742188 345.147460938 266.1015625 c 4
 345.147460938 268.942382812 329.524414062 295.926757812 310.350585938 325.041992188 c 4
 291.177734375 354.157226562 269.874023438 394.634765625 262.7734375 415.229492188 c 4
 256.381835938 435.822265625 247.1484375 462.098632812 242.178710938 473.459960938 c 4
 237.208007812 485.53125 227.9765625 515.357421875 221.5859375 540.921875 c 4
 209.512695312 592.051757812 216.61328125 643.182617188 237.916992188 659.514648438 c 4
EndSplineSet
EndChar

StartChar: uni3069
Encoding: 9289 12393 40
Width: 1000
VWidth: 0
Flags: H
HStem: -39.1672 56.1235<426.937 535.137>
VStem: 220.397 51.5418<495.483 568.766> 645.902 77.8857<397.13 470.323> 843.48 74.4504<335.789 401.551 416.562 454.297>
LayerCount: 2
Fore
SplineSet
111.750976562 607.365234375 m 4
 121.185546875 618.819335938 118.48828125 618.819335938 145.44140625 607.365234375 c 4
 168.353515625 597.9296875 169.026367188 596.583984375 172.395507812 533.245117188 c 4
 173.068359375 515.051757812 179.806640625 483.380859375 186.545898438 463.166015625 c 4
 193.282226562 442.952148438 198.674804688 417.346679688 198.674804688 407.240234375 c 4
 198.674804688 397.131835938 202.04296875 386.350585938 205.412109375 384.330078125 c 4
 209.456054688 382.30859375 212.150390625 373.549804688 212.150390625 365.4609375 c 4
 212.150390625 357.375976562 216.868164062 341.87890625 222.2578125 331.09765625 c 4
 227.649414062 320.990234375 232.364257812 306.83984375 232.364257812 300.776367188 c 4
 232.364257812 294.711914062 237.081054688 281.234375 243.145507812 269.780273438 c 4
 249.2109375 258.997070312 258.643554688 240.8046875 264.03515625 230.697265625 c 4
 270.100585938 219.915039062 281.5546875 209.135742188 290.314453125 205.765625 c 4
 299.07421875 202.397460938 306.485351562 194.985351562 306.485351562 188.920898438 c 4
 306.485351562 172.075195312 326.026367188 177.46484375 355.000976562 202.397460938 c 4
 370.499023438 215.200195312 393.409179688 229.350585938 406.884765625 233.392578125 c 4
 420.361328125 238.109375 441.924804688 250.239257812 454.727539062 260.345703125 c 4
 467.530273438 271.125976562 481.6796875 279.885742188 486.396484375 279.885742188 c 4
 491.114257812 279.885742188 497.850585938 285.276367188 501.220703125 292.014648438 c 4
 507.286132812 302.796875 536.932617188 314.250976562 590.166015625 325.033203125 c 4
 615.09765625 329.749023438 636.659179688 316.947265625 636.659179688 296.732421875 c 4
 636.659179688 287.298828125 633.96484375 279.885742188 630.594726562 279.885742188 c 4
 627.2265625 279.885742188 622.508789062 273.823242188 619.813476562 267.083984375 c 4
 615.770507812 252.932617188 594.8828125 240.130859375 515.37109375 201.049804688 c 4
 487.745117188 187.572265625 456.075195312 169.37890625 445.966796875 160.620117188 c 4
 435.186523438 151.859375 423.057617188 145.122070312 419.014648438 145.122070312 c 4
 404.864257812 145.122070312 347.58984375 85.82421875 342.872070312 67.6328125 c 4
 334.112304688 32.591796875 344.219726562 -5.140625 368.478515625 -25.3544921875 c 4
 388.01953125 -42.2001953125 394.7578125 -44.22265625 420.361328125 -40.8544921875 c 4
 437.208007812 -38.1572265625 452.032226562 -34.1162109375 454.053710938 -31.4189453125 c 4
 456.748046875 -28.0517578125 476.290039062 -12.5537109375 498.526367188 3.619140625 c 4
 520.762695312 19.1171875 543.671875 38.6572265625 549.736328125 46.0693359375 c 4
 557.822265625 55.50390625 561.865234375 56.8505859375 565.907226562 51.4599609375 c 4
 568.603515625 46.7421875 578.7109375 40.005859375 588.14453125 36.63671875 c 6
 605.663085938 29.8984375 l 5
 581.40625 4.966796875 l 6
 567.930664062 -8.5107421875 551.083007812 -26.03125 543.671875 -33.4423828125 c 4
 492.4609375 -87.3486328125 450.68359375 -107.5625 394.083984375 -106.888671875 c 4
 333.438476562 -106.21484375 293.008789062 -82.6298828125 272.12109375 -38.1572265625 c 4
 264.03515625 -20.638671875 254.6015625 -1.09765625 251.231445312 5.6396484375 c 4
 243.145507812 22.486328125 251.90625 75.7177734375 266.73046875 103.344726562 c 4
 282.90234375 131.645507812 282.90234375 136.362304688 264.708984375 142.426757812 c 4
 233.712890625 151.859375 189.240234375 211.157226562 152.1796875 293.362304688 c 4
 142.74609375 314.250976562 104.338867188 463.83984375 100.294921875 494.1640625 c 4
 98.9482421875 506.965820312 96.2529296875 519.09375 94.9052734375 521.7890625 c 4
 90.1884765625 529.202148438 103.665039062 597.256835938 111.750976562 607.365234375 c 4
657.548828125 496.184570312 m 4
 669.677734375 498.87890625 681.131835938 500.901367188 681.806640625 501.575195312 c 4
 682.479492188 501.575195312 687.87109375 497.53125 693.260742188 491.466796875 c 4
 699.32421875 486.076171875 704.041015625 471.252929688 704.041015625 459.123046875 c 4
 704.041015625 442.952148438 710.780273438 431.497070312 729.646484375 412.62890625 c 4
 745.818359375 397.131835938 759.294921875 389.045898438 766.033203125 391.067382812 c 4
 784.2265625 398.479492188 808.485351562 383.654296875 810.506835938 364.788085938 c 4
 813.201171875 328.401367188 750.53515625 316.2734375 706.0625 344.57421875 c 4
 697.977539062 349.96484375 686.5234375 354.0078125 681.806640625 354.0078125 c 4
 669.002929688 354.0078125 617.118164062 411.955078125 612.400390625 431.497070312 c 4
 605.663085938 457.776367188 629.248046875 491.466796875 657.548828125 496.184570312 c 4
851.609375 451.037109375 m 4
 863.063476562 469.23046875 871.149414062 475.295898438 884.625976562 475.295898438 c 4
 916.295898438 474.62109375 927.078125 461.145507812 922.360351562 426.10546875 c 4
 918.9921875 401.848632812 921.013671875 389.045898438 932.46875 367.484375 c 4
 956.051757812 322.336914062 949.987304688 309.53515625 909.557617188 317.620117188 c 4
 880.583984375 323.01171875 856.325195312 351.310546875 844.870117188 395.111328125 c 4
 837.458984375 423.411132812 837.458984375 428.127929688 851.609375 451.037109375 c 4
EndSplineSet
EndChar

